<svg width="225" height="66" viewBox="0 0 225 66" fill="none" xmlns="http://www.w3.org/2000/svg">
<path d="M100.32 12.511C99.7778 13.4295 99.0349 14.1773 98.0977 14.7483C97.1575 15.3192 96.1217 15.6047 94.9842 15.6047C93.8467 15.6047 92.8233 15.3316 91.9108 14.7855C90.9706 14.2145 90.2308 13.4574 89.6882 12.511C89.121 11.518 88.8374 10.4599 88.8374 9.33975C88.8374 8.19785 89.1087 7.15215 89.6512 6.20574C90.2431 5.23761 90.9983 4.47737 91.9108 3.93125C92.8233 3.38512 93.8498 3.11206 94.9842 3.11206C96.1187 3.11206 97.1575 3.38512 98.0977 3.93125C99.0102 4.47737 99.7531 5.23761 100.32 6.20574C100.863 7.15215 101.134 8.19475 101.134 9.33975C101.137 10.5344 100.863 11.5925 100.32 12.511Z" fill="#FFFF1A"/>
<path d="M100.857 16.6069C100.253 17.5843 99.4296 18.3725 98.3877 18.9807C97.3458 19.5889 96.1928 19.8898 94.932 19.8898C93.6712 19.8898 92.5306 19.6013 91.5164 19.021C90.4745 18.4159 89.6514 17.6092 89.0472 16.6069C88.5324 15.7443 88.2303 14.8382 88.1348 13.8887V60.3C88.1348 63.102 90.4992 65.3734 93.4123 65.3734H96.3747C99.2909 65.3734 101.652 63.102 101.652 60.3V14.4813C101.52 15.254 101.255 15.9615 100.857 16.6069Z" fill="white"/>
<path d="M33.1307 34.7717C31.95 33.7788 30.6615 33.031 29.262 32.5345C27.8069 32.038 26.2718 31.7898 24.6534 31.7898C21.6354 31.7898 19.083 32.7703 16.9991 34.7314C14.8875 36.6925 13.8301 39.1221 13.8301 42.0234C13.8301 44.2886 14.2833 46.3179 15.1896 48.1146C16.0682 49.9112 17.3721 51.3324 19.0984 52.3812C20.7723 53.4579 22.7051 53.9978 24.9 53.9978C28.1368 53.9978 30.9081 52.9614 33.2139 50.8918L40.415 60.089C39.3731 61.1937 37.9181 62.1742 36.0531 63.0306C34.1603 63.8871 32.2121 64.5232 30.2083 64.9359C28.2046 65.3517 26.3519 65.5565 24.6534 65.5565C19.8783 65.5565 15.6674 64.548 12.0175 62.531C8.36766 60.4862 5.56861 57.8083 3.62036 54.4943C1.67212 51.1245 0.697998 47.5219 0.697998 43.6804C0.697998 40.174 1.28679 36.9966 2.46745 34.1511C3.67585 31.2499 5.33432 28.7644 7.44595 26.6947C9.52983 24.6777 12.0699 23.089 15.0601 21.9316C18.0226 20.799 21.2193 20.2343 24.6503 20.2343C27.4493 20.2343 30.1775 20.6749 32.8409 21.5592C35.529 22.4715 37.9027 23.7561 39.9619 25.4131L33.1307 34.7717Z" fill="white"/>
<path d="M85.4033 5.55407C85.4033 2.61865 83.0389 0.24176 80.1258 0.24176H77.4254C74.5092 0.24176 72.1479 2.62175 72.1479 5.55407V22.7601L71.2971 22.3878L70.3507 21.972C67.3882 20.8952 64.3549 20.3553 61.2568 20.3553C58.1279 20.3553 55.0822 20.8952 52.1198 21.972C49.2375 23.0487 46.645 24.6374 44.3423 26.7351C42.0642 28.8078 40.2947 31.222 39.0339 33.9836C37.7454 36.7732 37.1011 39.7707 37.1011 42.973C37.1011 46.259 37.733 49.2689 38.9938 52.0027C40.2546 54.7364 42.0395 57.166 44.3453 59.2947C46.6758 61.4202 49.2683 63.009 52.1229 64.0578C55.0052 65.1904 58.0478 65.7551 61.2599 65.7551C65.4585 65.7551 69.4228 64.7621 73.1528 62.7731C76.8828 60.812 79.8484 58.1062 82.0432 54.6526C84.2381 51.2548 85.3478 47.4599 85.3756 43.2616V26.8343H85.4095V5.55407H85.4033ZM68.9511 50.597C66.784 52.7226 64.2193 53.7869 61.2537 53.7869C58.2636 53.7869 55.6834 52.7226 53.5163 50.597C51.3214 48.4715 50.224 45.9301 50.224 42.973C50.224 41.0398 50.7326 39.2711 51.7468 37.67C52.761 36.0409 54.1205 34.7439 55.8221 33.7757C57.5237 32.8107 59.3332 32.3266 61.2537 32.3266C63.1742 32.3266 64.9714 32.8107 66.6453 33.7757C68.3469 34.7439 69.7033 36.0409 70.7206 37.67C71.7348 39.2711 72.2434 41.0398 72.2434 42.973C72.2434 45.9301 71.146 48.4715 68.9511 50.597Z" fill="white"/>
<path d="M128.363 59.363C126.134 62.1712 122.54 63.7289 117.895 63.7289C110.771 63.7289 106.436 59.363 106.436 53.2563C106.436 46.9541 110.959 43.2151 119.134 43.153H128.305V42.5293C128.305 38.9764 125.95 36.9191 121.366 36.9191C118.391 36.9191 114.923 37.9183 111.455 39.8483L108.48 33.239C113.437 30.7473 117.706 29.3757 123.53 29.3757C132.451 29.3757 137.593 33.8626 137.654 41.4091L137.716 63.2976H128.363V59.363ZM128.305 51.8165V48.8252H120.808C117.155 48.8252 115.358 49.9485 115.358 52.6295C115.358 55.1833 117.34 56.8682 120.561 56.8682C124.587 56.8682 127.747 54.6868 128.305 51.8165Z" fill="white"/>
<path d="M170.26 33.0527L166.977 39.5969C163.324 37.5396 159.606 36.3574 156.819 36.3574C154.59 36.3574 152.978 37.1052 152.978 38.8491C152.978 43.9007 170.571 41.3408 170.509 53.188C170.509 60.0456 164.501 63.6668 156.943 63.6668C151.554 63.6668 146.289 62.0408 142.51 58.9906L145.608 52.5022C149.079 55.1832 153.536 56.6819 157.192 56.6819C159.609 56.6819 161.406 55.8752 161.406 54.063C161.406 48.7011 144.125 51.5713 144.125 39.7862C144.125 32.8665 150.01 29.3136 157.257 29.3136C161.835 29.3105 166.542 30.682 170.26 33.0527Z" fill="white"/>
<path d="M186.814 20.2064C186.814 23.3249 184.705 25.5683 181.672 25.5683C178.635 25.5683 176.53 23.3249 176.53 20.2064C176.53 17.0879 178.635 14.8413 181.672 14.8413C184.708 14.8413 186.814 17.091 186.814 20.2064ZM176.903 63.2913V29.7481H186.441V63.2913H176.903Z" fill="white"/>
<path d="M214.946 59.363C212.717 62.1712 209.123 63.7289 204.477 63.7289C197.353 63.7289 193.019 59.363 193.019 53.2563C193.019 46.9541 197.541 43.2151 205.717 43.153H214.887V42.5293C214.887 38.9764 212.532 36.9191 207.948 36.9191C204.974 36.9191 201.506 37.9183 198.038 39.8483L195.063 33.239C200.02 30.7473 204.289 29.3757 210.112 29.3757C219.034 29.3757 224.176 33.8626 224.237 41.4091L224.299 63.2976H214.946V59.363ZM214.887 51.8165V48.8252H207.39C203.737 48.8252 201.94 49.9485 201.94 52.6295C201.94 55.1833 203.922 56.8682 207.144 56.8682C211.17 56.8682 214.329 54.6868 214.887 51.8165Z" fill="white"/>
<path d="M100.857 16.6069C100.253 17.5843 99.4296 18.3725 98.3877 18.9807C97.3458 19.5889 96.1928 19.8898 94.932 19.8898C93.6712 19.8898 92.5306 19.6013 91.5164 19.021C90.4745 18.4159 89.6514 17.6092 89.0472 16.6069C88.5324 15.7443 88.2303 14.8382 88.1348 13.8887V60.3C88.1348 63.102 90.4992 65.3734 93.4123 65.3734H96.3747C99.2909 65.3734 101.652 63.102 101.652 60.3V14.4813C101.52 15.254 101.255 15.9615 100.857 16.6069Z" fill="white"/>
<path d="M33.1307 34.7717C31.95 33.7788 30.6615 33.031 29.262 32.5345C27.8069 32.038 26.2718 31.7898 24.6534 31.7898C21.6354 31.7898 19.083 32.7703 16.9991 34.7314C14.8875 36.6925 13.8301 39.1221 13.8301 42.0234C13.8301 44.2886 14.2833 46.3179 15.1896 48.1146C16.0682 49.9112 17.3721 51.3324 19.0984 52.3812C20.7723 53.4579 22.7051 53.9978 24.9 53.9978C28.1368 53.9978 30.9081 52.9614 33.2139 50.8918L40.415 60.089C39.3731 61.1937 37.9181 62.1742 36.0531 63.0306C34.1603 63.8871 32.2121 64.5232 30.2083 64.9359C28.2046 65.3517 26.3519 65.5565 24.6534 65.5565C19.8783 65.5565 15.6674 64.548 12.0175 62.531C8.36766 60.4862 5.56861 57.8083 3.62036 54.4943C1.67212 51.1245 0.697998 47.5219 0.697998 43.6804C0.697998 40.174 1.28679 36.9966 2.46745 34.1511C3.67585 31.2499 5.33432 28.7644 7.44595 26.6947C9.52983 24.6777 12.0699 23.089 15.0601 21.9316C18.0226 20.799 21.2193 20.2343 24.6503 20.2343C27.4493 20.2343 30.1775 20.6749 32.8409 21.5592C35.529 22.4715 37.9027 23.7561 39.9619 25.4131L33.1307 34.7717Z" fill="white"/>
<path d="M85.4033 5.55407C85.4033 2.61865 83.0389 0.24176 80.1258 0.24176H77.4254C74.5092 0.24176 72.1479 2.62175 72.1479 5.55407V22.7601L71.2971 22.3878L70.3507 21.972C67.3882 20.8952 64.3549 20.3553 61.2568 20.3553C58.1279 20.3553 55.0822 20.8952 52.1198 21.972C49.2375 23.0487 46.645 24.6374 44.3423 26.7351C42.0642 28.8078 40.2947 31.222 39.0339 33.9836C37.7454 36.7732 37.1011 39.7707 37.1011 42.973C37.1011 46.259 37.733 49.2689 38.9938 52.0027C40.2546 54.7364 42.0395 57.166 44.3453 59.2947C46.6758 61.4202 49.2683 63.009 52.1229 64.0578C55.0052 65.1904 58.0478 65.7551 61.2599 65.7551C65.4585 65.7551 69.4228 64.7621 73.1528 62.7731C76.8828 60.812 79.8484 58.1062 82.0432 54.6526C84.2381 51.2548 85.3478 47.4599 85.3756 43.2616V26.8343H85.4095V5.55407H85.4033ZM68.9511 50.597C66.784 52.7226 64.2193 53.7869 61.2537 53.7869C58.2636 53.7869 55.6834 52.7226 53.5163 50.597C51.3214 48.4715 50.224 45.9301 50.224 42.973C50.224 41.0398 50.7326 39.2711 51.7468 37.67C52.761 36.0409 54.1205 34.7439 55.8221 33.7757C57.5237 32.8107 59.3332 32.3266 61.2537 32.3266C63.1742 32.3266 64.9714 32.8107 66.6453 33.7757C68.3469 34.7439 69.7033 36.0409 70.7206 37.67C71.7348 39.2711 72.2434 41.0398 72.2434 42.973C72.2434 45.9301 71.146 48.4715 68.9511 50.597Z" fill="white"/>
<path d="M128.363 59.363C126.134 62.1712 122.54 63.7289 117.895 63.7289C110.771 63.7289 106.436 59.363 106.436 53.2563C106.436 46.9541 110.959 43.2151 119.134 43.153H128.305V42.5293C128.305 38.9764 125.95 36.9191 121.366 36.9191C118.391 36.9191 114.923 37.9183 111.455 39.8483L108.48 33.239C113.437 30.7473 117.706 29.3757 123.53 29.3757C132.451 29.3757 137.593 33.8626 137.654 41.4091L137.716 63.2976H128.363V59.363ZM128.305 51.8165V48.8252H120.808C117.155 48.8252 115.358 49.9485 115.358 52.6295C115.358 55.1833 117.34 56.8682 120.561 56.8682C124.587 56.8682 127.747 54.6868 128.305 51.8165Z" fill="white"/>
<path d="M170.26 33.0527L166.977 39.5969C163.324 37.5396 159.606 36.3574 156.819 36.3574C154.59 36.3574 152.978 37.1052 152.978 38.8491C152.978 43.9007 170.571 41.3408 170.509 53.188C170.509 60.0456 164.501 63.6668 156.943 63.6668C151.554 63.6668 146.289 62.0408 142.51 58.9906L145.608 52.5022C149.079 55.1832 153.536 56.6819 157.192 56.6819C159.609 56.6819 161.406 55.8752 161.406 54.063C161.406 48.7011 144.125 51.5713 144.125 39.7862C144.125 32.8665 150.01 29.3136 157.257 29.3136C161.835 29.3105 166.542 30.682 170.26 33.0527Z" fill="white"/>
<path d="M186.814 20.2064C186.814 23.3249 184.705 25.5683 181.672 25.5683C178.635 25.5683 176.53 23.3249 176.53 20.2064C176.53 17.0879 178.635 14.8413 181.672 14.8413C184.708 14.8413 186.814 17.091 186.814 20.2064ZM176.903 63.2913V29.7481H186.441V63.2913H176.903Z" fill="white"/>
<path d="M214.946 59.363C212.717 62.1712 209.123 63.7289 204.477 63.7289C197.353 63.7289 193.019 59.363 193.019 53.2563C193.019 46.9541 197.541 43.2151 205.717 43.153H214.887V42.5293C214.887 38.9764 212.532 36.9191 207.948 36.9191C204.974 36.9191 201.506 37.9183 198.038 39.8483L195.063 33.239C200.02 30.7473 204.289 29.3757 210.112 29.3757C219.034 29.3757 224.176 33.8626 224.237 41.4091L224.299 63.2976H214.946V59.363ZM214.887 51.8165V48.8252H207.39C203.737 48.8252 201.94 49.9485 201.94 52.6295C201.94 55.1833 203.922 56.8682 207.144 56.8682C211.17 56.8682 214.329 54.6868 214.887 51.8165Z" fill="white"/>
</svg>
