<svg width="180" height="132" viewBox="0 0 180 132" fill="none" xmlns="http://www.w3.org/2000/svg">
<path fill-rule="evenodd" clip-rule="evenodd" d="M179.716 49.6007C177.488 66.214 174.973 74.9895 160.292 92.3876C145.612 109.786 78.4339 121.231 53.5982 121.231C28.7625 121.231 -1.84467 102.08 0.0870378 79.8906C2.01875 57.7012 12.0968 39.5651 36.2189 37.3325C60.8705 35.0509 82.5248 45.6166 106.727 39.95C127.651 35.0509 134.053 16.3774 148.424 10.4859C177.488 -1.42906 181.232 38.2987 179.716 49.6007Z" fill="#F1F1F1"/>
<path d="M164.763 57.715C163.942 59.1068 153.547 66.1493 147.242 67.1916C146.022 67.3933 144.69 67.4626 143.63 66.8254C143.004 66.4491 142.537 65.8622 142.094 65.2815C141.08 63.9538 140.114 62.5905 139.196 61.195C138.714 60.4616 138.236 59.6961 138.072 58.8338C137.638 56.5505 139.478 54.4996 141.297 53.0528C145.479 49.7271 150.375 47.3044 155.555 45.9974C156.472 45.766 157.444 45.5701 158.353 45.8329C159.827 46.2594 160.709 47.7514 161.271 49.1795C161.834 50.6076 162.273 52.1697 163.397 53.2144C163.654 53.453 165.584 56.3232 164.763 57.715Z" fill="white"/>
<path fill-rule="evenodd" clip-rule="evenodd" d="M108.909 118.388C98.8208 120.114 103.629 112.782 105.02 103.604C107.306 88.5243 110.125 65.6079 110.125 65.6079C110.125 65.6079 111.964 100.527 111.964 109.03C111.964 117.532 110.125 118.181 108.909 118.388Z" fill="white"/>
<path d="M98.1297 110.08C98.3872 112.509 98.6586 114.988 99.6906 117.201C99.1275 112.19 98.5645 107.178 98.0015 102.167C97.932 101.548 97.9526 100.76 98.5219 100.508C99.0036 106.167 99.7219 111.806 100.674 117.405C100.787 118.069 99.7887 118.449 99.2279 118.075C98.6672 117.7 98.4878 116.971 98.3603 116.309C97.4311 111.484 96.9202 106.579 96.8352 101.666C95.6522 101.899 94.8226 103.046 94.5833 104.228C94.3439 105.41 94.5746 106.63 94.8051 107.814C95.547 111.623 96.289 115.433 97.0309 119.242C97.3779 121.024 97.7249 122.865 97.342 124.64C95.8695 117.917 94.6857 111.131 93.7949 104.307C82.4967 111.216 67.9386 112.5 55.6049 107.677C52.9112 106.624 50.236 105.228 48.4568 102.947C47.0553 101.151 46.3074 98.9205 45.9156 96.676C44.5241 88.7045 47.3756 80.5734 51.246 73.467C52.7145 70.7706 54.387 67.9621 54.2685 64.894C54.2277 63.8377 53.9999 62.6681 54.6168 61.8096C54.7041 61.9686 50.5786 32.458 52.2336 25.9304C56.2178 10.2156 69.1607 8.08736 77.4476 8.2812C83.0077 8.41125 118.252 15.4154 123.344 24.9403C130.037 37.4587 128.616 47.9835 127.427 54.9233C127.073 56.9899 110.13 65.4556 110.125 65.4983C109.157 74.5032 102.656 94.1246 97.2045 101.357C97.5129 104.265 97.8213 107.172 98.1297 110.08Z" fill="white"/>
<path fill-rule="evenodd" clip-rule="evenodd" d="M16.7775 73.4402C13.6 72.1718 9.81341 72.5479 6.94868 74.4166C6.67134 74.5975 6.27261 74.3959 6.13531 74.0949C5.99802 73.7939 6.04937 73.4438 6.1196 73.1206C7.03453 68.9101 10.6794 65.6885 14.7327 64.208C18.7861 62.7274 23.2198 62.7233 27.5286 62.9764C27.9561 63.0015 28.403 63.0349 28.7677 63.259C29.1324 63.4831 29.3777 63.9624 29.196 64.3495C27.501 67.9588 26.2242 71.7635 25.3991 75.6636C25.2653 76.2961 24.61 76.7157 23.9646 76.7684C23.3192 76.8211 22.6868 76.583 22.1011 76.3073C20.2758 75.4482 18.6513 74.1882 16.7775 73.4402" fill="white"/>
<path d="M83.3696 128.382C85.2257 128.33 87.0929 128.741 88.7563 129.566C88.3116 130.205 87.4179 130.294 86.6401 130.324C79.8625 130.581 73.0847 130.838 66.3071 131.095C66.121 131.072 66.0863 130.784 66.2182 130.651C66.3502 130.518 66.5562 130.5 66.7436 130.491C73.3599 130.168 79.9769 129.846 86.5932 129.523C85.4465 129.418 84.327 129.022 83.3696 128.382ZM116.507 111.573C116.66 111.347 117.005 111.227 117.211 111.405C116.397 115.174 115.582 118.943 114.768 122.712C115.574 122.113 116.593 121.807 117.596 121.861C116.708 122.523 116.031 123.465 115.689 124.519C116.279 124.065 117.283 124.381 117.506 125.091C117.85 124.837 118.418 125.009 118.564 125.411C118.709 125.812 118.383 126.308 117.956 126.333C125.528 126.4 133.1 126.467 140.671 126.534C135.954 127.428 131.102 126.74 126.301 126.652C123.182 126.594 120.058 126.792 116.971 127.242C117.244 126.705 117.441 126.129 117.553 125.538C111.604 127.207 105.296 125.231 99.1176 125.269C97.4483 125.279 95.4499 125.669 94.8354 127.221C94.5652 125.53 94.295 123.838 94.0248 122.146C93.7789 123.51 93.5325 124.874 93.2866 126.238C93.2263 126.572 93.149 126.937 92.8832 127.148C92.5412 127.42 92.0106 127.31 91.684 127.02C91.3576 126.73 91.1869 126.307 91.0336 125.898C90.1292 123.483 89.4349 120.99 88.9604 118.456C88.9301 121.571 90.2067 124.532 91.4604 127.384C90.9145 127.233 90.3686 127.081 89.8227 126.93C90.2646 127.484 90.707 128.038 91.1489 128.592C89.7813 128.08 88.4557 127.454 87.1909 126.724C87.7125 127.452 88.2337 128.181 88.7553 128.909C87.4762 128.305 86.354 127.371 85.5278 126.223C86.6839 125.91 87.9782 126.152 88.9428 126.862C88.4957 126.224 88.2923 125.42 88.3823 124.647C88.9996 125.189 89.6175 125.73 90.2348 126.272C89.1922 123.885 88.4677 121.359 88.0883 118.783C88.0129 118.27 88.0701 117.575 88.5766 117.467C89.0976 117.357 89.4269 118.002 89.562 118.517C90.1424 120.731 90.7227 122.945 91.3032 125.159C91.5332 124.379 91.7636 123.599 91.9936 122.82C92.1057 123.756 92.4147 124.668 92.895 125.479C93.0564 123.825 93.5601 122.205 94.3647 120.751C94.5402 122.37 94.7155 123.989 94.8911 125.608C100.17 123.972 105.83 125.699 111.352 125.932C112.467 125.979 113.648 125.948 114.602 125.37C115.556 124.791 116.156 123.488 115.607 122.516C115.038 123.439 114.305 124.26 113.452 124.928C114.237 123.232 115.038 121.465 115.025 119.596C114.24 121.148 113.456 122.7 112.671 124.251C112.267 123.573 111.861 122.893 111.456 122.214C110.914 123.184 111.08 124.499 111.847 125.302C111.178 124.854 110.509 124.406 109.84 123.958C109.739 124.23 109.638 124.501 109.537 124.773C108.884 124.566 108.354 124.008 108.18 123.346C108.862 123.07 109.688 123.183 110.27 123.634C110.698 122.602 111.126 121.569 111.554 120.537C111.853 121.401 112.152 122.265 112.451 123.129C114.733 120.006 116.094 116.219 116.323 112.358C116.339 112.086 116.355 111.798 116.507 111.573ZM116.547 125.31C116.461 125.034 115.992 125.012 115.88 125.279L115.814 125.253C115.731 125.352 115.73 125.51 115.813 125.609C116.077 125.569 116.331 125.466 116.547 125.31ZM54.6176 61.8091C55.2971 63.0452 55.5553 64.5086 55.3413 65.9028C67.0378 65.3994 78.752 65.2972 90.4555 65.5981C90.592 66.1361 89.8133 66.3865 89.2582 66.3784C78.3362 66.2155 67.4086 66.4013 56.4985 66.936C56.1531 66.9529 55.7904 66.9758 55.4975 67.1596C55.1894 67.3532 55.0098 67.6931 54.8442 68.0171C51.7478 74.0756 48.6407 80.2225 47.144 86.8598C46.3744 90.2729 46.0795 94.0083 47.6567 97.1313C48.2551 98.3162 49.1023 99.3632 50.0473 100.295C55.1206 105.299 62.7174 106.833 69.8422 106.713C74.3897 106.637 78.9279 105.983 83.312 104.773C87.9596 103.49 92.5947 101.467 95.767 97.8364C97.63 95.7042 98.8964 93.1223 100.005 90.5171C102.123 85.5424 103.747 80.3575 104.846 75.0639C105.534 75.2089 105.544 76.1825 105.385 76.8677C103.42 85.3452 101.136 94.3817 94.6635 100.199C88.8177 105.453 80.5794 107.081 72.7319 107.521C68.1989 107.775 63.5941 107.696 59.2036 106.541C54.813 105.385 50.6208 103.072 47.8334 99.4888C48.6464 102.588 51.4001 104.801 54.267 106.233C61.7947 109.992 70.6846 109.793 78.9965 108.487C84.5333 107.616 90.2159 106.187 94.5248 102.603C98.2081 99.5392 100.556 95.1637 102.323 90.7104C104.278 85.7813 105.635 80.6148 106.353 75.3608C106.8 75.0782 107.132 75.868 107.076 76.394C106.107 85.3989 102.657 94.1247 97.2055 101.357C97.5139 104.265 97.8219 107.173 98.1303 110.081C98.3878 112.509 98.659 114.989 99.6909 117.202C99.1278 112.19 98.5654 107.178 98.0024 102.166C97.9329 101.548 97.9536 100.76 98.5229 100.507C99.0046 106.166 99.722 111.806 100.674 117.405C100.787 118.069 99.7897 118.449 99.2289 118.075C98.6682 117.7 98.4883 116.971 98.3608 116.309C97.4316 111.484 96.9203 106.579 96.8354 101.666C95.6526 101.9 94.8227 103.046 94.5834 104.228C94.3441 105.41 94.5756 106.63 94.8061 107.814C95.548 111.623 96.2898 115.433 97.0317 119.243C97.3787 121.024 97.7251 122.866 97.3422 124.64C95.8697 117.917 94.6861 111.131 93.7954 104.307C82.4973 111.216 67.9393 112.5 55.6059 107.677C52.9122 106.624 50.2366 105.227 48.4575 102.947C47.0561 101.15 46.3083 98.9205 45.9164 96.6763C44.525 88.7049 47.3763 80.5736 51.2465 73.4673C52.7151 70.7709 54.3875 67.9621 54.269 64.894C54.2282 63.8377 54.0008 62.6676 54.6176 61.8091ZM110.262 76.6069C110.498 76.326 110.994 76.455 111.2 76.7583C111.406 77.0619 111.407 77.4559 111.4 77.8227C111.198 88.7435 111.33 99.6856 112.375 110.558C112.625 113.156 112.925 115.802 112.377 118.354C112.185 118.494 111.991 118.175 111.963 117.939C110.652 106.917 110.455 95.7966 110.258 84.6987C110.214 82.2049 110.171 79.7111 110.126 77.2173C110.123 77.0042 110.125 76.7702 110.262 76.6069ZM104.409 55.7768C101.059 57.3563 97.618 59.0018 95.1225 61.7378C94.7903 62.102 94.4712 62.4946 94.3071 62.9595C93.7848 64.4385 94.9697 65.9394 96.1313 66.9936C101.484 71.8509 108.357 75.0083 115.529 75.9038C115.658 75.0764 116.313 74.4071 117.065 74.0376C117.817 73.6681 118.663 73.5488 119.493 73.435C122.429 73.0325 125.578 72.6712 128.223 74.0083C128.88 74.3405 128.936 75.3357 128.501 75.9302C128.066 76.5245 127.322 76.7986 126.608 76.98C123.453 77.7814 120.133 77.3907 116.902 76.9956C116.108 76.8986 115.822 78.0505 116.033 78.8218C116.459 80.3834 117.591 81.6808 118.924 82.5991C120.257 83.5174 121.791 84.0976 123.32 84.6294C127.047 85.9255 130.858 86.9844 134.719 87.7973C136.32 88.1343 137.976 88.4486 139.34 89.3511C139.262 89.7178 138.754 89.7469 138.383 89.686C132.775 88.763 127.259 87.2803 121.944 85.2671C120.228 84.617 118.498 83.8909 117.117 82.6821C115.736 81.4732 114.739 79.6886 114.906 77.8608C114.943 77.4499 114.921 76.8747 114.512 76.8227C107.687 75.9557 101.135 73.036 95.9262 68.5405C94.2939 67.1316 92.6632 65.1619 93.1528 63.062C93.3511 62.2115 93.8816 61.4774 94.4575 60.8208C96.97 57.9559 100.613 56.1097 104.409 55.7768ZM127.304 74.6479C124.89 73.849 122.265 74.1837 119.746 74.5268C118.586 74.6847 117.255 74.9572 116.709 75.9927C117.831 75.9024 118.965 75.9531 120.074 76.144C122.369 76.5391 124.752 76.4173 126.995 75.7905C127.208 75.731 127.428 75.6624 127.589 75.5112C127.751 75.36 127.834 75.1014 127.72 74.9116C127.634 74.7676 127.464 74.7007 127.304 74.6479ZM70.6401 51.7729C70.6721 52.1503 70.2351 52.3718 69.8754 52.4907C65.803 53.837 61.9359 55.8036 58.4496 58.3022C55.3471 60.5259 52.3632 63.2525 48.6098 63.9468C47.508 64.1505 46.7974 65.1831 46.0668 66.0327C43.6111 68.8882 39.8907 70.2809 36.2817 71.3579C33.8207 72.0923 31.0777 72.713 28.7641 71.5981C28.4526 71.448 28.1381 71.005 28.433 70.8247C30.8104 71.8919 33.577 71.2706 36.0707 70.5141C40.0664 69.3021 44.2249 67.585 46.5336 64.1059C45.1218 64.0011 43.9499 62.5219 44.2397 61.1362C44.5297 59.7507 46.2826 58.8711 47.5366 59.5278C48.7906 60.1846 49.0251 62.2107 47.9135 63.0874C51.3723 62.5695 54.3009 60.3581 57.1079 58.272C61.1773 55.2474 65.591 52.2364 70.6401 51.7729ZM154.266 45.4819C155.183 45.2506 156.156 45.0541 157.064 45.3169C158.538 45.7435 159.419 47.2356 159.982 48.6636C160.544 50.0916 160.983 51.654 162.108 52.6987C162.365 52.9372 162.665 53.1606 162.78 53.4917C162.894 53.8229 162.686 54.2862 162.336 54.2593C160.861 53.6984 160.059 52.1302 159.488 50.6587C158.917 49.1872 158.37 47.5804 157.087 46.6606C156.191 50.2314 154.826 53.6853 153.04 56.9048C152.83 57.2835 152.59 57.6819 152.196 57.8618C151.89 58.0014 151.538 57.9862 151.203 57.9673C146.984 57.7299 142.775 57.3383 138.585 56.7934C138.14 56.7355 137.776 57.2218 137.786 57.6714C137.795 58.1208 138.055 58.5216 138.307 58.894C139.303 60.3681 140.3 61.8418 141.296 63.3159C141.778 64.0291 142.289 64.7697 143.045 65.1811C144.056 65.7309 145.294 65.5836 146.417 65.3345C152.342 64.0201 157.447 60.3647 162.225 56.6235C162.525 56.3886 162.923 56.1412 163.259 56.3198C163.553 56.4759 163.612 56.8963 163.474 57.1987C163.336 57.5011 163.058 57.7127 162.79 57.9106C157.655 61.715 152.258 65.634 145.953 66.6763C144.733 66.8779 143.4 66.947 142.34 66.31C141.714 65.9337 141.247 65.3468 140.804 64.7661C139.791 63.4384 138.824 62.0747 137.907 60.6792C137.424 59.9459 136.946 59.1801 136.783 58.3179C136.349 56.0346 138.189 53.9833 140.008 52.5366C144.19 49.211 149.086 46.7889 154.266 45.4819ZM58.81 14.9429C66.1149 9.96415 75.0218 6.93326 83.8071 7.91746C86.7718 8.24964 89.6672 9.02487 92.5385 9.83445C101.521 12.3672 110.504 15.3027 118.448 20.2016C119.137 20.6268 119.91 21.2574 119.782 22.0571C109.873 16.2685 98.7331 12.9922 87.7192 9.77C95.0858 12.7369 103.056 16.2388 106.658 23.3169C108.182 26.3121 108.761 29.6892 109.214 33.019C110.563 42.9192 110.975 52.9468 110.444 62.9243C114.724 60.8439 119.004 58.7634 123.285 56.6831C124.39 56.1458 125.551 55.5609 126.218 54.5288C126.843 53.5625 126.935 52.3566 126.997 51.2075C127.357 44.4788 127.288 37.7272 126.789 31.0073C128.227 37.2194 128.865 43.6161 128.681 49.9897C128.631 51.7155 128.481 53.5556 127.427 54.9233C126.662 55.9171 125.515 56.5304 124.405 57.1138C120.439 59.1973 116.472 61.2811 112.506 63.3647C107.91 65.7795 102.373 66.3454 97.3832 64.9106C100.953 64.7248 104.523 64.5388 108.092 64.353C108.384 64.3378 108.696 64.3146 108.924 64.1333C109.258 63.868 109.285 63.3793 109.283 62.9526C109.229 52.4043 109.173 41.8141 107.635 31.3784C107.151 28.0903 106.48 24.7219 104.633 21.9585C102.6 18.9153 99.3582 16.9248 96.1616 15.1421C90.4274 11.9443 84.205 9.03283 77.6411 9.1743C72.2224 9.2912 67.063 11.4907 62.3168 14.1079C58.5486 16.1858 54.7083 18.8265 53.2192 22.8638C52.3966 25.0941 52.3837 27.5318 52.4233 29.9087C52.5646 38.385 53.2423 46.8527 54.4506 55.2436C54.5821 56.1572 54.4924 57.4134 53.5844 57.5776C52.4223 48.5798 51.2581 39.5656 50.9457 30.4985C50.8552 27.8696 50.8494 25.1646 51.7885 22.7075C53.0543 19.3959 55.8804 16.9395 58.81 14.9429ZM100.521 48.9028C100.835 48.8099 101.189 48.7207 101.476 48.8784C101.763 49.0361 101.815 49.5573 101.499 49.645C86.7962 53.7255 72.2596 58.4081 57.9389 63.6763C57.6571 63.7799 57.3583 63.8858 57.0629 63.8315C56.7674 63.7771 56.4911 63.496 56.5561 63.2026C56.6177 62.9259 56.9235 62.7895 57.1909 62.6948C71.4806 57.635 85.9843 53.2022 100.521 48.9028ZM46.5024 60.0102C46.3011 60.0105 46.1038 60.0748 45.9272 60.1714L45.8139 60.2407C45.2633 60.6115 44.9683 61.3536 45.1811 61.9839C45.4291 62.718 46.2315 63.1244 46.9975 63.2417C47.325 62.6633 47.662 62.0499 47.6577 61.3852C47.6533 60.7205 47.1671 60.0096 46.5024 60.0102ZM155.8 46.3784C154.945 46.2845 154.099 46.5737 153.292 46.8716C150.744 47.8124 148.247 48.8894 145.814 50.0971C143.244 51.3731 140.671 52.8588 138.94 55.147C142.419 55.5351 145.898 55.9228 149.376 56.311C150.032 56.3841 150.739 56.4467 151.308 56.1138C151.755 55.8519 152.04 55.3876 152.295 54.937C153.821 52.2486 155.002 49.3646 155.8 46.3784ZM105.218 29.353C105.572 29.1847 106.005 29.0669 106.342 29.2661C106.679 29.4655 106.691 30.0996 106.307 30.1733L106.086 30.2251C105.003 30.5245 104.155 31.4589 103.714 32.5044C103.244 33.6197 103.162 34.8561 103.12 36.0659C102.991 39.7241 103.165 43.3931 103.638 47.0229C103.71 47.5777 103.796 48.1489 104.087 48.6264C104.379 49.104 104.932 49.4673 105.482 49.3657C106.424 49.1918 107.436 49.4409 108.19 50.0317C107.059 50.1036 105.928 50.1747 104.797 50.2466C104.127 50.2891 103.326 50.272 102.954 49.7134C102.771 49.4391 102.74 49.0939 102.715 48.7651C102.472 45.5412 102.23 42.3171 101.987 39.0932C101.85 37.2737 101.715 35.4207 102.123 33.6421C102.53 31.8636 103.571 30.1372 105.218 29.353ZM115.862 0.000468946C116.764 0.0190509 117.601 0.449778 118.4 0.870586C122.231 2.88861 126.131 4.95749 129.147 8.06395C129.244 10.6577 128.61 13.2169 128.008 15.7417C125.566 25.9819 123.565 36.328 122.015 46.7407C121.866 47.7387 121.585 48.9156 120.638 49.2651C119.959 49.5158 119.169 49.1954 118.687 48.6557C118.205 48.1161 117.974 47.3995 117.813 46.6938C117.416 44.9526 117.368 43.1322 117.673 41.3725C118.027 39.3304 118.846 37.394 119.248 35.3608C119.438 34.3991 119.533 33.4216 119.626 32.4458C120.121 27.2557 120.54 22.0581 120.884 16.8559C120.933 16.1209 120.976 15.3627 120.736 14.6665C120.308 13.4281 119.06 12.6445 117.8 12.2856C117.078 12.0798 116.316 11.9763 115.647 11.6352C114.977 11.2941 114.396 10.6293 114.445 9.87938L114.47 9.42625C114.578 7.15962 114.388 4.87888 113.906 2.6616C113.815 2.24595 113.714 1.81692 113.798 1.39988C113.976 0.514781 114.959 -0.0180803 115.862 0.000468946ZM117.07 1.31297C116.839 4.09539 116.744 6.88946 116.786 9.68113C118.567 10.057 120.308 10.6243 121.968 11.3706C122.303 11.5209 122.655 11.6971 122.835 12.0161C122.983 12.2764 122.991 12.59 122.996 12.8891C123.048 16.4053 123.058 19.9315 122.686 23.4282C122.392 26.1847 121.862 28.9096 121.407 31.644C120.865 34.8973 120.43 38.1682 120.1 41.4497C119.861 43.8308 119.686 46.2923 120.426 48.5679C120.806 48.4984 120.953 48.0402 121.025 47.6606L127.87 11.5835C128.035 10.7093 128.201 9.805 128.005 8.93699C127.663 7.41749 126.315 6.36072 125.014 5.5034C122.511 3.85291 119.846 2.44733 117.07 1.31297ZM119.78 36.8374C118.782 39.8081 118.406 42.9861 118.681 46.1079C118.753 46.92 118.886 47.7716 119.392 48.4106L119.318 47.768C119.162 46.2656 119.129 44.7504 119.221 43.2427C119.351 41.1029 119.73 38.9806 119.78 36.8374ZM120.256 44.9155C120.267 44.7229 120.524 44.6239 120.7 44.7036C120.875 44.7836 120.974 44.9726 121.036 45.1557C121.259 45.8239 121.144 46.5963 120.736 47.1704C120.415 46.8129 120.81 46.2438 120.709 45.7739C120.641 45.4558 120.352 45.2264 120.256 44.9155ZM120.075 34.6362C119.912 34.7167 119.842 34.9444 119.933 35.102L119.942 35.0825C120.102 35.0104 120.169 34.7845 120.075 34.6362ZM116.873 10.5649C116.486 10.4894 115.916 10.5717 115.933 10.9653C117.535 11.6273 119.138 12.2896 120.74 12.9516C121.022 13.0681 121.322 13.2003 121.481 13.4604C121.637 13.7155 121.622 14.0361 121.602 14.3345C121.17 20.6814 120.738 27.0285 120.306 33.3755C121.559 26.9415 122.125 20.3734 121.992 13.8198C121.982 13.325 121.954 12.7935 121.652 12.4018C121.43 12.1148 121.091 11.9466 120.76 11.7983C119.517 11.2414 118.21 10.8261 116.873 10.5649ZM115.833 0.67625C115.437 0.413584 114.865 0.684907 114.644 1.10594C114.423 1.52694 114.456 2.03072 114.506 2.5034C114.783 5.12128 115.392 7.7447 115.081 10.3589C115.445 10.4836 115.85 10.2267 116.027 9.88523C116.203 9.5438 116.208 9.14253 116.208 8.75828C116.212 6.44871 116.217 4.13914 116.221 1.82957C116.222 1.40613 116.186 0.910306 115.833 0.67625Z" fill="black"/>
<path fill-rule="evenodd" clip-rule="evenodd" d="M153.27 114.645C152.931 114.794 152.565 114.932 152.2 114.87C151.836 114.807 151.495 114.465 151.569 114.103C152.238 110.79 151.398 107.202 149.327 104.531C148.602 103.595 147.738 102.771 147.031 101.82C146.585 101.222 146.189 100.468 146.415 99.7571C146.737 98.7449 148.031 98.4987 149.091 98.4264C151.554 98.2585 154.017 98.0906 156.481 97.9227C157.616 97.8454 158.923 97.8339 159.681 98.6825C161.79 101.045 165.9 101.204 168.185 99.0107C168.539 98.6714 168.984 99.3469 168.97 99.8368C168.926 101.377 168.291 102.893 167.225 104.005C166.973 104.268 166.651 104.525 166.29 104.487C165.928 104.449 165.661 103.93 165.95 103.709C166.568 103.234 167.198 102.746 167.632 102.098C168.065 101.45 168.276 100.6 167.98 99.8785C166.389 101.891 164.782 103.892 163.161 105.881C160.35 109.329 157.343 112.856 153.27 114.645M157.712 104.499C157.308 104.611 156.876 104.525 156.472 104.411C153.565 103.589 150.886 101.318 147.912 101.849C151.38 104.642 153.221 109.325 152.584 113.731C154.869 113.242 156.673 111.536 158.291 109.851C160.687 107.356 162.961 104.745 165.104 102.031C163.563 102.018 162.029 101.574 160.721 100.761C159.104 101.161 159.317 104.055 157.712 104.499M159.824 99.9121C158.861 98.7767 157.13 98.8118 155.647 98.942C153.712 99.112 151.778 99.2819 149.843 99.4518C149.058 99.5208 148.156 99.6586 147.746 100.332C151.095 101.033 154.359 102.134 157.448 103.604C157.845 102.357 158.641 101.239 159.691 100.456C159.809 100.368 159.944 100.255 159.929 100.109C159.921 100.034 159.873 99.9696 159.824 99.9121V99.9121Z" fill="url(#paint0_linear_427_4674)"/>
<path fill-rule="evenodd" clip-rule="evenodd" d="M16.4026 72.8367C13.4888 71.6714 10.0165 72.017 7.38963 73.7337C7.13531 73.8999 6.76967 73.7146 6.64378 73.4381C6.51788 73.1616 6.56497 72.84 6.62937 72.5431C7.46835 68.6751 10.8106 65.7155 14.5275 64.3554C18.2444 62.9953 22.3101 62.9915 26.2612 63.224C26.6532 63.2471 27.063 63.2777 27.3974 63.4836C27.7318 63.6895 27.9568 64.1298 27.7901 64.4854C26.2359 67.8011 25.0651 71.2964 24.3085 74.8793C24.1858 75.4603 23.5849 75.8457 22.9931 75.8942C22.4012 75.9426 21.8214 75.7238 21.2843 75.4706C19.6104 74.6813 18.1208 73.5238 16.4026 72.8367M16.7358 68.9228C16.4761 69.1338 16.0702 69.0224 15.8259 68.7938C15.5815 68.5652 15.4423 68.2489 15.2502 67.975C14.22 66.5054 11.8558 66.6273 10.4545 67.7486C9.0531 68.8699 8.37498 70.6416 7.75747 72.3268C11.8687 70.541 16.9324 71.1818 20.4692 73.9355C20.9521 74.3115 21.4312 74.7351 22.0259 74.8798C22.6205 75.0246 23.3696 74.7645 23.5202 74.1713C24.3248 71.0025 25.3163 67.8811 26.4879 64.8288C24.24 67.623 19.5191 66.6615 16.7358 68.9228M15.8411 67.2343C16.072 67.5244 16.4912 67.6013 16.8561 67.5359C17.221 67.4704 17.5525 67.2887 17.8925 67.1409C19.0631 66.6321 20.3596 66.5186 21.6145 66.2859C22.8695 66.0532 24.164 65.6595 25.0474 64.7383C23.0541 64.7323 21.0608 64.7263 19.0675 64.7203C17.0643 64.7143 14.9056 64.7567 13.2963 65.9496C14.276 65.9854 15.2306 66.4673 15.8411 67.2343Z" fill="url(#paint1_linear_427_4674)"/>
<path fill-rule="evenodd" clip-rule="evenodd" d="M110.014 72.5696C110.01 70.8163 110.005 69.0629 110 67.3096C109.999 66.8061 109.997 66.3026 109.996 65.7991C109.995 65.4519 110.053 65.0174 110.383 64.9094C110.633 64.8278 110.908 65.0071 111.024 65.2424C111.141 65.4777 111.14 65.7518 111.136 66.0144C111.099 68.4611 111.063 70.9079 111.027 73.3546C111.021 73.7065 110.962 74.1394 110.633 74.2629C110.083 73.9517 110.016 73.2011 110.014 72.5696H110.014Z" fill="black"/>
<path fill-rule="evenodd" clip-rule="evenodd" d="M106.514 70.9468C106.26 71.0581 106.129 70.64 106.168 70.3657C106.309 69.3838 106.449 68.4 106.688 67.4374C106.837 66.8381 107.051 66.2075 107.546 65.8384C108.041 65.4693 108.891 65.5339 109.133 66.1018C109.25 66.377 109.202 66.6913 109.148 66.9855C108.815 68.8069 108.366 70.6072 107.805 72.3719C107.781 72.4468 107.755 72.5249 107.698 72.5792C107.56 72.7115 107.311 72.6226 107.216 72.457C107.12 72.2914 107.133 72.0873 107.148 71.8968C107.376 71.8801 107.482 71.612 107.537 71.3902C107.76 70.4841 107.984 69.578 108.207 68.6719C108.381 67.9668 108.54 67.164 108.135 66.561C107.719 66.817 107.563 67.3349 107.439 67.8072C107.19 68.7574 106.942 69.7077 106.693 70.6579C106.663 70.7716 106.621 70.8996 106.514 70.9468L106.514 70.9468Z" fill="black"/>
<defs>
<linearGradient id="paint0_linear_427_4674" x1="146.35" y1="106.387" x2="168.97" y2="106.387" gradientUnits="userSpaceOnUse">
<stop stop-color="#4598F2"/>
<stop offset="1" stop-color="#1A76D8"/>
</linearGradient>
<linearGradient id="paint1_linear_427_4674" x1="6.5647" y1="69.5048" x2="27.8464" y2="69.5048" gradientUnits="userSpaceOnUse">
<stop stop-color="#4598F2"/>
<stop offset="1" stop-color="#1A76D8"/>
</linearGradient>
</defs>
</svg>
