<svg width="121" height="153" viewBox="0 0 121 153" fill="none" xmlns="http://www.w3.org/2000/svg">
<g opacity="0.8">
<mask id="mask0_307_3611" style="mask-type:luminance" maskUnits="userSpaceOnUse" x="6" y="-40" width="167" height="165">
<path d="M89.4999 124.834C135.081 124.834 172.032 87.9717 172.032 42.5C172.032 -2.97174 135.081 -39.8339 89.4999 -39.8339C43.9187 -39.8339 6.96777 -2.97174 6.96777 42.5C6.96777 87.9717 43.9187 124.834 89.4999 124.834Z" fill="white"/>
</mask>
<g mask="url(#mask0_307_3611)">
<path d="M165.397 -40H165.066H151.628H151.297H137.859H137.528H124.09H123.758H110.32H109.989H96.5512H96.22H82.7819H82.4508H69.0127H68.6815H55.2435H54.9123H41.4742H41.1431H27.705H27.3739H13.9358H13.6046H0V125H179V-40H165.397ZM178.833 111.428V124.834H165.395V111.428H178.833ZM165.064 111.428V124.834H151.626V111.428H165.064ZM151.295 111.428V124.834H137.857V111.428H151.295ZM137.526 111.428V124.834H124.088V111.428H137.526ZM123.757 111.428V124.834H110.318V111.428H123.757ZM109.987 111.428V124.834H96.5492V111.428H109.987ZM96.2181 111.428V124.834H82.78V111.428H96.2181ZM82.4488 111.428V124.834H69.0108V111.428H82.4488ZM68.6796 111.428V124.834H55.2415V111.428H68.6796ZM54.9104 111.428V124.834H41.4723V111.428H54.9104ZM41.1411 111.428V124.834H27.7031V111.428H41.1411ZM27.3719 111.428V124.834H13.9358V111.428H27.3719ZM13.6027 111.428V124.834H0.166548V111.428H13.6027ZM178.833 97.6919V111.098H165.395V97.6919H178.833ZM165.064 97.6919V111.098H151.626V97.6919H165.064ZM151.295 97.6919V111.098H137.857V97.6919H151.295ZM137.526 97.6919V111.098H124.088V97.6919H137.526ZM123.757 97.6919V111.098H110.318V97.6919H123.757ZM109.987 97.6919V111.098H96.5492V97.6919H109.987ZM96.2181 97.6919V111.098H82.78V97.6919H96.2181ZM82.4488 97.6919V111.098H69.0108V97.6919H82.4488ZM68.6796 97.6919V111.098H55.2415V97.6919H68.6796ZM54.9104 97.6919V111.098H41.4723V97.6919H54.9104ZM41.1411 97.6919V111.098H27.7031V97.6919H41.1411ZM27.3719 97.6919V111.098H13.9358V97.6919H27.3719ZM13.6027 97.6919V111.098H0.166548V97.6919H13.6027ZM178.833 83.9557V97.3615H165.395V83.9557H178.833ZM165.064 83.9557V97.3615H151.626V83.9557H165.064ZM151.295 83.9557V97.3615H137.857V83.9557H151.295ZM137.526 83.9557V97.3615H124.088V83.9557H137.526ZM123.757 83.9557V97.3615H110.318V83.9557H123.757ZM109.987 83.9557V97.3615H96.5492V83.9557H109.987ZM96.2181 83.9557V97.3615H82.78V83.9557H96.2181ZM82.4488 83.9557V97.3615H69.0108V83.9557H82.4488ZM68.6796 83.9557V97.3615H55.2415V83.9557H68.6796ZM54.9104 83.9557V97.3615H41.4723V83.9557H54.9104ZM41.1411 83.9557V97.3615H27.7031V83.9557H41.1411ZM27.3719 83.9557V97.3615H13.9358V83.9557H27.3719ZM13.6027 83.9557V97.3615H0.166548V83.9557H13.6027ZM178.833 70.2196V83.6254H165.395V70.2196H178.833ZM165.064 70.2196V83.6254H151.626V70.2196H165.064ZM151.295 70.2196V83.6254H137.857V70.2196H151.295ZM137.526 70.2196V83.6254H124.088V70.2196H137.526ZM123.757 70.2196V83.6254H110.318V70.2196H123.757ZM109.987 70.2196V83.6254H96.5492V70.2196H109.987ZM96.2181 70.2196V83.6254H82.78V70.2196H96.2181ZM82.4488 70.2196V83.6254H69.0108V70.2196H82.4488ZM68.6796 70.2196V83.6254H55.2415V70.2196H68.6796ZM54.9104 70.2196V83.6254H41.4723V70.2196H54.9104ZM41.1411 70.2196V83.6254H27.7031V70.2196H41.1411ZM27.3719 70.2196V83.6254H13.9358V70.2196H27.3719ZM13.6027 70.2196V83.6254H0.166548V70.2196H13.6027ZM178.833 56.4834V69.8892H165.395V56.4834H178.833ZM165.064 56.4834V69.8892H151.626V56.4834H165.064ZM151.295 56.4834V69.8892H137.857V56.4834H151.295ZM137.526 56.4834V69.8892H124.088V56.4834H137.526ZM123.757 56.4834V69.8892H110.318V56.4834H123.757ZM109.987 56.4834V69.8892H96.5492V56.4834H109.987ZM96.2181 56.4834V69.8892H82.78V56.4834H96.2181ZM82.4488 56.4834V69.8892H69.0108V56.4834H82.4488ZM68.6796 56.4834V69.8892H55.2415V56.4834H68.6796ZM54.9104 56.4834V69.8892H41.4723V56.4834H54.9104ZM41.1411 56.4834V69.8892H27.7031V56.4834H41.1411ZM27.3719 56.4834V69.8892H13.9358V56.4834H27.3719ZM13.6027 56.4834V69.8892H0.166548V56.4834H13.6027ZM178.833 42.7473V56.1531H165.395V42.7473H178.833ZM165.064 42.7473V56.1531H151.626V42.7473H165.064ZM151.295 42.7473V56.1531H137.857V42.7473H151.295ZM137.526 42.7473V56.1531H124.088V42.7473H137.526ZM123.757 42.7473V56.1531H110.318V42.7473H123.757ZM109.987 42.7473V56.1531H96.5492V42.7473H109.987ZM96.2181 42.7473V56.1531H82.78V42.7473H96.2181ZM82.4488 42.7473V56.1531H69.0108V42.7473H82.4488ZM68.6796 42.7473V56.1531H55.2415V42.7473H68.6796ZM54.9104 42.7473V56.1531H41.4723V42.7473H54.9104ZM41.1411 42.7473V56.1531H27.7031V42.7473H41.1411ZM27.3719 42.7473V56.1531H13.9358V42.7473H27.3719ZM13.6027 42.7473V56.1531H0.166548V42.7473H13.6027ZM178.833 29.0111V42.4169H165.395V29.0111H178.833ZM165.064 29.0111V42.4169H151.626V29.0111H165.064ZM151.295 29.0111V42.4169H137.857V29.0111H151.295ZM137.526 29.0111V42.4169H124.088V29.0111H137.526ZM123.757 29.0111V42.4169H110.318V29.0111H123.757ZM109.987 29.0111V42.4169H96.5492V29.0111H109.987ZM96.2181 29.0111V42.4169H82.78V29.0111H96.2181ZM82.4488 29.0111V42.4169H69.0108V29.0111H82.4488ZM68.6796 29.0111V42.4169H55.2415V29.0111H68.6796ZM54.9104 29.0111V42.4169H41.4723V29.0111H54.9104ZM41.1411 29.0111V42.4169H27.7031V29.0111H41.1411ZM27.3719 29.0111V42.4169H13.9358V29.0111H27.3719ZM13.6027 29.0111V42.4169H0.166548V29.0111H13.6027ZM178.833 15.275V28.6808H165.395V15.275H178.833ZM165.064 15.275V28.6808H151.626V15.275H165.064ZM151.295 15.275V28.6808H137.857V15.275H151.295ZM137.526 15.275V28.6808H124.088V15.275H137.526ZM123.757 15.275V28.6808H110.318V15.275H123.757ZM109.987 15.275V28.6808H96.5492V15.275H109.987ZM96.2181 15.275V28.6808H82.78V15.275H96.2181ZM82.4488 15.275V28.6808H69.0108V15.275H82.4488ZM68.6796 15.275V28.6808H55.2415V15.275H68.6796ZM54.9104 15.275V28.6808H41.4723V15.275H54.9104ZM41.1411 15.275V28.6808H27.7031V15.275H41.1411ZM27.3719 15.275V28.6808H13.9358V15.275H27.3719ZM13.6027 15.275V28.6808H0.166548V15.275H13.6027ZM178.833 1.53882V14.9446H165.395V1.53882H178.833ZM165.064 1.53882V14.9446H151.626V1.53882H165.064ZM151.295 1.53882V14.9446H137.857V1.53882H151.295ZM137.526 1.53882V14.9446H124.088V1.53882H137.526ZM123.757 1.53882V14.9446H110.318V1.53882H123.757ZM109.987 1.53882V14.9446H96.5492V1.53882H109.987ZM96.2181 1.53882V14.9446H82.78V1.53882H96.2181ZM82.4488 1.53882V14.9446H69.0108V1.53882H82.4488ZM68.6796 1.53882V14.9446H55.2415V1.53882H68.6796ZM54.9104 1.53882V14.9446H41.4723V1.53882H54.9104ZM41.1411 1.53882V14.9446H27.7031V1.53882H41.1411ZM27.3719 1.53882V14.9446H13.9358V1.53882H27.3719ZM13.6027 1.53882V14.9446H0.166548V1.53882H13.6027ZM178.833 -12.1973V1.20846H165.395V-12.1973H178.833ZM165.064 -12.1973V1.20846H151.626V-12.1973H165.064ZM151.295 -12.1973V1.20846H137.857V-12.1973H151.295ZM137.526 -12.1973V1.20846H124.088V-12.1973H137.526ZM123.757 -12.1973V1.20846H110.318V-12.1973H123.757ZM109.987 -12.1973V1.20846H96.5492V-12.1973H109.987ZM96.2181 -12.1973V1.20846H82.78V-12.1973H96.2181ZM82.4488 -12.1973V1.20846H69.0108V-12.1973H82.4488ZM68.6796 -12.1973V1.20846H55.2415V-12.1973H68.6796ZM54.9104 -12.1973V1.20846H41.4723V-12.1973H54.9104ZM41.1411 -12.1973V1.20846H27.7031V-12.1973H41.1411ZM27.3719 -12.1973V1.20846H13.9358V-12.1973H27.3719ZM13.6027 -12.1973V1.20846H0.166548V-12.1973H13.6027ZM178.833 -25.9335V-12.5277H165.395V-25.9335H178.833ZM165.064 -25.9335V-12.5277H151.626V-25.9335H165.064ZM151.295 -25.9335V-12.5277H137.857V-25.9335H151.295ZM137.526 -25.9335V-12.5277H124.088V-25.9335H137.526ZM123.757 -25.9335V-12.5277H110.318V-25.9335H123.757ZM109.987 -25.9335V-12.5277H96.5492V-25.9335H109.987ZM96.2181 -25.9335V-12.5277H82.78V-25.9335H96.2181ZM82.4488 -25.9335V-12.5277H69.0108V-25.9335H82.4488ZM68.6796 -25.9335V-12.5277H55.2415V-25.9335H68.6796ZM54.9104 -25.9335V-12.5277H41.4723V-25.9335H54.9104ZM41.1411 -25.9335V-12.5277H27.7031V-25.9335H41.1411ZM27.3719 -25.9335V-12.5277H13.9358V-25.9335H27.3719ZM13.6027 -25.9335V-12.5277H0.166548V-25.9335H13.6027ZM178.833 -39.6696V-26.2638H165.395V-39.6696H178.833ZM165.064 -39.6696V-26.2638H151.626V-39.6696H165.064ZM151.295 -39.6696V-26.2638H137.857V-39.6696H151.295ZM137.526 -39.6696V-26.2638H124.088V-39.6696H137.526ZM123.757 -39.6696V-26.2638H110.318V-39.6696H123.757ZM109.987 -39.6696V-26.2638H96.5492V-39.6696H109.987ZM96.2181 -39.6696V-26.2638H82.78V-39.6696H96.2181ZM82.4488 -39.6696V-26.2638H69.0108V-39.6696H82.4488ZM68.6796 -39.6696V-26.2638H55.2415V-39.6696H68.6796ZM54.9104 -39.6696V-26.2638H41.4723V-39.6696H54.9104ZM41.1411 -39.6696V-26.2638H27.7031V-39.6696H41.1411ZM27.3719 -39.6696V-26.2638H13.9358V-39.6696H27.3719ZM13.6027 -26.2638H0.166548V-39.6696H13.6046V-26.2638H13.6027Z" fill="#B9B9B9"/>
</g>
</g>
<g clip-path="url(#clip0_307_3611)">
<path d="M92.365 118.851H30.6484C24.7654 118.851 19.9956 114.072 19.9956 108.177C19.9956 102.283 24.7654 97.5035 30.6484 97.5035H81.9587V108.2C81.9587 113.957 86.6184 118.626 92.365 118.626C98.1116 118.626 102.771 113.957 102.771 108.2V105.887C102.934 106.625 103.018 107.39 103.018 108.177C103.013 114.072 98.248 118.851 92.365 118.851Z" fill="#C35858"/>
<path d="M92.5233 153C86.776 153 82.1169 148.443 82.1169 142.821C82.1169 137.2 86.776 132.643 92.5233 132.643C98.2706 132.643 102.93 137.2 102.93 142.821C102.93 148.443 98.2706 153 92.5233 153Z" fill="white"/>
<path d="M102.771 105.887C101.724 101.094 97.4649 97.5035 92.3651 97.5035H81.9587V66.0831C81.9587 60.3216 86.6185 55.6567 92.3651 55.6567C92.4179 55.6567 92.4707 55.6567 92.5279 55.6567C86.6757 55.7452 81.9631 60.525 81.9631 66.4058C81.9631 72.3442 86.7681 77.1594 92.6907 77.1594H102.771V105.887Z" fill="white"/>
<path d="M92.3651 118.626C86.6185 118.626 81.9587 113.957 81.9587 108.2V97.5035H92.3651C97.4649 97.5035 101.724 101.094 102.771 105.887V108.2C102.771 113.961 98.1117 118.626 92.3651 118.626Z" fill="#181F3A"/>
<path d="M134.541 77.1594H102.089V66.0831C102.089 60.3791 97.8213 55.7408 92.5235 55.6567C92.5763 55.6567 92.6247 55.6567 92.6775 55.6567H134.541C140.072 55.6567 144.56 60.4719 144.56 66.4103C144.56 72.3441 140.076 77.1594 134.541 77.1594Z" fill="#C35858"/>
<path d="M102.771 77.1594H92.6907C86.7637 77.1594 81.9631 72.3442 81.9631 66.4058C81.9631 60.5206 86.6801 55.7408 92.5279 55.6567C98.1997 55.7408 102.771 60.3791 102.771 66.0831V77.1594Z" fill="#181F3A"/>
</g>
<defs>
<clipPath id="clip0_307_3611">
<rect width="155" height="183" fill="white" transform="matrix(-1 0 0 1 175 -30)"/>
</clipPath>
</defs>
</svg>
