<svg width="269" height="255" viewBox="0 0 269 255" fill="none" xmlns="http://www.w3.org/2000/svg">
<path d="M420.551 -197H419.761H387.705H386.915H354.859H354.069H322.013H321.223H289.167H288.377H256.32H255.53H223.474H222.684H190.628H189.838H157.782H156.992H124.936H124.146H92.0896H91.2996H59.2435H58.4535H26V197H453V-197H420.551ZM452.603 164.592V196.603H420.547V164.592H452.603ZM419.757 164.592V196.603H387.7V164.592H419.757ZM386.91 164.592V196.603H354.854V164.592H386.91ZM354.064 164.592V196.603H322.008V164.592H354.064ZM321.218 164.592V196.603H289.162V164.592H321.218ZM288.372 164.592V196.603H256.316V164.592H288.372ZM255.526 164.592V196.603H223.47V164.592H255.526ZM222.68 164.592V196.603H190.623V164.592H222.68ZM189.833 164.592V196.603H157.777V164.592H189.833ZM156.987 164.592V196.603H124.931V164.592H156.987ZM124.141 164.592V196.603H92.085V164.592H124.141ZM91.295 164.592V196.603H59.2435V164.592H91.295ZM58.4489 164.592V196.603H26.3973V164.592H58.4489ZM452.603 131.792V163.803H420.547V131.792H452.603ZM419.757 131.792V163.803H387.7V131.792H419.757ZM386.91 131.792V163.803H354.854V131.792H386.91ZM354.064 131.792V163.803H322.008V131.792H354.064ZM321.218 131.792V163.803H289.162V131.792H321.218ZM288.372 131.792V163.803H256.316V131.792H288.372ZM255.526 131.792V163.803H223.47V131.792H255.526ZM222.68 131.792V163.803H190.623V131.792H222.68ZM189.833 131.792V163.803H157.777V131.792H189.833ZM156.987 131.792V163.803H124.931V131.792H156.987ZM124.141 131.792V163.803H92.085V131.792H124.141ZM91.295 131.792V163.803H59.2435V131.792H91.295ZM58.4489 131.792V163.803H26.3973V131.792H58.4489ZM452.603 98.9913V131.003H420.547V98.9913H452.603ZM419.757 98.9913V131.003H387.7V98.9913H419.757ZM386.91 98.9913V131.003H354.854V98.9913H386.91ZM354.064 98.9913V131.003H322.008V98.9913H354.064ZM321.218 98.9913V131.003H289.162V98.9913H321.218ZM288.372 98.9913V131.003H256.316V98.9913H288.372ZM255.526 98.9913V131.003H223.47V98.9913H255.526ZM222.68 98.9913V131.003H190.623V98.9913H222.68ZM189.833 98.9913V131.003H157.777V98.9913H189.833ZM156.987 98.9913V131.003H124.931V98.9913H156.987ZM124.141 98.9913V131.003H92.085V98.9913H124.141ZM91.295 98.9913V131.003H59.2435V98.9913H91.295ZM58.4489 98.9913V131.003H26.3973V98.9913H58.4489ZM452.603 66.191V98.2025H420.547V66.191H452.603ZM419.757 66.191V98.2025H387.7V66.191H419.757ZM386.91 66.191V98.2025H354.854V66.191H386.91ZM354.064 66.191V98.2025H322.008V66.191H354.064ZM321.218 66.191V98.2025H289.162V66.191H321.218ZM288.372 66.191V98.2025H256.316V66.191H288.372ZM255.526 66.191V98.2025H223.47V66.191H255.526ZM222.68 66.191V98.2025H190.623V66.191H222.68ZM189.833 66.191V98.2025H157.777V66.191H189.833ZM156.987 66.191V98.2025H124.931V66.191H156.987ZM124.141 66.191V98.2025H92.085V66.191H124.141ZM91.295 66.191V98.2025H59.2435V66.191H91.295ZM58.4489 66.191V98.2025H26.3973V66.191H58.4489ZM452.603 33.3908V65.4022H420.547V33.3908H452.603ZM419.757 33.3908V65.4022H387.7V33.3908H419.757ZM386.91 33.3908V65.4022H354.854V33.3908H386.91ZM354.064 33.3908V65.4022H322.008V33.3908H354.064ZM321.218 33.3908V65.4022H289.162V33.3908H321.218ZM288.372 33.3908V65.4022H256.316V33.3908H288.372ZM255.526 33.3908V65.4022H223.47V33.3908H255.526ZM222.68 33.3908V65.4022H190.623V33.3908H222.68ZM189.833 33.3908V65.4022H157.777V33.3908H189.833ZM156.987 33.3908V65.4022H124.931V33.3908H156.987ZM124.141 33.3908V65.4022H92.085V33.3908H124.141ZM91.295 33.3908V65.4022H59.2435V33.3908H91.295ZM58.4489 33.3908V65.4022H26.3973V33.3908H58.4489ZM452.603 0.5905V32.6019H420.547V0.5905H452.603ZM419.757 0.5905V32.6019H387.7V0.5905H419.757ZM386.91 0.5905V32.6019H354.854V0.5905H386.91ZM354.064 0.5905V32.6019H322.008V0.5905H354.064ZM321.218 0.5905V32.6019H289.162V0.5905H321.218ZM288.372 0.5905V32.6019H256.316V0.5905H288.372ZM255.526 0.5905V32.6019H223.47V0.5905H255.526ZM222.68 0.5905V32.6019H190.623V0.5905H222.68ZM189.833 0.5905V32.6019H157.777V0.5905H189.833ZM156.987 0.5905V32.6019H124.931V0.5905H156.987ZM124.141 0.5905V32.6019H92.085V0.5905H124.141ZM91.295 0.5905V32.6019H59.2435V0.5905H91.295ZM58.4489 0.5905V32.6019H26.3973V0.5905H58.4489ZM452.603 -32.2098V-0.198364H420.547V-32.2098H452.603ZM419.757 -32.2098V-0.198364H387.7V-32.2098H419.757ZM386.91 -32.2098V-0.198364H354.854V-32.2098H386.91ZM354.064 -32.2098V-0.198364H322.008V-32.2098H354.064ZM321.218 -32.2098V-0.198364H289.162V-32.2098H321.218ZM288.372 -32.2098V-0.198364H256.316V-32.2098H288.372ZM255.526 -32.2098V-0.198364H223.47V-32.2098H255.526ZM222.68 -32.2098V-0.198364H190.623V-32.2098H222.68ZM189.833 -32.2098V-0.198364H157.777V-32.2098H189.833ZM156.987 -32.2098V-0.198364H124.931V-32.2098H156.987ZM124.141 -32.2098V-0.198364H92.085V-32.2098H124.141ZM91.295 -32.2098V-0.198364H59.2435V-32.2098H91.295ZM58.4489 -32.2098V-0.198364H26.3973V-32.2098H58.4489ZM452.603 -65.0101V-32.9986H420.547V-65.0101H452.603ZM419.757 -65.0101V-32.9986H387.7V-65.0101H419.757ZM386.91 -65.0101V-32.9986H354.854V-65.0101H386.91ZM354.064 -65.0101V-32.9986H322.008V-65.0101H354.064ZM321.218 -65.0101V-32.9986H289.162V-65.0101H321.218ZM288.372 -65.0101V-32.9986H256.316V-65.0101H288.372ZM255.526 -65.0101V-32.9986H223.47V-65.0101H255.526ZM222.68 -65.0101V-32.9986H190.623V-65.0101H222.68ZM189.833 -65.0101V-32.9986H157.777V-65.0101H189.833ZM156.987 -65.0101V-32.9986H124.931V-65.0101H156.987ZM124.141 -65.0101V-32.9986H92.085V-65.0101H124.141ZM91.295 -65.0101V-32.9986H59.2435V-65.0101H91.295ZM58.4489 -65.0101V-32.9986H26.3973V-65.0101H58.4489ZM452.603 -97.8103V-65.7989H420.547V-97.8103H452.603ZM419.757 -97.8103V-65.7989H387.7V-97.8103H419.757ZM386.91 -97.8103V-65.7989H354.854V-97.8103H386.91ZM354.064 -97.8103V-65.7989H322.008V-97.8103H354.064ZM321.218 -97.8103V-65.7989H289.162V-97.8103H321.218ZM288.372 -97.8103V-65.7989H256.316V-97.8103H288.372ZM255.526 -97.8103V-65.7989H223.47V-97.8103H255.526ZM222.68 -97.8103V-65.7989H190.623V-97.8103H222.68ZM189.833 -97.8103V-65.7989H157.777V-97.8103H189.833ZM156.987 -97.8103V-65.7989H124.931V-97.8103H156.987ZM124.141 -97.8103V-65.7989H92.085V-97.8103H124.141ZM91.295 -97.8103V-65.7989H59.2435V-97.8103H91.295ZM58.4489 -97.8103V-65.7989H26.3973V-97.8103H58.4489ZM452.603 -130.611V-98.5992H420.547V-130.611H452.603ZM419.757 -130.611V-98.5992H387.7V-130.611H419.757ZM386.91 -130.611V-98.5992H354.854V-130.611H386.91ZM354.064 -130.611V-98.5992H322.008V-130.611H354.064ZM321.218 -130.611V-98.5992H289.162V-130.611H321.218ZM288.372 -130.611V-98.5992H256.316V-130.611H288.372ZM255.526 -130.611V-98.5992H223.47V-130.611H255.526ZM222.68 -130.611V-98.5992H190.623V-130.611H222.68ZM189.833 -130.611V-98.5992H157.777V-130.611H189.833ZM156.987 -130.611V-98.5992H124.931V-130.611H156.987ZM124.141 -130.611V-98.5992H92.085V-130.611H124.141ZM91.295 -130.611V-98.5992H59.2435V-130.611H91.295ZM58.4489 -130.611V-98.5992H26.3973V-130.611H58.4489ZM452.603 -163.411V-131.399H420.547V-163.411H452.603ZM419.757 -163.411V-131.399H387.7V-163.411H419.757ZM386.91 -163.411V-131.399H354.854V-163.411H386.91ZM354.064 -163.411V-131.399H322.008V-163.411H354.064ZM321.218 -163.411V-131.399H289.162V-163.411H321.218ZM288.372 -163.411V-131.399H256.316V-163.411H288.372ZM255.526 -163.411V-131.399H223.47V-163.411H255.526ZM222.68 -163.411V-131.399H190.623V-163.411H222.68ZM189.833 -163.411V-131.399H157.777V-163.411H189.833ZM156.987 -163.411V-131.399H124.931V-163.411H156.987ZM124.141 -163.411V-131.399H92.085V-163.411H124.141ZM91.295 -163.411V-131.399H59.2435V-163.411H91.295ZM58.4489 -163.411V-131.399H26.3973V-163.411H58.4489ZM452.603 -196.211V-164.2H420.547V-196.211H452.603ZM419.757 -196.211V-164.2H387.7V-196.211H419.757ZM386.91 -196.211V-164.2H354.854V-196.211H386.91ZM354.064 -196.211V-164.2H322.008V-196.211H354.064ZM321.218 -196.211V-164.2H289.162V-196.211H321.218ZM288.372 -196.211V-164.2H256.316V-196.211H288.372ZM255.526 -196.211V-164.2H223.47V-196.211H255.526ZM222.68 -196.211V-164.2H190.623V-196.211H222.68ZM189.833 -196.211V-164.2H157.777V-196.211H189.833ZM156.987 -196.211V-164.2H124.931V-196.211H156.987ZM124.141 -196.211V-164.2H92.085V-196.211H124.141ZM91.295 -196.211V-164.2H59.2435V-196.211H91.295ZM58.4489 -164.2H26.3973V-196.211H58.4535V-164.2H58.4489Z" fill="#B9B9B9"/>
<g clip-path="url(#clip0_307_3610)">
<path d="M187.8 177.64H328.06C341.43 177.64 352.27 166.83 352.27 153.5C352.27 140.17 341.43 129.36 328.06 129.36H211.45V153.55C211.45 166.57 200.86 177.13 187.8 177.13C174.74 177.13 164.15 166.57 164.15 153.55V148.32C163.78 149.99 163.59 151.72 163.59 153.5C163.6 166.83 174.43 177.64 187.8 177.64Z" fill="#C35858"/>
<path d="M0 52.79C0 40.08 10.59 29.77 23.65 29.77C36.71 29.77 47.3 40.07 47.3 52.79C47.3 65.51 36.71 75.81 23.65 75.81C10.59 75.81 0 65.5 0 52.79Z" fill="#C35858"/>
<path d="M187.44 254.87C200.502 254.87 211.09 244.564 211.09 231.85C211.09 219.136 200.502 208.83 187.44 208.83C174.379 208.83 163.79 219.136 163.79 231.85C163.79 244.564 174.379 254.87 187.44 254.87Z" fill="white"/>
<path d="M164.15 148.32C166.53 137.48 176.21 129.36 187.8 129.36H211.45V58.3C211.45 45.27 200.86 34.72 187.8 34.72C187.68 34.72 187.56 34.72 187.43 34.72C200.73 34.92 211.44 45.73 211.44 59.03C211.44 72.46 200.52 83.35 187.06 83.35H164.15V148.32Z" fill="white"/>
<path d="M187.8 177.13C200.86 177.13 211.45 166.57 211.45 153.55V129.36H187.8C176.21 129.36 166.53 137.48 164.15 148.32V153.55C164.15 166.58 174.74 177.13 187.8 177.13Z" fill="#181F3A"/>
<path d="M91.9499 83.35H165.7V58.3C165.7 45.4 175.4 34.91 187.44 34.72C187.32 34.72 187.21 34.72 187.09 34.72H91.9499C79.3799 34.72 69.1799 45.61 69.1799 59.04C69.1799 72.46 79.3699 83.35 91.9499 83.35Z" fill="#C35858"/>
<path d="M164.15 83.35H187.06C200.53 83.35 211.44 72.46 211.44 59.03C211.44 45.72 200.72 34.91 187.43 34.72C174.54 34.91 164.15 45.4 164.15 58.3V83.35Z" fill="#181F3A"/>
<path d="M93.24 83.35C106.47 83.35 117.2 72.69 117.2 59.54V35.11H93.24C81.5 35.11 71.69 43.31 69.28 54.26V59.54C69.28 72.69 80.01 83.35 93.24 83.35Z" fill="#181F3A"/>
<path d="M69.04 59.23C69.04 45.9 79.88 35.09 93.25 35.09H117.46V-134.86C117.45 -148.19 106.61 -159 93.24 -159C79.87 -159 69.04 -148.19 69.04 -134.86V59.23Z" fill="white"/>
</g>
<defs>
<clipPath id="clip0_307_3610">
<rect width="352.26" height="413.87" fill="white" transform="translate(0 -159)"/>
</clipPath>
</defs>
</svg>
