<svg width="179" height="189" viewBox="0 0 179 189" fill="none" xmlns="http://www.w3.org/2000/svg">
<g opacity="0.8">
<mask id="mask0_308_3632" style="mask-type:luminance" maskUnits="userSpaceOnUse" x="6" y="0" width="167" height="165">
<path d="M89.5001 164.834C43.9189 164.834 6.968 127.972 6.968 82.5C6.968 37.0283 43.9189 0.166138 89.5001 0.166138C135.081 0.166138 172.032 37.0283 172.032 82.5C172.032 127.972 135.081 164.834 89.5001 164.834Z" fill="white"/>
</mask>
<g mask="url(#mask0_308_3632)">
<path d="M13.6027 0H13.9338H27.3719H27.7031H41.1411H41.4723H54.9104H55.2415H68.6796H69.0108H82.4488H82.78H96.2181H96.5492H109.987H110.318H123.757H124.088H137.526H137.857H151.295H151.626H165.064H165.395H179V165H3.79304e-06V0H13.6027ZM0.166549 151.428V164.834H13.6046V151.428H0.166549ZM13.9358 151.428V164.834H27.3738V151.428H13.9358ZM27.705 151.428V164.834H41.1431V151.428H27.705ZM41.4742 151.428V164.834H54.9123V151.428H41.4742ZM55.2435 151.428V164.834H68.6815V151.428H55.2435ZM69.0127 151.428V164.834H82.4508V151.428H69.0127ZM82.7819 151.428V164.834H96.22V151.428H82.7819ZM96.5512 151.428V164.834H109.989V151.428H96.5512ZM110.32 151.428V164.834H123.758V151.428H110.32ZM124.09 151.428V164.834H137.528V151.428H124.09ZM137.859 151.428V164.834H151.297V151.428H137.859ZM151.628 151.428V164.834H165.064V151.428H151.628ZM165.397 151.428V164.834H178.833V151.428H165.397ZM0.166549 137.692V151.098H13.6046V137.692H0.166549ZM13.9358 137.692V151.098H27.3738V137.692H13.9358ZM27.705 137.692V151.098H41.1431V137.692H27.705ZM41.4742 137.692V151.098H54.9123V137.692H41.4742ZM55.2435 137.692V151.098H68.6815V137.692H55.2435ZM69.0127 137.692V151.098H82.4508V137.692H69.0127ZM82.7819 137.692V151.098H96.22V137.692H82.7819ZM96.5512 137.692V151.098H109.989V137.692H96.5512ZM110.32 137.692V151.098H123.758V137.692H110.32ZM124.09 137.692V151.098H137.528V137.692H124.09ZM137.859 137.692V151.098H151.297V137.692H137.859ZM151.628 137.692V151.098H165.064V137.692H151.628ZM165.397 137.692V151.098H178.833V137.692H165.397ZM0.166549 123.956V137.362H13.6046V123.956H0.166549ZM13.9358 123.956V137.362H27.3738V123.956H13.9358ZM27.705 123.956V137.362H41.1431V123.956H27.705ZM41.4742 123.956V137.362H54.9123V123.956H41.4742ZM55.2435 123.956V137.362H68.6815V123.956H55.2435ZM69.0127 123.956V137.362H82.4508V123.956H69.0127ZM82.7819 123.956V137.362H96.22V123.956H82.7819ZM96.5512 123.956V137.362H109.989V123.956H96.5512ZM110.32 123.956V137.362H123.758V123.956H110.32ZM124.09 123.956V137.362H137.528V123.956H124.09ZM137.859 123.956V137.362H151.297V123.956H137.859ZM151.628 123.956V137.362H165.064V123.956H151.628ZM165.397 123.956V137.362H178.833V123.956H165.397ZM0.166549 110.22V123.625H13.6046V110.22H0.166549ZM13.9358 110.22V123.625H27.3738V110.22H13.9358ZM27.705 110.22V123.625H41.1431V110.22H27.705ZM41.4742 110.22V123.625H54.9123V110.22H41.4742ZM55.2435 110.22V123.625H68.6815V110.22H55.2435ZM69.0127 110.22V123.625H82.4508V110.22H69.0127ZM82.7819 110.22V123.625H96.22V110.22H82.7819ZM96.5512 110.22V123.625H109.989V110.22H96.5512ZM110.32 110.22V123.625H123.758V110.22H110.32ZM124.09 110.22V123.625H137.528V110.22H124.09ZM137.859 110.22V123.625H151.297V110.22H137.859ZM151.628 110.22V123.625H165.064V110.22H151.628ZM165.397 110.22V123.625H178.833V110.22H165.397ZM0.166549 96.4834V109.889H13.6046V96.4834H0.166549ZM13.9358 96.4834V109.889H27.3738V96.4834H13.9358ZM27.705 96.4834V109.889H41.1431V96.4834H27.705ZM41.4742 96.4834V109.889H54.9123V96.4834H41.4742ZM55.2435 96.4834V109.889H68.6815V96.4834H55.2435ZM69.0127 96.4834V109.889H82.4508V96.4834H69.0127ZM82.7819 96.4834V109.889H96.22V96.4834H82.7819ZM96.5512 96.4834V109.889H109.989V96.4834H96.5512ZM110.32 96.4834V109.889H123.758V96.4834H110.32ZM124.09 96.4834V109.889H137.528V96.4834H124.09ZM137.859 96.4834V109.889H151.297V96.4834H137.859ZM151.628 96.4834V109.889H165.064V96.4834H151.628ZM165.397 96.4834V109.889H178.833V96.4834H165.397ZM0.166549 82.7473V96.1531H13.6046V82.7473H0.166549ZM13.9358 82.7473V96.1531H27.3738V82.7473H13.9358ZM27.705 82.7473V96.1531H41.1431V82.7473H27.705ZM41.4742 82.7473V96.1531H54.9123V82.7473H41.4742ZM55.2435 82.7473V96.1531H68.6815V82.7473H55.2435ZM69.0127 82.7473V96.1531H82.4508V82.7473H69.0127ZM82.7819 82.7473V96.1531H96.22V82.7473H82.7819ZM96.5512 82.7473V96.1531H109.989V82.7473H96.5512ZM110.32 82.7473V96.1531H123.758V82.7473H110.32ZM124.09 82.7473V96.1531H137.528V82.7473H124.09ZM137.859 82.7473V96.1531H151.297V82.7473H137.859ZM151.628 82.7473V96.1531H165.064V82.7473H151.628ZM165.397 82.7473V96.1531H178.833V82.7473H165.397ZM0.166549 69.0111V82.4169H13.6046V69.0111H0.166549ZM13.9358 69.0111V82.4169H27.3738V69.0111H13.9358ZM27.705 69.0111V82.4169H41.1431V69.0111H27.705ZM41.4742 69.0111V82.4169H54.9123V69.0111H41.4742ZM55.2435 69.0111V82.4169H68.6815V69.0111H55.2435ZM69.0127 69.0111V82.4169H82.4508V69.0111H69.0127ZM82.7819 69.0111V82.4169H96.22V69.0111H82.7819ZM96.5512 69.0111V82.4169H109.989V69.0111H96.5512ZM110.32 69.0111V82.4169H123.758V69.0111H110.32ZM124.09 69.0111V82.4169H137.528V69.0111H124.09ZM137.859 69.0111V82.4169H151.297V69.0111H137.859ZM151.628 69.0111V82.4169H165.064V69.0111H151.628ZM165.397 69.0111V82.4169H178.833V69.0111H165.397ZM0.166549 55.275V68.6808H13.6046V55.275H0.166549ZM13.9358 55.275V68.6808H27.3738V55.275H13.9358ZM27.705 55.275V68.6808H41.1431V55.275H27.705ZM41.4742 55.275V68.6808H54.9123V55.275H41.4742ZM55.2435 55.275V68.6808H68.6815V55.275H55.2435ZM69.0127 55.275V68.6808H82.4508V55.275H69.0127ZM82.7819 55.275V68.6808H96.22V55.275H82.7819ZM96.5512 55.275V68.6808H109.989V55.275H96.5512ZM110.32 55.275V68.6808H123.758V55.275H110.32ZM124.09 55.275V68.6808H137.528V55.275H124.09ZM137.859 55.275V68.6808H151.297V55.275H137.859ZM151.628 55.275V68.6808H165.064V55.275H151.628ZM165.397 55.275V68.6808H178.833V55.275H165.397ZM0.166549 41.5388V54.9446H13.6046V41.5388H0.166549ZM13.9358 41.5388V54.9446H27.3738V41.5388H13.9358ZM27.705 41.5388V54.9446H41.1431V41.5388H27.705ZM41.4742 41.5388V54.9446H54.9123V41.5388H41.4742ZM55.2435 41.5388V54.9446H68.6815V41.5388H55.2435ZM69.0127 41.5388V54.9446H82.4508V41.5388H69.0127ZM82.7819 41.5388V54.9446H96.22V41.5388H82.7819ZM96.5512 41.5388V54.9446H109.989V41.5388H96.5512ZM110.32 41.5388V54.9446H123.758V41.5388H110.32ZM124.09 41.5388V54.9446H137.528V41.5388H124.09ZM137.859 41.5388V54.9446H151.297V41.5388H137.859ZM151.628 41.5388V54.9446H165.064V41.5388H151.628ZM165.397 41.5388V54.9446H178.833V41.5388H165.397ZM0.166549 27.8027V41.2085H13.6046V27.8027H0.166549ZM13.9358 27.8027V41.2085H27.3738V27.8027H13.9358ZM27.705 27.8027V41.2085H41.1431V27.8027H27.705ZM41.4742 27.8027V41.2085H54.9123V27.8027H41.4742ZM55.2435 27.8027V41.2085H68.6815V27.8027H55.2435ZM69.0127 27.8027V41.2085H82.4508V27.8027H69.0127ZM82.7819 27.8027V41.2085H96.22V27.8027H82.7819ZM96.5512 27.8027V41.2085H109.989V27.8027H96.5512ZM110.32 27.8027V41.2085H123.758V27.8027H110.32ZM124.09 27.8027V41.2085H137.528V27.8027H124.09ZM137.859 27.8027V41.2085H151.297V27.8027H137.859ZM151.628 27.8027V41.2085H165.064V27.8027H151.628ZM165.397 27.8027V41.2085H178.833V27.8027H165.397ZM0.166549 14.0665V27.4723H13.6046V14.0665H0.166549ZM13.9358 14.0665V27.4723H27.3738V14.0665H13.9358ZM27.705 14.0665V27.4723H41.1431V14.0665H27.705ZM41.4742 14.0665V27.4723H54.9123V14.0665H41.4742ZM55.2435 14.0665V27.4723H68.6815V14.0665H55.2435ZM69.0127 14.0665V27.4723H82.4508V14.0665H69.0127ZM82.7819 14.0665V27.4723H96.22V14.0665H82.7819ZM96.5512 14.0665V27.4723H109.989V14.0665H96.5512ZM110.32 14.0665V27.4723H123.758V14.0665H110.32ZM124.09 14.0665V27.4723H137.528V14.0665H124.09ZM137.859 14.0665V27.4723H151.297V14.0665H137.859ZM151.628 14.0665V27.4723H165.064V14.0665H151.628ZM165.397 14.0665V27.4723H178.833V14.0665H165.397ZM0.166549 0.330363V13.7362H13.6046V0.330363H0.166549ZM13.9358 0.330363V13.7362H27.3738V0.330363H13.9358ZM27.705 0.330363V13.7362H41.1431V0.330363H27.705ZM41.4742 0.330363V13.7362H54.9123V0.330363H41.4742ZM55.2435 0.330363V13.7362H68.6815V0.330363H55.2435ZM69.0127 0.330363V13.7362H82.4508V0.330363H69.0127ZM82.7819 0.330363V13.7362H96.22V0.330363H82.7819ZM96.5512 0.330363V13.7362H109.989V0.330363H96.5512ZM110.32 0.330363V13.7362H123.758V0.330363H110.32ZM124.09 0.330363V13.7362H137.528V0.330363H124.09ZM137.859 0.330363V13.7362H151.297V0.330363H137.859ZM151.628 0.330363V13.7362H165.064V0.330363H151.628ZM165.397 13.7362H178.833V0.330363H165.395V13.7362H165.397Z" fill="#B9B9B9"/>
</g>
</g>
<g clip-path="url(#clip0_308_3632)">
<path d="M89.365 40.1486H27.6484C21.7654 40.1486 16.9956 44.9284 16.9956 50.8225C16.9956 56.7166 21.7654 61.4965 27.6484 61.4965H78.9587V50.8004C78.9587 45.0434 83.6184 40.3741 89.365 40.3741C95.1116 40.3741 99.7714 45.0434 99.7714 50.8004V53.1129C99.9342 52.3745 100.018 51.6096 100.018 50.8225C100.013 44.9284 95.248 40.1486 89.365 40.1486Z" fill="#C35858"/>
<path d="M172 95.3533C172 100.973 167.34 105.532 161.594 105.532C155.847 105.532 151.187 100.978 151.187 95.3533C151.187 89.7289 155.847 85.1746 161.594 85.1746C167.34 85.1746 172 89.7333 172 95.3533Z" fill="#C35858"/>
<path d="M89.5233 6.00001C83.776 6.00001 79.1169 10.5572 79.1169 16.1787C79.1169 21.8003 83.776 26.3574 89.5233 26.3574C95.2706 26.3574 99.9297 21.8003 99.9297 16.1787C99.9297 10.5572 95.2706 6.00001 89.5233 6.00001Z" fill="white"/>
<path d="M99.7715 53.113C98.7242 57.9061 94.4649 61.4965 89.3651 61.4965H78.9587V92.9169C78.9587 98.6784 83.6185 103.343 89.3651 103.343C89.4179 103.343 89.4707 103.343 89.5279 103.343C83.6757 103.255 78.9631 98.475 78.9631 92.5942C78.9631 86.6558 83.7681 81.8406 89.6907 81.8406H99.7715V53.113Z" fill="white"/>
<path d="M89.3651 40.3741C83.6185 40.3741 78.9587 45.0434 78.9587 50.8004V61.4965H89.3651C94.4649 61.4965 98.7242 57.906 99.7715 53.1129V50.8004C99.7715 45.039 95.1117 40.3741 89.3651 40.3741Z" fill="#181F3A"/>
<path d="M131.541 81.8406H99.0895V92.9169C99.0895 98.6209 94.8213 103.259 89.5235 103.343C89.5763 103.343 89.6247 103.343 89.6775 103.343H131.541C137.072 103.343 141.56 98.5281 141.56 92.5897C141.56 86.6559 137.076 81.8406 131.541 81.8406Z" fill="#C35858"/>
<path d="M99.7715 81.8406H89.6907C83.7637 81.8406 78.9631 86.6558 78.9631 92.5942C78.9631 98.4794 83.6801 103.259 89.5279 103.343C95.1997 103.259 99.7715 98.6209 99.7715 92.9169V81.8406Z" fill="#181F3A"/>
<path d="M130.973 81.8406C125.151 81.8406 120.43 86.5541 120.43 92.3686V103.171H130.973C136.139 103.171 140.455 99.545 141.516 94.7033V92.3686C141.516 86.5541 136.794 81.8406 130.973 81.8406Z" fill="#181F3A"/>
<path d="M141.621 92.5057C141.621 98.3998 136.852 103.18 130.969 103.18H120.316V178.326C120.32 184.22 125.09 189 130.973 189C136.856 189 141.621 184.22 141.621 178.326V92.5057Z" fill="white"/>
</g>
<defs>
<clipPath id="clip0_308_3632">
<rect width="155" height="183" fill="white" transform="matrix(-1 0 0 -1 172 189)"/>
</clipPath>
</defs>
</svg>
