<svg width="224" height="231" viewBox="0 0 224 231" fill="none" xmlns="http://www.w3.org/2000/svg">
<g opacity="0.8">
<mask id="mask0_295_3571" style="mask-type:luminance" maskUnits="userSpaceOnUse" x="-187" y="0" width="395" height="394">
<path d="M10.4998 393.603C119.233 393.603 207.378 305.581 207.378 197C207.378 88.419 119.233 0.396729 10.4998 0.396729C-98.233 0.396729 -186.378 88.419 -186.378 197C-186.378 305.581 -98.233 393.603 10.4998 393.603Z" fill="white"/>
</mask>
<g mask="url(#mask0_295_3571)">
<path d="M191.551 0H190.761H158.705H157.915H125.859H125.069H93.0127H92.2227H60.1665H59.3766H27.3204H26.5304H-5.52579H-6.31575H-38.3719H-39.1619H-71.2181H-72.0081H-104.064H-104.854H-136.91H-137.7H-169.757H-170.547H-203V394H224V0H191.551ZM223.603 361.592V393.603H191.547V361.592H223.603ZM190.757 361.592V393.603H158.7V361.592H190.757ZM157.91 361.592V393.603H125.854V361.592H157.91ZM125.064 361.592V393.603H93.0081V361.592H125.064ZM92.2181 361.592V393.603H60.1619V361.592H92.2181ZM59.3719 361.592V393.603H27.3158V361.592H59.3719ZM26.5258 361.592V393.603H-5.5304V361.592H26.5258ZM-6.32037 361.592V393.603H-38.3766V361.592H-6.32037ZM-39.1665 361.592V393.603H-71.2227V361.592H-39.1665ZM-72.0127 361.592V393.603H-104.069V361.592H-72.0127ZM-104.859 361.592V393.603H-136.915V361.592H-104.859ZM-137.705 361.592V393.603H-169.757V361.592H-137.705ZM-170.551 361.592V393.603H-202.603V361.592H-170.551ZM223.603 328.792V360.803H191.547V328.792H223.603ZM190.757 328.792V360.803H158.7V328.792H190.757ZM157.91 328.792V360.803H125.854V328.792H157.91ZM125.064 328.792V360.803H93.0081V328.792H125.064ZM92.2181 328.792V360.803H60.1619V328.792H92.2181ZM59.3719 328.792V360.803H27.3158V328.792H59.3719ZM26.5258 328.792V360.803H-5.5304V328.792H26.5258ZM-6.32037 328.792V360.803H-38.3766V328.792H-6.32037ZM-39.1665 328.792V360.803H-71.2227V328.792H-39.1665ZM-72.0127 328.792V360.803H-104.069V328.792H-72.0127ZM-104.859 328.792V360.803H-136.915V328.792H-104.859ZM-137.705 328.792V360.803H-169.757V328.792H-137.705ZM-170.551 328.792V360.803H-202.603V328.792H-170.551ZM223.603 295.991V328.003H191.547V295.991H223.603ZM190.757 295.991V328.003H158.7V295.991H190.757ZM157.91 295.991V328.003H125.854V295.991H157.91ZM125.064 295.991V328.003H93.0081V295.991H125.064ZM92.2181 295.991V328.003H60.1619V295.991H92.2181ZM59.3719 295.991V328.003H27.3158V295.991H59.3719ZM26.5258 295.991V328.003H-5.5304V295.991H26.5258ZM-6.32037 295.991V328.003H-38.3766V295.991H-6.32037ZM-39.1665 295.991V328.003H-71.2227V295.991H-39.1665ZM-72.0127 295.991V328.003H-104.069V295.991H-72.0127ZM-104.859 295.991V328.003H-136.915V295.991H-104.859ZM-137.705 295.991V328.003H-169.757V295.991H-137.705ZM-170.551 295.991V328.003H-202.603V295.991H-170.551ZM223.603 263.191V295.202H191.547V263.191H223.603ZM190.757 263.191V295.202H158.7V263.191H190.757ZM157.91 263.191V295.202H125.854V263.191H157.91ZM125.064 263.191V295.202H93.0081V263.191H125.064ZM92.2181 263.191V295.202H60.1619V263.191H92.2181ZM59.3719 263.191V295.202H27.3158V263.191H59.3719ZM26.5258 263.191V295.202H-5.5304V263.191H26.5258ZM-6.32037 263.191V295.202H-38.3766V263.191H-6.32037ZM-39.1665 263.191V295.202H-71.2227V263.191H-39.1665ZM-72.0127 263.191V295.202H-104.069V263.191H-72.0127ZM-104.859 263.191V295.202H-136.915V263.191H-104.859ZM-137.705 263.191V295.202H-169.757V263.191H-137.705ZM-170.551 263.191V295.202H-202.603V263.191H-170.551ZM223.603 230.391V262.402H191.547V230.391H223.603ZM190.757 230.391V262.402H158.7V230.391H190.757ZM157.91 230.391V262.402H125.854V230.391H157.91ZM125.064 230.391V262.402H93.0081V230.391H125.064ZM92.2181 230.391V262.402H60.1619V230.391H92.2181ZM59.3719 230.391V262.402H27.3158V230.391H59.3719ZM26.5258 230.391V262.402H-5.5304V230.391H26.5258ZM-6.32037 230.391V262.402H-38.3766V230.391H-6.32037ZM-39.1665 230.391V262.402H-71.2227V230.391H-39.1665ZM-72.0127 230.391V262.402H-104.069V230.391H-72.0127ZM-104.859 230.391V262.402H-136.915V230.391H-104.859ZM-137.705 230.391V262.402H-169.757V230.391H-137.705ZM-170.551 230.391V262.402H-202.603V230.391H-170.551ZM223.603 197.59V229.602H191.547V197.59H223.603ZM190.757 197.59V229.602H158.7V197.59H190.757ZM157.91 197.59V229.602H125.854V197.59H157.91ZM125.064 197.59V229.602H93.0081V197.59H125.064ZM92.2181 197.59V229.602H60.1619V197.59H92.2181ZM59.3719 197.59V229.602H27.3158V197.59H59.3719ZM26.5258 197.59V229.602H-5.5304V197.59H26.5258ZM-6.32037 197.59V229.602H-38.3766V197.59H-6.32037ZM-39.1665 197.59V229.602H-71.2227V197.59H-39.1665ZM-72.0127 197.59V229.602H-104.069V197.59H-72.0127ZM-104.859 197.59V229.602H-136.915V197.59H-104.859ZM-137.705 197.59V229.602H-169.757V197.59H-137.705ZM-170.551 197.59V229.602H-202.603V197.59H-170.551ZM223.603 164.79V196.802H191.547V164.79H223.603ZM190.757 164.79V196.802H158.7V164.79H190.757ZM157.91 164.79V196.802H125.854V164.79H157.91ZM125.064 164.79V196.802H93.0081V164.79H125.064ZM92.2181 164.79V196.802H60.1619V164.79H92.2181ZM59.3719 164.79V196.802H27.3158V164.79H59.3719ZM26.5258 164.79V196.802H-5.5304V164.79H26.5258ZM-6.32037 164.79V196.802H-38.3766V164.79H-6.32037ZM-39.1665 164.79V196.802H-71.2227V164.79H-39.1665ZM-72.0127 164.79V196.802H-104.069V164.79H-72.0127ZM-104.859 164.79V196.802H-136.915V164.79H-104.859ZM-137.705 164.79V196.802H-169.757V164.79H-137.705ZM-170.551 164.79V196.802H-202.603V164.79H-170.551ZM223.603 131.99V164.001H191.547V131.99H223.603ZM190.757 131.99V164.001H158.7V131.99H190.757ZM157.91 131.99V164.001H125.854V131.99H157.91ZM125.064 131.99V164.001H93.0081V131.99H125.064ZM92.2181 131.99V164.001H60.1619V131.99H92.2181ZM59.3719 131.99V164.001H27.3158V131.99H59.3719ZM26.5258 131.99V164.001H-5.5304V131.99H26.5258ZM-6.32037 131.99V164.001H-38.3766V131.99H-6.32037ZM-39.1665 131.99V164.001H-71.2227V131.99H-39.1665ZM-72.0127 131.99V164.001H-104.069V131.99H-72.0127ZM-104.859 131.99V164.001H-136.915V131.99H-104.859ZM-137.705 131.99V164.001H-169.757V131.99H-137.705ZM-170.551 131.99V164.001H-202.603V131.99H-170.551ZM223.603 99.1897V131.201H191.547V99.1897H223.603ZM190.757 99.1897V131.201H158.7V99.1897H190.757ZM157.91 99.1897V131.201H125.854V99.1897H157.91ZM125.064 99.1897V131.201H93.0081V99.1897H125.064ZM92.2181 99.1897V131.201H60.1619V99.1897H92.2181ZM59.3719 99.1897V131.201H27.3158V99.1897H59.3719ZM26.5258 99.1897V131.201H-5.5304V99.1897H26.5258ZM-6.32037 99.1897V131.201H-38.3766V99.1897H-6.32037ZM-39.1665 99.1897V131.201H-71.2227V99.1897H-39.1665ZM-72.0127 99.1897V131.201H-104.069V99.1897H-72.0127ZM-104.859 99.1897V131.201H-136.915V99.1897H-104.859ZM-137.705 99.1897V131.201H-169.757V99.1897H-137.705ZM-170.551 99.1897V131.201H-202.603V99.1897H-170.551ZM223.603 66.3894V98.4008H191.547V66.3894H223.603ZM190.757 66.3894V98.4008H158.7V66.3894H190.757ZM157.91 66.3894V98.4008H125.854V66.3894H157.91ZM125.064 66.3894V98.4008H93.0081V66.3894H125.064ZM92.2181 66.3894V98.4008H60.1619V66.3894H92.2181ZM59.3719 66.3894V98.4008H27.3158V66.3894H59.3719ZM26.5258 66.3894V98.4008H-5.5304V66.3894H26.5258ZM-6.32037 66.3894V98.4008H-38.3766V66.3894H-6.32037ZM-39.1665 66.3894V98.4008H-71.2227V66.3894H-39.1665ZM-72.0127 66.3894V98.4008H-104.069V66.3894H-72.0127ZM-104.859 66.3894V98.4008H-136.915V66.3894H-104.859ZM-137.705 66.3894V98.4008H-169.757V66.3894H-137.705ZM-170.551 66.3894V98.4008H-202.603V66.3894H-170.551ZM223.603 33.5891V65.6005H191.547V33.5891H223.603ZM190.757 33.5891V65.6005H158.7V33.5891H190.757ZM157.91 33.5891V65.6005H125.854V33.5891H157.91ZM125.064 33.5891V65.6005H93.0081V33.5891H125.064ZM92.2181 33.5891V65.6005H60.1619V33.5891H92.2181ZM59.3719 33.5891V65.6005H27.3158V33.5891H59.3719ZM26.5258 33.5891V65.6005H-5.5304V33.5891H26.5258ZM-6.32037 33.5891V65.6005H-38.3766V33.5891H-6.32037ZM-39.1665 33.5891V65.6005H-71.2227V33.5891H-39.1665ZM-72.0127 33.5891V65.6005H-104.069V33.5891H-72.0127ZM-104.859 33.5891V65.6005H-136.915V33.5891H-104.859ZM-137.705 33.5891V65.6005H-169.757V33.5891H-137.705ZM-170.551 33.5891V65.6005H-202.603V33.5891H-170.551ZM223.603 0.788867V32.8003H191.547V0.788867H223.603ZM190.757 0.788867V32.8003H158.7V0.788867H190.757ZM157.91 0.788867V32.8003H125.854V0.788867H157.91ZM125.064 0.788867V32.8003H93.0081V0.788867H125.064ZM92.2181 0.788867V32.8003H60.1619V0.788867H92.2181ZM59.3719 0.788867V32.8003H27.3158V0.788867H59.3719ZM26.5258 0.788867V32.8003H-5.5304V0.788867H26.5258ZM-6.32037 0.788867V32.8003H-38.3766V0.788867H-6.32037ZM-39.1665 0.788867V32.8003H-71.2227V0.788867H-39.1665ZM-72.0127 0.788867V32.8003H-104.069V0.788867H-72.0127ZM-104.859 0.788867V32.8003H-136.915V0.788867H-104.859ZM-137.705 0.788867V32.8003H-169.757V0.788867H-137.705ZM-170.551 32.8003H-202.603V0.788867H-170.547V32.8003H-170.551Z" fill="#B9B9B9"/>
</g>
</g>
<g clip-path="url(#clip0_295_3571)">
<path d="M60.2402 231.62C74.1902 231.62 85.5102 220.34 85.5102 206.42V181.22H159.73C173.68 181.22 185 192.5 185 206.42C185 220.34 173.69 231.62 159.73 231.62H60.2402Z" fill="white"/>
<path d="M60.24 82C46.29 82 34.97 93.28 34.97 107.2V132.4H-39.25C-53.2 132.4 -64.52 121.12 -64.52 107.2C-64.51 93.28 -53.2 82 -39.25 82H60.24Z" fill="white"/>
<path d="M34.9702 206.42V132.29H60.2402C74.1402 132.29 85.4002 121.05 85.4002 107.19C85.4002 93.33 74.1302 82.09 60.2402 82.09H57.9402C58.7002 82.02 59.4602 81.99 60.2402 81.99C74.1902 81.99 85.5102 93.27 85.5102 107.19V181.21H60.2402C46.2802 181.22 34.9702 192.5 34.9702 206.42Z" fill="#C35858"/>
<path d="M34.9702 206.42C34.9702 192.5 46.2802 181.22 60.2402 181.22H85.5102V206.42C85.5102 220.34 74.2002 231.62 60.2402 231.62C46.2802 231.62 34.9702 220.34 34.9702 206.42Z" fill="#181F3A"/>
<path d="M34.9702 132.29V107.2C34.9702 94.05 45.0602 83.26 57.9402 82.1H60.2402C74.1402 82.1 85.4002 93.34 85.4002 107.2C85.4002 121.06 74.1302 132.3 60.2402 132.3H34.9702" fill="#181F3A"/>
</g>
<defs>
<clipPath id="clip0_295_3571">
<rect width="348.99" height="149.62" fill="white" transform="translate(-164 82)"/>
</clipPath>
</defs>
</svg>
