<svg width="153" height="162" viewBox="0 0 153 162" fill="none" xmlns="http://www.w3.org/2000/svg">
<mask id="mask0_319_2258" style="mask-type:luminance" maskUnits="userSpaceOnUse" x="0" y="0" width="153" height="162">
<path d="M0.72061 0.361101C0.841033 0.435656 32.8254 28.1883 32.8254 28.1883C33.7027 30.1264 34.2188 31.5427 34.6832 33.2572C36.4034 39.622 36.025 47.0705 35.6179 67.3345C35.2337 86.6238 36.5525 105.953 39.5629 125.013C42.0228 140.61 48.6398 159.09 64.202 161.722C75.4005 163.62 86.3754 155.53 91.5303 145.403C96.6852 135.283 97.3389 123.545 97.8951 112.198C98.4456 100.89 99.0018 89.5825 99.5522 78.275C99.8905 71.3483 100.309 64.1292 103.727 58.0913C108.549 49.5705 121.278 45.5452 130.808 48.0969C142.873 51.3308 152.42 66.3196 152.42 66.3196L152.42 0.378326C152.42 0.378326 145.579 0.424194 134.937 0.487273C134.937 0.487273 0.760756 0.349642 0.72061 0.349642L0.72061 0.361101Z" fill="white"/>
</mask>
<g mask="url(#mask0_319_2258)">
<path d="M-0.197117 25.1956L-0.197144 330.865L305.472 330.865L305.472 0.0576782L-0.197115 0.0576515L-0.197117 25.1956ZM280.334 0.361601L305.168 0.361603L305.168 25.1956L280.334 25.1956L280.334 0.361601ZM280.334 25.8092L305.168 25.8092L305.168 50.6432L280.334 50.6432L280.334 25.8092ZM280.334 51.2568L305.168 51.2568L305.168 76.0909L280.334 76.0908L280.334 51.2568ZM280.334 76.7044L305.168 76.7044L305.168 101.538L280.334 101.538L280.334 76.7044ZM280.334 102.152L305.168 102.152L305.168 126.986L280.334 126.986L280.334 102.152ZM280.334 127.6L305.168 127.6L305.168 152.434L280.334 152.434L280.334 127.6ZM280.334 153.047L305.168 153.047L305.168 177.881L280.334 177.881L280.334 153.047ZM280.334 178.495L305.168 178.495L305.168 203.323L280.334 203.323L280.334 178.489L280.334 178.495ZM280.334 203.942L305.168 203.942L305.168 228.771L280.334 228.771L280.334 203.937L280.334 203.942ZM280.334 229.39L305.168 229.39L305.168 254.218L280.334 254.218L280.334 229.384L280.334 229.39ZM280.334 254.838L305.168 254.838L305.168 279.672L280.334 279.672L280.334 254.832L280.334 254.838ZM280.334 280.285L305.168 280.285L305.168 305.119L280.334 305.119L280.334 280.285ZM280.334 305.733L305.168 305.733L305.168 330.567L280.334 330.567L280.334 305.733ZM254.887 0.367336L279.721 0.367338L279.721 25.2014L254.887 25.2014L254.887 0.367336ZM254.887 25.8149L279.721 25.8149L279.721 50.649L254.887 50.649L254.887 25.8149ZM254.887 51.2625L279.721 51.2625L279.721 76.0966L254.887 76.0966L254.887 51.2625ZM254.887 76.7101L279.721 76.7101L279.721 101.544L254.887 101.544L254.887 76.7101ZM254.887 102.158L279.721 102.158L279.721 126.992L254.887 126.992L254.887 102.158ZM254.887 127.605L279.721 127.605L279.721 152.439L254.887 152.439L254.887 127.605ZM254.887 153.053L279.721 153.053L279.721 177.887L254.887 177.887L254.887 153.053ZM254.887 178.501L279.721 178.501L279.721 203.323L254.887 203.323L254.887 178.489L254.887 178.501ZM254.887 203.948L279.721 203.948L279.721 228.771L254.887 228.771L254.887 203.937L254.887 203.948ZM254.887 229.396L279.721 229.396L279.721 254.218L254.887 254.218L254.887 229.384L254.887 229.396ZM254.887 254.843L279.721 254.843L279.721 279.677L254.887 279.677L254.887 254.832L254.887 254.843ZM254.887 280.291L279.721 280.291L279.721 305.125L254.887 305.125L254.887 280.291ZM254.887 305.738L279.721 305.738L279.721 330.573L254.887 330.573L254.887 305.738ZM229.439 0.373071L254.273 0.373073L254.273 25.2071L229.439 25.2071L229.439 0.373071ZM229.439 25.8207L254.273 25.8207L254.273 50.6547L229.439 50.6547L229.439 25.8207ZM229.439 51.2682L254.273 51.2682L254.273 76.1023L229.439 76.1023L229.439 51.2682ZM229.439 76.7159L254.273 76.7159L254.273 101.55L229.439 101.55L229.439 76.7159ZM229.439 102.163L254.273 102.163L254.273 126.998L229.439 126.998L229.439 102.163ZM229.439 127.611L254.273 127.611L254.273 152.445L229.439 152.445L229.439 127.611ZM229.439 153.059L254.273 153.059L254.273 177.893L229.439 177.893L229.439 153.059ZM229.439 178.506L254.273 178.506L254.273 203.323L229.439 203.323L229.439 178.489L229.439 178.506ZM229.439 203.954L254.273 203.954L254.273 228.771L229.439 228.771L229.439 203.937L229.439 203.954ZM229.439 229.401L254.273 229.401L254.273 254.218L229.439 254.218L229.439 229.384L229.439 229.401ZM229.439 254.849L254.273 254.849L254.273 279.683L229.439 279.683L229.439 254.832L229.439 254.849ZM229.439 280.297L254.273 280.297L254.273 305.131L229.439 305.131L229.439 280.297ZM229.439 305.744L254.273 305.744L254.273 330.578L229.439 330.578L229.439 305.744ZM203.991 0.361594L228.826 0.361596L228.826 25.1956L203.991 25.1956L203.991 0.361594ZM203.991 25.8092L228.826 25.8092L228.826 50.6432L203.991 50.6432L203.991 25.8092ZM203.991 51.2568L228.826 51.2568L228.826 76.0908L203.991 76.0908L203.991 51.2568ZM203.991 76.7044L228.826 76.7044L228.826 101.538L203.991 101.538L203.991 76.7044ZM203.991 102.152L228.826 102.152L228.826 126.986L203.991 126.986L203.991 102.152ZM203.991 127.6L228.826 127.6L228.826 152.434L203.991 152.434L203.991 127.6ZM203.991 153.047L228.826 153.047L228.825 177.881L203.991 177.881L203.991 153.047ZM203.991 178.495L228.825 178.495L228.825 203.323L203.991 203.323L203.991 178.489L203.991 178.495ZM203.991 203.942L228.825 203.942L228.825 228.771L203.991 228.771L203.991 203.937L203.991 203.942ZM203.991 229.39L228.825 229.39L228.825 254.218L203.991 254.218L203.991 229.384L203.991 229.39ZM203.991 254.838L228.825 254.838L228.825 279.672L203.991 279.672L203.991 254.832L203.991 254.838ZM203.991 280.285L228.825 280.285L228.825 305.119L203.991 305.119L203.991 280.285ZM203.991 305.733L228.825 305.733L228.825 330.567L203.991 330.567L203.991 305.733ZM178.544 0.361592L203.378 0.361594L203.378 25.1956L178.544 25.1956L178.544 0.361592ZM178.544 25.8092L203.378 25.8092L203.378 50.6432L178.544 50.6432L178.544 25.8092ZM178.544 51.2568L203.378 51.2568L203.378 76.0908L178.544 76.0908L178.544 51.2568ZM178.544 76.7044L203.378 76.7044L203.378 101.538L178.544 101.538L178.544 76.7044ZM178.544 102.152L203.378 102.152L203.378 126.986L178.544 126.986L178.544 102.152ZM178.544 127.6L203.378 127.6L203.378 152.434L178.544 152.434L178.544 127.6ZM178.544 153.047L203.378 153.047L203.378 177.881L178.544 177.881L178.544 153.047ZM178.544 178.495L203.378 178.495L203.378 203.323L178.544 203.323L178.544 178.489L178.544 178.495ZM178.544 203.942L203.378 203.942L203.378 228.771L178.544 228.771L178.544 203.937L178.544 203.942ZM178.544 229.39L203.378 229.39L203.378 254.218L178.544 254.218L178.544 229.384L178.544 229.39ZM178.544 254.838L203.378 254.838L203.378 279.672L178.544 279.672L178.544 254.832L178.544 254.838ZM178.544 280.285L203.378 280.285L203.378 305.119L178.544 305.119L178.544 280.285ZM178.544 305.733L203.378 305.733L203.378 330.567L178.544 330.567L178.544 305.733ZM153.096 0.361589L177.93 0.361592L177.93 25.1956L153.096 25.1956L153.096 0.361589ZM153.096 25.8092L177.93 25.8092L177.93 50.6432L153.096 50.6432L153.096 25.8092ZM153.096 51.2568L177.93 51.2568L177.93 76.0908L153.096 76.0908L153.096 51.2568ZM153.096 76.7044L177.93 76.7044L177.93 101.538L153.096 101.538L153.096 76.7044ZM153.096 102.152L177.93 102.152L177.93 126.986L153.096 126.986L153.096 102.152ZM153.096 127.6L177.93 127.6L177.93 152.434L153.096 152.434L153.096 127.6ZM153.096 153.047L177.93 153.047L177.93 177.881L153.096 177.881L153.096 153.047ZM153.096 178.489L177.93 178.489L177.93 203.323L153.096 203.323L153.096 178.489ZM153.096 203.937L177.93 203.937L177.93 228.771L153.096 228.771L153.096 203.937ZM153.096 229.384L177.93 229.384L177.93 254.218L153.096 254.218L153.096 229.384ZM153.096 254.832L177.93 254.832L177.93 279.666L153.096 279.666L153.096 254.832ZM153.096 280.279L177.93 280.279L177.93 305.113L153.096 305.113L153.096 280.279ZM153.096 305.727L177.93 305.727L177.93 330.561L153.096 330.561L153.096 305.727ZM127.649 0.361587L152.483 0.361589L152.483 25.1956L127.649 25.1956L127.649 0.361587ZM127.649 25.8092L152.483 25.8092L152.483 50.6432L127.649 50.6432L127.649 25.8092ZM127.649 51.2568L152.483 51.2568L152.483 76.0908L127.649 76.0908L127.649 51.2568ZM127.649 76.7044L152.483 76.7044L152.483 101.538L127.649 101.538L127.649 76.7044ZM127.649 102.152L152.483 102.152L152.483 126.986L127.649 126.986L127.649 102.152ZM127.649 127.6L152.483 127.6L152.483 152.434L127.649 152.434L127.649 127.6ZM127.649 153.047L152.483 153.047L152.483 177.881L127.649 177.881L127.649 153.047ZM127.649 178.495L152.483 178.495L152.483 203.323L127.649 203.323L127.649 178.489L127.649 178.495ZM127.649 203.942L152.483 203.942L152.483 228.771L127.649 228.771L127.649 203.937L127.649 203.942ZM127.649 229.39L152.483 229.39L152.483 254.218L127.649 254.218L127.649 229.384L127.649 229.39ZM127.649 254.838L152.483 254.838L152.483 279.672L127.649 279.672L127.649 254.832L127.649 254.838ZM127.649 280.285L152.483 280.285L152.483 305.119L127.649 305.119L127.649 280.285ZM127.649 305.733L152.483 305.733L152.483 330.567L127.649 330.567L127.649 305.733ZM102.201 0.361585L127.035 0.361587L127.035 25.1956L102.201 25.1956L102.201 0.361585ZM102.201 25.8092L127.035 25.8092L127.035 50.6432L102.201 50.6432L102.201 25.8092ZM102.201 51.2568L127.035 51.2568L127.035 76.0908L102.201 76.0908L102.201 51.2568ZM102.201 76.7044L127.035 76.7044L127.035 101.538L102.201 101.538L102.201 76.7044ZM102.201 102.152L127.035 102.152L127.035 126.986L102.201 126.986L102.201 102.152ZM102.201 127.6L127.035 127.6L127.035 152.434L102.201 152.434L102.201 127.6ZM102.201 153.047L127.035 153.047L127.035 177.881L102.201 177.881L102.201 153.047ZM102.201 178.495L127.035 178.495L127.035 203.323L102.201 203.323L102.201 178.489L102.201 178.495ZM102.201 203.942L127.035 203.942L127.035 228.771L102.201 228.771L102.201 203.937L102.201 203.942ZM102.201 229.39L127.035 229.39L127.035 254.218L102.201 254.218L102.201 229.384L102.201 229.39ZM102.201 254.838L127.035 254.838L127.035 279.672L102.201 279.672L102.201 254.832L102.201 254.838ZM102.201 280.285L127.035 280.285L127.035 305.119L102.201 305.119L102.201 280.285ZM102.201 305.733L127.035 305.733L127.035 330.567L102.201 330.567L102.201 305.733ZM76.7535 0.36732L101.588 0.367322L101.588 25.2014L76.7535 25.2014L76.7535 0.36732ZM76.7535 25.8149L101.588 25.8149L101.588 50.649L76.7535 50.649L76.7535 25.8149ZM76.7535 51.2625L101.588 51.2625L101.588 76.0966L76.7535 76.0966L76.7535 51.2625ZM76.7535 76.7101L101.588 76.7101L101.588 101.544L76.7535 101.544L76.7535 76.7101ZM76.7535 102.158L101.588 102.158L101.588 126.992L76.7535 126.992L76.7535 102.158ZM76.7535 127.605L101.588 127.605L101.588 152.439L76.7534 152.439L76.7535 127.605ZM76.7534 153.053L101.588 153.053L101.588 177.887L76.7534 177.887L76.7534 153.053ZM76.7534 178.5L101.588 178.501L101.588 203.323L76.7534 203.323L76.7534 178.489L76.7534 178.5ZM76.7534 203.948L101.588 203.948L101.588 228.771L76.7534 228.771L76.7534 203.937L76.7534 203.948ZM76.7534 229.396L101.588 229.396L101.588 254.218L76.7534 254.218L76.7534 229.384L76.7534 229.396ZM76.7534 254.843L101.588 254.843L101.588 279.677L76.7534 279.677L76.7534 254.832L76.7534 254.843ZM76.7534 280.291L101.588 280.291L101.588 305.125L76.7534 305.125L76.7534 280.291ZM76.7534 305.738L101.588 305.738L101.588 330.573L76.7534 330.573L76.7534 305.738ZM51.3059 0.373055L76.1399 0.373057L76.1399 25.2071L51.3059 25.2071L51.3059 0.373055ZM51.3059 25.8207L76.1399 25.8207L76.1399 50.6547L51.3059 50.6547L51.3059 25.8207ZM51.3059 51.2682L76.1399 51.2682L76.1399 76.1023L51.3059 76.1023L51.3059 51.2682ZM51.3059 76.7158L76.1399 76.7158L76.1399 101.55L51.3059 101.55L51.3059 76.7158ZM51.3059 102.163L76.1399 102.163L76.1399 126.997L51.3058 126.997L51.3059 102.163ZM51.3058 127.611L76.1399 127.611L76.1399 152.445L51.3058 152.445L51.3058 127.611ZM51.3058 153.059L76.1399 153.059L76.1399 177.893L51.3058 177.893L51.3058 153.059ZM51.3058 178.506L76.1399 178.506L76.1399 203.323L51.3058 203.323L51.3058 178.489L51.3058 178.506ZM51.3058 203.954L76.1399 203.954L76.1399 228.771L51.3058 228.771L51.3058 203.937L51.3058 203.954ZM51.3058 229.401L76.1399 229.401L76.1399 254.218L51.3058 254.218L51.3058 229.384L51.3058 229.401ZM51.3058 254.849L76.1399 254.849L76.1399 279.683L51.3058 279.683L51.3058 254.832L51.3058 254.849ZM51.3058 280.297L76.1399 280.297L76.1399 305.131L51.3058 305.131L51.3058 280.297ZM51.3058 305.744L76.1399 305.744L76.1399 330.578L51.3058 330.578L51.3058 305.744ZM25.8583 0.37879L50.6923 0.378792L50.6923 25.2128L25.8583 25.2128L25.8583 0.37879ZM25.8583 25.8264L50.6923 25.8264L50.6923 50.6604L25.8583 50.6604L25.8583 25.8264ZM25.8583 51.274L50.6923 51.274L50.6923 76.108L25.8583 76.108L25.8583 51.274ZM25.8583 76.7216L50.6923 76.7216L50.6923 101.556L25.8583 101.556L25.8583 76.7216ZM25.8583 102.169L50.6923 102.169L50.6923 127.003L25.8583 127.003L25.8583 102.169ZM25.8583 127.617L50.6923 127.617L50.6923 152.451L25.8583 152.451L25.8583 127.617ZM25.8583 153.064L50.6923 153.064L50.6923 177.898L25.8583 177.898L25.8583 153.064ZM25.8583 178.512L50.6923 178.512L50.6923 203.323L25.8583 203.323L25.8583 178.489L25.8583 178.512ZM25.8583 203.96L50.6923 203.96L50.6923 228.771L25.8583 228.771L25.8583 203.937L25.8583 203.96ZM25.8583 229.407L50.6923 229.407L50.6923 254.218L25.8583 254.218L25.8583 229.384L25.8583 229.407ZM25.8583 254.855L50.6923 254.855L50.6923 279.689L25.8583 279.689L25.8583 254.832L25.8583 254.855ZM25.8583 280.302L50.6923 280.302L50.6923 305.136L25.8582 305.136L25.8583 280.302ZM25.8582 305.75L50.6923 305.75L50.6923 330.584L25.8582 330.584L25.8582 305.75ZM0.410673 0.384525L25.2447 0.384528L25.2447 25.2185L0.410671 25.2185L0.410673 0.384525ZM0.410671 25.8321L25.2447 25.8321L25.2447 50.6662L0.410669 50.6662L0.410671 25.8321ZM0.410669 51.2797L25.2447 51.2797L25.2447 76.1138L0.410667 76.1138L0.410669 51.2797ZM0.410667 76.7273L25.2447 76.7273L25.2447 101.561L0.410665 101.561L0.410667 76.7273ZM0.410665 102.175L25.2447 102.175L25.2447 127.009L0.410662 127.009L0.410665 102.175ZM0.410662 127.623L25.2447 127.623L25.2447 152.457L0.41066 152.457L0.410662 127.623ZM0.41066 153.07L25.2447 153.07L25.2447 177.904L0.410658 177.904L0.41066 153.07ZM0.410658 178.518L25.2447 178.518L25.2447 203.323L0.410656 203.323L0.410658 178.489L0.410658 178.518ZM0.410656 203.965L25.2447 203.965L25.2447 228.771L0.410653 228.771L0.410656 203.937L0.410656 203.965ZM0.410653 229.413L25.2447 229.413L25.2447 254.218L0.410651 254.218L0.410653 229.384L0.410653 229.413ZM0.410651 254.86L25.2447 254.86L25.2447 279.695L0.410649 279.695L0.410651 254.832L0.410651 254.86ZM0.410649 280.308L25.2447 280.308L25.2447 305.142L0.410647 305.142L0.410649 280.308ZM25.2447 305.756L25.2447 330.59L0.410645 330.59L0.410647 305.756L25.2447 305.756Z" fill="#C4C4C4"/>
</g>
<path d="M102.756 108.992C102.756 116.007 108.442 121.693 115.457 121.693C122.471 121.693 128.158 116.007 128.158 108.992L128.158 82.9254C128.158 75.9109 122.471 70.2245 115.457 70.2245C108.442 70.2245 102.756 75.9109 102.756 82.9254L102.756 108.992Z" fill="#C15858"/>
<path d="M76.5693 63.2333C74.9854 70.0666 79.2409 76.8901 86.0743 78.474C92.9076 80.0579 99.7311 75.8024 101.315 68.969C102.899 62.1357 98.6434 55.3122 91.81 53.7283C84.9767 52.1444 78.1532 56.4 76.5693 63.2333Z" fill="#EFEFEF"/>
<path d="M50.3988 52.2142C50.3988 59.2287 56.0852 64.915 63.0997 64.915C70.1142 64.915 75.8005 59.2287 75.8005 52.2142L75.8005 26.1473C75.8005 19.1328 70.1142 13.4464 63.0997 13.4464C56.0852 13.4464 50.3988 19.1328 50.3988 26.1473L50.3988 52.2142Z" fill="#C15858"/>
<path d="M103.393 0L128.794 2.22069e-06L128.794 46.8298C128.794 53.8367 123.106 59.5306 116.093 59.5306C109.086 59.5306 103.393 53.8425 103.393 46.8298L103.393 0Z" fill="#EFEFEF"/>
</svg>
