<svg width="592" height="263" viewBox="0 0 592 263" fill="none" xmlns="http://www.w3.org/2000/svg">
<mask id="path-1-outside-1_236_3177" maskUnits="userSpaceOnUse" x="5" y="30" width="554" height="198" fill="black">
<rect fill="white" x="5" y="30" width="554" height="198"/>
<path d="M13 103V33H45C51.4 33 56.9 34.0333 61.5 36.1C66.1667 38.1667 69.7667 41.1667 72.3 45.1C74.8333 48.9667 76.1 53.5667 76.1 58.9C76.1 64.1667 74.8333 68.7333 72.3 72.6C69.7667 76.4667 66.1667 79.4667 61.5 81.6C56.9 83.6667 51.4 84.7 45 84.7H24L32.8 76.1V103H13ZM32.8 78.2L24 69.1H43.8C47.9333 69.1 51 68.2 53 66.4C55.0667 64.6 56.1 62.1 56.1 58.9C56.1 55.6333 55.0667 53.1 53 51.3C51 49.5 47.9333 48.6 43.8 48.6H24L32.8 39.5V78.2ZM85.7539 103V33H117.754C124.154 33 129.654 34.0333 134.254 36.1C138.921 38.1667 142.521 41.1667 145.054 45.1C147.587 48.9667 148.854 53.5667 148.854 58.9C148.854 64.1667 147.587 68.7333 145.054 72.6C142.521 76.4 138.921 79.3333 134.254 81.4C129.654 83.4 124.154 84.4 117.754 84.4H96.7539L105.554 76.1V103H85.7539ZM129.054 103L111.654 77.5H132.754L150.254 103H129.054ZM105.554 78.2L96.7539 69.1H116.554C120.687 69.1 123.754 68.2 125.754 66.4C127.821 64.6 128.854 62.1 128.854 58.9C128.854 55.6333 127.821 53.1 125.754 51.3C123.754 49.5 120.687 48.6 116.554 48.6H96.7539L105.554 39.5V78.2ZM195.077 104.4C189.477 104.4 184.311 103.5 179.577 101.7C174.844 99.9 170.711 97.3667 167.177 94.1C163.711 90.7667 161.011 86.9 159.077 82.5C157.144 78.1 156.177 73.2667 156.177 68C156.177 62.7333 157.144 57.9 159.077 53.5C161.011 49.1 163.711 45.2667 167.177 42C170.711 38.6667 174.844 36.1 179.577 34.3C184.311 32.5 189.477 31.6 195.077 31.6C200.744 31.6 205.911 32.5 210.577 34.3C215.311 36.1 219.411 38.6667 222.877 42C226.344 45.2667 229.044 49.1 230.977 53.5C232.977 57.9 233.977 62.7333 233.977 68C233.977 73.2667 232.977 78.1333 230.977 82.6C229.044 87 226.344 90.8333 222.877 94.1C219.411 97.3667 215.311 99.9 210.577 101.7C205.911 103.5 200.744 104.4 195.077 104.4ZM195.077 88C197.744 88 200.211 87.5333 202.477 86.6C204.811 85.6667 206.811 84.3333 208.477 82.6C210.211 80.8 211.544 78.6667 212.477 76.2C213.477 73.7333 213.977 71 213.977 68C213.977 64.9333 213.477 62.2 212.477 59.8C211.544 57.3333 210.211 55.2333 208.477 53.5C206.811 51.7 204.811 50.3333 202.477 49.4C200.211 48.4667 197.744 48 195.077 48C192.411 48 189.911 48.4667 187.577 49.4C185.311 50.3333 183.311 51.7 181.577 53.5C179.911 55.2333 178.577 57.3333 177.577 59.8C176.644 62.2 176.177 64.9333 176.177 68C176.177 71 176.644 73.7333 177.577 76.2C178.577 78.6667 179.911 80.8 181.577 82.6C183.311 84.3333 185.311 85.6667 187.577 86.6C189.911 87.5333 192.411 88 195.077 88ZM258.183 104.4C253.049 104.4 248.383 103.533 244.183 101.8C240.049 100 236.616 97.4333 233.883 94.1L244.683 81.3C246.549 83.7 248.483 85.5333 250.483 86.8C252.483 88 254.583 88.6 256.783 88.6C262.649 88.6 265.583 85.2 265.583 78.4V48.3H241.383V33H285.183V77.2C285.183 86.3333 282.883 93.1667 278.283 97.7C273.683 102.167 266.983 104.4 258.183 104.4ZM316.747 60.1H349.247V74.9H316.747V60.1ZM318.147 87.7H354.747V103H298.547V33H353.447V48.3H318.147V87.7ZM400.634 104.4C395.101 104.4 389.968 103.533 385.234 101.8C380.568 100 376.501 97.4667 373.034 94.2C369.634 90.9333 366.968 87.1 365.034 82.7C363.101 78.2333 362.134 73.3333 362.134 68C362.134 62.6667 363.101 57.8 365.034 53.4C366.968 48.9333 369.634 45.0667 373.034 41.8C376.501 38.5333 380.568 36.0333 385.234 34.3C389.968 32.5 395.101 31.6 400.634 31.6C407.101 31.6 412.868 32.7333 417.934 35C423.068 37.2667 427.334 40.5333 430.734 44.8L418.134 56.2C415.868 53.5333 413.368 51.5 410.634 50.1C407.968 48.7 404.968 48 401.634 48C398.768 48 396.134 48.4667 393.734 49.4C391.334 50.3333 389.268 51.7 387.534 53.5C385.868 55.2333 384.534 57.3333 383.534 59.8C382.601 62.2667 382.134 65 382.134 68C382.134 71 382.601 73.7333 383.534 76.2C384.534 78.6667 385.868 80.8 387.534 82.6C389.268 84.3333 391.334 85.6667 393.734 86.6C396.134 87.5333 398.768 88 401.634 88C404.968 88 407.968 87.3 410.634 85.9C413.368 84.5 415.868 82.4667 418.134 79.8L430.734 91.2C427.334 95.4 423.068 98.6667 417.934 101C412.868 103.267 407.101 104.4 400.634 104.4ZM453.877 103V48.7H432.377V33H495.077V48.7H473.677V103H453.877ZM27.9 225V170.7H6.4V155H69.1V170.7H47.7V225H27.9ZM76.4766 225V155H108.477C114.877 155 120.377 156.033 124.977 158.1C129.643 160.167 133.243 163.167 135.777 167.1C138.31 170.967 139.577 175.567 139.577 180.9C139.577 186.167 138.31 190.733 135.777 194.6C133.243 198.4 129.643 201.333 124.977 203.4C120.377 205.4 114.877 206.4 108.477 206.4H87.4766L96.2766 198.1V225H76.4766ZM119.777 225L102.377 199.5H123.477L140.977 225H119.777ZM96.2766 200.2L87.4766 191.1H107.277C111.41 191.1 114.477 190.2 116.477 188.4C118.543 186.6 119.577 184.1 119.577 180.9C119.577 177.633 118.543 175.1 116.477 173.3C114.477 171.5 111.41 170.6 107.277 170.6H87.4766L96.2766 161.5V200.2ZM142.1 225L173 155H192.5L223.5 225H202.9L178.7 164.7H186.5L162.3 225H142.1ZM159 211.4L164.1 196.8H198.3L203.4 211.4H159ZM263.037 226.4C257.503 226.4 252.37 225.533 247.637 223.8C242.97 222 238.903 219.467 235.437 216.2C232.037 212.933 229.37 209.1 227.437 204.7C225.503 200.233 224.537 195.333 224.537 190C224.537 184.667 225.503 179.8 227.437 175.4C229.37 170.933 232.037 167.067 235.437 163.8C238.903 160.533 242.97 158.033 247.637 156.3C252.37 154.5 257.503 153.6 263.037 153.6C269.503 153.6 275.27 154.733 280.337 157C285.47 159.267 289.737 162.533 293.137 166.8L280.537 178.2C278.27 175.533 275.77 173.5 273.037 172.1C270.37 170.7 267.37 170 264.037 170C261.17 170 258.537 170.467 256.137 171.4C253.737 172.333 251.67 173.7 249.937 175.5C248.27 177.233 246.937 179.333 245.937 181.8C245.003 184.267 244.537 187 244.537 190C244.537 193 245.003 195.733 245.937 198.2C246.937 200.667 248.27 202.8 249.937 204.6C251.67 206.333 253.737 207.667 256.137 208.6C258.537 209.533 261.17 210 264.037 210C267.37 210 270.37 209.3 273.037 207.9C275.77 206.5 278.27 204.467 280.537 201.8L293.137 213.2C289.737 217.4 285.47 220.667 280.337 223C275.27 225.267 269.503 226.4 263.037 226.4ZM319.665 209.5L318.565 187.3L348.665 155H370.465L340.465 187.5L329.465 199L319.665 209.5ZM301.965 225V155H321.565V225H301.965ZM348.965 225L326.165 196.1L339.065 182.3L371.965 225H348.965ZM377.16 225V155H396.96V225H377.16ZM411.047 225V155H427.347L465.947 201.6H458.247V155H477.647V225H461.347L422.747 178.4H430.447V225H411.047ZM526.613 226.4C521.08 226.4 515.947 225.533 511.213 223.8C506.48 222 502.38 219.467 498.913 216.2C495.513 212.933 492.847 209.1 490.913 204.7C488.98 200.233 488.013 195.333 488.013 190C488.013 184.667 488.98 179.8 490.913 175.4C492.847 170.933 495.547 167.067 499.013 163.8C502.48 160.533 506.58 158.033 511.313 156.3C516.113 154.5 521.347 153.6 527.013 153.6C533.613 153.6 539.513 154.7 544.713 156.9C549.913 159.1 554.213 162.267 557.613 166.4L545.013 177.8C542.613 175.2 540.013 173.267 537.213 172C534.48 170.667 531.413 170 528.013 170C525.013 170 522.28 170.467 519.813 171.4C517.347 172.333 515.247 173.7 513.513 175.5C511.78 177.233 510.413 179.333 509.413 181.8C508.48 184.2 508.013 186.933 508.013 190C508.013 192.933 508.48 195.633 509.413 198.1C510.413 200.567 511.78 202.7 513.513 204.5C515.247 206.233 517.313 207.6 519.713 208.6C522.18 209.533 524.88 210 527.813 210C530.747 210 533.613 209.533 536.413 208.6C539.213 207.6 542.047 205.933 544.913 203.6L556.013 217.5C552.013 220.367 547.38 222.567 542.113 224.1C536.847 225.633 531.68 226.4 526.613 226.4ZM538.513 214.9V188.5H556.013V217.5L538.513 214.9Z"/>
</mask>
<path d="M13 103H12V104H13V103ZM13 33V32H12V33H13ZM61.5 36.1L61.0902 37.0122L61.0951 37.0143L61.5 36.1ZM72.3 45.1L71.4593 45.6415L71.4635 45.648L72.3 45.1ZM72.3 72.6L73.1365 73.148L72.3 72.6ZM61.5 81.6L61.9098 82.5122L61.9158 82.5095L61.5 81.6ZM24 84.7L23.3011 83.9848L21.546 85.7H24V84.7ZM32.8 76.1H33.8V73.7245L32.1011 75.3848L32.8 76.1ZM32.8 103V104H33.8V103H32.8ZM32.8 78.2L32.0811 78.8952L33.8 80.6726V78.2H32.8ZM24 69.1V68.1H21.6419L23.2811 69.7952L24 69.1ZM53 66.4L52.3432 65.6459L52.3371 65.6513L52.331 65.6567L53 66.4ZM53 51.3L52.331 52.0433L52.3371 52.0487L52.3432 52.0541L53 51.3ZM24 48.6L23.2811 47.9048L21.6419 49.6H24V48.6ZM32.8 39.5H33.8V37.0274L32.0811 38.8048L32.8 39.5ZM13 103H14V33H13H12V103H13ZM13 33V34H45V33V32H13V33ZM45 33V34C51.2954 34 56.6488 35.0168 61.0902 37.0122L61.5 36.1L61.9098 35.1878C57.1512 33.0499 51.5046 32 45 32V33ZM61.5 36.1L61.0951 37.0143C65.6001 39.0094 69.0413 41.8872 71.4593 45.6415L72.3 45.1L73.1407 44.5585C70.4921 40.4461 66.7332 37.3239 61.9049 35.1856L61.5 36.1ZM72.3 45.1L71.4635 45.648C73.8745 49.3279 75.1 53.7307 75.1 58.9H76.1H77.1C77.1 53.4027 75.7922 48.6054 73.1365 44.552L72.3 45.1ZM76.1 58.9H75.1C75.1 63.9999 73.8758 68.37 71.4635 72.052L72.3 72.6L73.1365 73.148C75.7908 69.0966 77.1 64.3335 77.1 58.9H76.1ZM72.3 72.6L71.4635 72.052C69.0447 75.7439 65.5989 78.6267 61.0842 80.6905L61.5 81.6L61.9158 82.5095C66.7345 80.3066 70.4886 77.1894 73.1365 73.148L72.3 72.6ZM61.5 81.6L61.0902 80.6878C56.6488 82.6832 51.2954 83.7 45 83.7V84.7V85.7C51.5046 85.7 57.1512 84.6501 61.9098 82.5122L61.5 81.6ZM45 84.7V83.7H24V84.7V85.7H45V84.7ZM24 84.7L24.6989 85.4152L33.4989 76.8152L32.8 76.1L32.1011 75.3848L23.3011 83.9848L24 84.7ZM32.8 76.1H31.8V103H32.8H33.8V76.1H32.8ZM32.8 103V102H13V103V104H32.8V103ZM32.8 78.2L33.5189 77.5048L24.7189 68.4048L24 69.1L23.2811 69.7952L32.0811 78.8952L32.8 78.2ZM24 69.1V70.1H43.8V69.1V68.1H24V69.1ZM43.8 69.1V70.1C48.0527 70.1 51.4086 69.1777 53.669 67.1433L53 66.4L52.331 65.6567C50.5914 67.2223 47.814 68.1 43.8 68.1V69.1ZM53 66.4L53.6568 67.1541C55.9789 65.1316 57.1 62.3356 57.1 58.9H56.1H55.1C55.1 61.8644 54.1545 64.0684 52.3432 65.6459L53 66.4ZM56.1 58.9H57.1C57.1 55.4051 55.9836 52.5725 53.6568 50.5459L53 51.3L52.3432 52.0541C54.1498 53.6275 55.1 55.8616 55.1 58.9H56.1ZM53 51.3L53.669 50.5567C51.4086 48.5223 48.0527 47.6 43.8 47.6V48.6V49.6C47.814 49.6 50.5914 50.4776 52.331 52.0433L53 51.3ZM43.8 48.6V47.6H24V48.6V49.6H43.8V48.6ZM24 48.6L24.7189 49.2952L33.5189 40.1952L32.8 39.5L32.0811 38.8048L23.2811 47.9048L24 48.6ZM32.8 39.5H31.8V78.2H32.8H33.8V39.5H32.8ZM85.7539 103H84.7539V104H85.7539V103ZM85.7539 33V32H84.7539V33H85.7539ZM134.254 36.1L133.844 37.0122L133.849 37.0143L134.254 36.1ZM145.054 45.1L144.213 45.6415L144.217 45.648L145.054 45.1ZM145.054 72.6L145.886 73.1547L145.89 73.148L145.054 72.6ZM134.254 81.4L134.653 82.3171L134.659 82.3143L134.254 81.4ZM96.7539 84.4L96.0678 83.6725L94.2362 85.4H96.7539V84.4ZM105.554 76.1H106.554V73.7822L104.868 75.3725L105.554 76.1ZM105.554 103V104H106.554V103H105.554ZM129.054 103L128.228 103.564L128.526 104H129.054V103ZM111.654 77.5V76.5H109.761L110.828 78.0636L111.654 77.5ZM132.754 77.5L133.578 76.9342L133.28 76.5H132.754V77.5ZM150.254 103V104H152.153L151.078 102.434L150.254 103ZM105.554 78.2L104.835 78.8952L106.554 80.6726V78.2H105.554ZM96.7539 69.1V68.1H94.3958L96.035 69.7952L96.7539 69.1ZM125.754 66.4L125.097 65.6459L125.091 65.6513L125.085 65.6567L125.754 66.4ZM125.754 51.3L125.085 52.0433L125.091 52.0487L125.097 52.0541L125.754 51.3ZM96.7539 48.6L96.035 47.9048L94.3958 49.6H96.7539V48.6ZM105.554 39.5H106.554V37.0274L104.835 38.8048L105.554 39.5ZM85.7539 103H86.7539V33H85.7539H84.7539V103H85.7539ZM85.7539 33V34H117.754V33V32H85.7539V33ZM117.754 33V34C124.049 34 129.403 35.0168 133.844 37.0122L134.254 36.1L134.664 35.1878C129.905 33.0499 124.258 32 117.754 32V33ZM134.254 36.1L133.849 37.0143C138.354 39.0094 141.795 41.8872 144.213 45.6415L145.054 45.1L145.895 44.5585C143.246 40.4461 139.487 37.3239 134.659 35.1856L134.254 36.1ZM145.054 45.1L144.217 45.648C146.628 49.3279 147.854 53.7307 147.854 58.9H148.854H149.854C149.854 53.4027 148.546 48.6054 145.89 44.552L145.054 45.1ZM148.854 58.9H147.854C147.854 63.9999 146.63 68.37 144.217 72.052L145.054 72.6L145.89 73.148C148.545 69.0966 149.854 64.3335 149.854 58.9H148.854ZM145.054 72.6L144.222 72.0453C141.806 75.6692 138.363 78.4866 133.849 80.4856L134.254 81.4L134.659 82.3143C139.478 80.1801 143.235 77.1308 145.886 73.1547L145.054 72.6ZM134.254 81.4L133.855 80.4829C129.411 82.4154 124.053 83.4 117.754 83.4V84.4V85.4C124.255 85.4 129.897 84.3846 134.653 82.3171L134.254 81.4ZM117.754 84.4V83.4H96.7539V84.4V85.4H117.754V84.4ZM96.7539 84.4L97.44 85.1275L106.24 76.8275L105.554 76.1L104.868 75.3725L96.0678 83.6725L96.7539 84.4ZM105.554 76.1H104.554V103H105.554H106.554V76.1H105.554ZM105.554 103V102H85.7539V103V104H105.554V103ZM129.054 103L129.88 102.436L112.48 76.9364L111.654 77.5L110.828 78.0636L128.228 103.564L129.054 103ZM111.654 77.5V78.5H132.754V77.5V76.5H111.654V77.5ZM132.754 77.5L131.929 78.0658L149.429 103.566L150.254 103L151.078 102.434L133.578 76.9342L132.754 77.5ZM150.254 103V102H129.054V103V104H150.254V103ZM105.554 78.2L106.273 77.5048L97.4728 68.4048L96.7539 69.1L96.035 69.7952L104.835 78.8952L105.554 78.2ZM96.7539 69.1V70.1H116.554V69.1V68.1H96.7539V69.1ZM116.554 69.1V70.1C120.807 70.1 124.162 69.1777 126.423 67.1433L125.754 66.4L125.085 65.6567C123.345 67.2223 120.568 68.1 116.554 68.1V69.1ZM125.754 66.4L126.411 67.1541C128.733 65.1316 129.854 62.3356 129.854 58.9H128.854H127.854C127.854 61.8644 126.908 64.0684 125.097 65.6459L125.754 66.4ZM128.854 58.9H129.854C129.854 55.4051 128.737 52.5725 126.411 50.5459L125.754 51.3L125.097 52.0541C126.904 53.6275 127.854 55.8616 127.854 58.9H128.854ZM125.754 51.3L126.423 50.5567C124.162 48.5223 120.807 47.6 116.554 47.6V48.6V49.6C120.568 49.6 123.345 50.4776 125.085 52.0433L125.754 51.3ZM116.554 48.6V47.6H96.7539V48.6V49.6H116.554V48.6ZM96.7539 48.6L97.4728 49.2952L106.273 40.1952L105.554 39.5L104.835 38.8048L96.035 47.9048L96.7539 48.6ZM105.554 39.5H104.554V78.2H105.554H106.554V39.5H105.554ZM179.577 101.7L179.222 102.635L179.577 101.7ZM167.177 94.1L166.484 94.8208L166.491 94.8276L166.498 94.8343L167.177 94.1ZM159.077 82.5L158.162 82.9023L159.077 82.5ZM159.077 53.5L158.162 53.0977L159.077 53.5ZM167.177 42L167.863 42.7278L167.864 42.7274L167.177 42ZM179.577 34.3L179.222 33.3653L179.577 34.3ZM210.577 34.3L210.217 35.233L210.222 35.2347L210.577 34.3ZM222.877 42L222.184 42.7209L222.192 42.7278L222.877 42ZM230.977 53.5L230.062 53.9023L230.067 53.9138L230.977 53.5ZM230.977 82.6L230.065 82.1913L230.062 82.1977L230.977 82.6ZM222.877 94.1L223.563 94.8278H223.563L222.877 94.1ZM210.577 101.7L210.222 100.765L210.217 100.767L210.577 101.7ZM202.477 86.6L202.106 85.6715L202.097 85.6753L202.477 86.6ZM208.477 82.6L207.757 81.9064L207.757 81.9069L208.477 82.6ZM212.477 76.2L211.551 75.8243L211.546 75.8352L211.542 75.8461L212.477 76.2ZM212.477 59.8L211.542 60.1539L211.548 60.1694L211.554 60.1846L212.477 59.8ZM208.477 53.5L207.744 54.1794L207.757 54.1935L207.77 54.2071L208.477 53.5ZM202.477 49.4L202.097 50.3247L202.106 50.3285L202.477 49.4ZM187.577 49.4L187.206 48.4715L187.197 48.4753L187.577 49.4ZM181.577 53.5L180.857 52.8064L180.857 52.8069L181.577 53.5ZM177.577 59.8L176.651 59.4243L176.648 59.4309L176.645 59.4376L177.577 59.8ZM177.577 76.2L176.642 76.5539L176.646 76.5648L176.651 76.5757L177.577 76.2ZM181.577 82.6L180.844 83.2794L180.857 83.2935L180.87 83.3071L181.577 82.6ZM187.577 86.6L187.197 87.5247L187.206 87.5285L187.577 86.6ZM195.077 104.4V103.4C189.586 103.4 184.541 102.518 179.933 100.765L179.577 101.7L179.222 102.635C184.08 104.482 189.369 105.4 195.077 105.4V104.4ZM179.577 101.7L179.933 100.765C175.313 99.0084 171.291 96.541 167.856 93.3657L167.177 94.1L166.498 94.8343C170.131 98.1923 174.375 100.792 179.222 102.635L179.577 101.7ZM167.177 94.1L167.87 93.3792C164.498 90.1364 161.874 86.3779 159.993 82.0977L159.077 82.5L158.162 82.9023C160.148 87.4221 162.923 91.3969 166.484 94.8208L167.177 94.1ZM159.077 82.5L159.993 82.0977C158.12 77.8362 157.177 73.1416 157.177 68H156.177H155.177C155.177 73.3918 156.168 78.3638 158.162 82.9023L159.077 82.5ZM156.177 68H157.177C157.177 62.8584 158.12 58.1638 159.993 53.9023L159.077 53.5L158.162 53.0977C156.168 57.6362 155.177 62.6082 155.177 68H156.177ZM159.077 53.5L159.993 53.9023C161.873 49.624 164.495 45.9016 167.863 42.7278L167.177 42L166.492 41.2722C162.926 44.6317 160.149 48.576 158.162 53.0977L159.077 53.5ZM167.177 42L167.864 42.7274C171.297 39.488 175.317 36.99 179.933 35.2347L179.577 34.3L179.222 33.3653C174.371 35.21 170.124 37.8453 166.491 41.2726L167.177 42ZM179.577 34.3L179.933 35.2347C184.541 33.4822 189.586 32.6 195.077 32.6V31.6V30.6C189.369 30.6 184.08 31.5178 179.222 33.3653L179.577 34.3ZM195.077 31.6V32.6C200.637 32.6 205.68 33.4828 210.217 35.233L210.577 34.3L210.937 33.367C206.142 31.5172 200.851 30.6 195.077 30.6V31.6ZM210.577 34.3L210.222 35.2347C214.836 36.9894 218.82 39.4857 222.184 42.7208L222.877 42L223.57 41.2792C220.002 37.8476 215.785 35.2106 210.933 33.3653L210.577 34.3ZM222.877 42L222.192 42.7278C225.56 45.9016 228.182 49.624 230.062 53.9023L230.977 53.5L231.893 53.0977C229.906 48.576 227.128 44.6317 223.563 41.2722L222.877 42ZM230.977 53.5L230.067 53.9138C232.003 58.1725 232.977 62.8631 232.977 68H233.977H234.977C234.977 62.6035 233.952 57.6274 231.888 53.0862L230.977 53.5ZM233.977 68H232.977C232.977 73.1367 232.003 77.8628 230.065 82.1913L230.977 82.6L231.89 83.0087C233.952 78.4039 234.977 73.3966 234.977 68H233.977ZM230.977 82.6L230.062 82.1977C228.182 86.476 225.56 90.1984 222.192 93.3722L222.877 94.1L223.563 94.8278C227.128 91.4683 229.906 87.524 231.893 83.0023L230.977 82.6ZM222.877 94.1L222.192 93.3722C218.826 96.5433 214.84 99.0089 210.222 100.765L210.577 101.7L210.933 102.635C215.781 100.791 219.995 98.19 223.563 94.8278L222.877 94.1ZM210.577 101.7L210.217 100.767C205.68 102.517 200.637 103.4 195.077 103.4V104.4V105.4C200.851 105.4 206.142 104.483 210.937 102.633L210.577 101.7ZM195.077 88V89C197.863 89 200.46 88.512 202.858 87.5247L202.477 86.6L202.097 85.6753C199.961 86.5547 197.625 87 195.077 87V88ZM202.477 86.6L202.849 87.5285C205.308 86.5448 207.429 85.1334 209.198 83.2931L208.477 82.6L207.757 81.9069C206.193 83.5332 204.313 84.7885 202.106 85.6715L202.477 86.6ZM208.477 82.6L209.198 83.2936C211.03 81.3908 212.434 79.1401 213.413 76.5539L212.477 76.2L211.542 75.8461C210.654 78.1933 209.391 80.2092 207.757 81.9064L208.477 82.6ZM212.477 76.2L213.404 76.5757C214.458 73.9755 214.977 71.1125 214.977 68H213.977H212.977C212.977 70.8875 212.496 73.4912 211.551 75.8243L212.477 76.2ZM213.977 68H214.977C214.977 64.8246 214.459 61.9571 213.4 59.4154L212.477 59.8L211.554 60.1846C212.495 62.4429 212.977 65.042 212.977 68H213.977ZM212.477 59.8L213.413 59.4461C212.433 56.8571 211.025 54.6339 209.184 52.7929L208.477 53.5L207.77 54.2071C209.396 55.8328 210.655 57.8096 211.542 60.1539L212.477 59.8ZM208.477 53.5L209.211 52.8206C207.441 50.909 205.316 49.4586 202.849 48.4715L202.477 49.4L202.106 50.3285C204.305 51.2081 206.18 52.491 207.744 54.1794L208.477 53.5ZM202.477 49.4L202.858 48.4753C200.46 47.488 197.863 47 195.077 47V48V49C197.625 49 199.961 49.4453 202.097 50.3247L202.477 49.4ZM195.077 48V47C192.291 47 189.665 47.4881 187.206 48.4715L187.577 49.4L187.949 50.3285C190.157 49.4452 192.53 49 195.077 49V48ZM187.577 49.4L187.197 48.4753C184.799 49.4624 182.684 50.9087 180.857 52.8064L181.577 53.5L182.298 54.1936C183.937 52.4913 185.822 51.2043 187.958 50.3247L187.577 49.4ZM181.577 53.5L180.857 52.8069C179.093 54.6413 177.693 56.8523 176.651 59.4243L177.577 59.8L178.504 60.1757C179.461 57.8144 180.729 55.8254 182.298 54.1931L181.577 53.5ZM177.577 59.8L176.645 59.4376C175.659 61.9729 175.177 64.8325 175.177 68H176.177H177.177C177.177 65.0342 177.629 62.4271 178.509 60.1624L177.577 59.8ZM176.177 68H175.177C175.177 71.1044 175.66 73.9597 176.642 76.5539L177.577 76.2L178.513 75.8461C177.628 73.507 177.177 70.8955 177.177 68H176.177ZM177.577 76.2L176.651 76.5757C177.692 79.1449 179.088 81.3834 180.844 83.2794L181.577 82.6L182.311 81.9206C180.733 80.2166 179.463 78.1884 178.504 75.8243L177.577 76.2ZM181.577 82.6L180.87 83.3071C182.697 85.1338 184.808 86.5411 187.197 87.5247L187.577 86.6L187.958 85.6753C185.814 84.7923 183.924 83.5329 182.284 81.8929L181.577 82.6ZM187.577 86.6L187.206 87.5285C189.665 88.5119 192.291 89 195.077 89V88V87C192.53 87 190.157 86.5548 187.949 85.6715L187.577 86.6ZM244.183 101.8L243.784 102.717L243.792 102.721L243.801 102.724L244.183 101.8ZM233.883 94.1L233.119 93.4551L232.582 94.0909L233.11 94.7341L233.883 94.1ZM244.683 81.3L245.472 80.6861L244.714 79.7118L243.919 80.6551L244.683 81.3ZM250.483 86.8L249.948 87.6448L249.958 87.6513L249.968 87.6575L250.483 86.8ZM265.583 48.3H266.583V47.3H265.583V48.3ZM241.383 48.3H240.383V49.3H241.383V48.3ZM241.383 33V32H240.383V33H241.383ZM285.183 33H286.183V32H285.183V33ZM278.283 97.7L278.979 98.4174L278.985 98.4122L278.283 97.7ZM258.183 104.4V103.4C253.163 103.4 248.629 102.553 244.564 100.876L244.183 101.8L243.801 102.724C248.137 104.514 252.936 105.4 258.183 105.4V104.4ZM244.183 101.8L244.582 100.883C240.587 99.1435 237.284 96.671 234.656 93.4659L233.883 94.1L233.11 94.7341C235.948 98.1956 239.512 100.857 243.784 102.717L244.183 101.8ZM233.883 94.1L234.647 94.7449L245.447 81.9449L244.683 81.3L243.919 80.6551L233.119 93.4551L233.883 94.1ZM244.683 81.3L243.893 81.9139C245.812 84.3804 247.827 86.3017 249.948 87.6448L250.483 86.8L251.018 85.9552C249.139 84.765 247.287 83.0196 245.472 80.6861L244.683 81.3ZM250.483 86.8L249.968 87.6575C252.114 88.9449 254.391 89.6 256.783 89.6V88.6V87.6C254.775 87.6 252.852 87.0551 250.997 85.9425L250.483 86.8ZM256.783 88.6V89.6C259.912 89.6 262.429 88.6864 264.14 86.7032C265.827 84.7483 266.583 81.9209 266.583 78.4H265.583H264.583C264.583 81.6791 263.872 83.9517 262.626 85.3968C261.403 86.8136 259.52 87.6 256.783 87.6V88.6ZM265.583 78.4H266.583V48.3H265.583H264.583V78.4H265.583ZM265.583 48.3V47.3H241.383V48.3V49.3H265.583V48.3ZM241.383 48.3H242.383V33H241.383H240.383V48.3H241.383ZM241.383 33V34H285.183V33V32H241.383V33ZM285.183 33H284.183V77.2H285.183H286.183V33H285.183ZM285.183 77.2H284.183C284.183 86.178 281.923 92.7088 277.581 96.9877L278.283 97.7L278.985 98.4122C283.843 93.6245 286.183 86.4887 286.183 77.2H285.183ZM278.283 97.7L277.586 96.9826C273.233 101.209 266.821 103.4 258.183 103.4V104.4V105.4C267.144 105.4 274.132 103.124 278.979 98.4174L278.283 97.7ZM316.747 60.1V59.1H315.747V60.1H316.747ZM349.247 60.1H350.247V59.1H349.247V60.1ZM349.247 74.9V75.9H350.247V74.9H349.247ZM316.747 74.9H315.747V75.9H316.747V74.9ZM318.147 87.7H317.147V88.7H318.147V87.7ZM354.747 87.7H355.747V86.7H354.747V87.7ZM354.747 103V104H355.747V103H354.747ZM298.547 103H297.547V104H298.547V103ZM298.547 33V32H297.547V33H298.547ZM353.447 33H354.447V32H353.447V33ZM353.447 48.3V49.3H354.447V48.3H353.447ZM318.147 48.3V47.3H317.147V48.3H318.147ZM316.747 60.1V61.1H349.247V60.1V59.1H316.747V60.1ZM349.247 60.1H348.247V74.9H349.247H350.247V60.1H349.247ZM349.247 74.9V73.9H316.747V74.9V75.9H349.247V74.9ZM316.747 74.9H317.747V60.1H316.747H315.747V74.9H316.747ZM318.147 87.7V88.7H354.747V87.7V86.7H318.147V87.7ZM354.747 87.7H353.747V103H354.747H355.747V87.7H354.747ZM354.747 103V102H298.547V103V104H354.747V103ZM298.547 103H299.547V33H298.547H297.547V103H298.547ZM298.547 33V34H353.447V33V32H298.547V33ZM353.447 33H352.447V48.3H353.447H354.447V33H353.447ZM353.447 48.3V47.3H318.147V48.3V49.3H353.447V48.3ZM318.147 48.3H317.147V87.7H318.147H319.147V48.3H318.147ZM385.234 101.8L384.875 102.733L384.882 102.736L384.891 102.739L385.234 101.8ZM373.034 94.2L372.342 94.9211L372.349 94.9278L373.034 94.2ZM365.034 82.7L364.117 83.0972L364.119 83.1023L365.034 82.7ZM365.034 53.4L365.95 53.8023L365.952 53.7972L365.034 53.4ZM373.034 41.8L372.349 41.0722L372.342 41.0789L373.034 41.8ZM385.234 34.3L385.583 35.2374L385.59 35.2347L385.234 34.3ZM417.934 35L417.526 35.9128L417.53 35.9148L417.934 35ZM430.734 44.8L431.405 45.5415L432.102 44.9114L431.516 44.1768L430.734 44.8ZM418.134 56.2L417.372 56.8476L418.04 57.6335L418.805 56.9415L418.134 56.2ZM410.634 50.1L410.17 50.9854L410.178 50.99L410.634 50.1ZM393.734 49.4L394.097 50.332L393.734 49.4ZM387.534 53.5L386.814 52.8064L386.814 52.8069L387.534 53.5ZM383.534 59.8L382.608 59.4243L382.603 59.4352L382.599 59.4461L383.534 59.8ZM383.534 76.2L382.599 76.5539L382.603 76.5648L382.608 76.5757L383.534 76.2ZM387.534 82.6L386.801 83.2794L386.814 83.2935L386.827 83.3071L387.534 82.6ZM393.734 86.6L394.097 85.668L393.734 86.6ZM410.634 85.9L410.178 85.0099L410.17 85.0146L410.634 85.9ZM418.134 79.8L418.805 79.0585L418.04 78.3665L417.372 79.1524L418.134 79.8ZM430.734 91.2L431.512 91.8292L432.107 91.0935L431.405 90.4585L430.734 91.2ZM417.934 101L418.343 101.913L418.348 101.91L417.934 101ZM400.634 104.4V103.4C395.207 103.4 390.191 102.55 385.578 100.861L385.234 101.8L384.891 102.739C389.744 104.516 394.995 105.4 400.634 105.4V104.4ZM385.234 101.8L385.594 100.867C381.042 99.1113 377.088 96.6456 373.72 93.4722L373.034 94.2L372.349 94.9278C375.914 98.2877 380.093 100.889 384.875 102.733L385.234 101.8ZM373.034 94.2L373.727 93.4789C370.423 90.3047 367.832 86.5803 365.95 82.2977L365.034 82.7L364.119 83.1023C366.104 87.6197 368.845 91.562 372.342 94.9211L373.034 94.2ZM365.034 82.7L365.952 82.3028C364.078 77.9731 363.134 73.2099 363.134 68H362.134H361.134C361.134 73.4568 362.124 78.4936 364.117 83.0972L365.034 82.7ZM362.134 68H363.134C363.134 62.7899 364.078 58.0622 365.95 53.8023L365.034 53.4L364.119 52.9977C362.124 57.5378 361.134 62.5434 361.134 68H362.134ZM365.034 53.4L365.952 53.7972C367.834 49.4484 370.426 45.6928 373.727 42.5211L373.034 41.8L372.342 41.0789C368.843 44.4405 366.101 48.4183 364.117 53.0028L365.034 53.4ZM373.034 41.8L373.72 42.5278C377.085 39.357 381.036 36.9263 385.583 35.2374L385.234 34.3L384.886 33.3626C380.1 35.1404 375.917 37.7097 372.349 41.0722L373.034 41.8ZM385.234 34.3L385.59 35.2347C390.2 33.4817 395.211 32.6 400.634 32.6V31.6V30.6C394.991 30.6 389.736 31.5183 384.879 33.3653L385.234 34.3ZM400.634 31.6V32.6C406.983 32.6 412.607 33.7123 417.526 35.9128L417.934 35L418.343 34.0872C413.128 31.7543 407.219 30.6 400.634 30.6V31.6ZM417.934 35L417.53 35.9148C422.52 38.1182 426.656 41.2865 429.952 45.4232L430.734 44.8L431.516 44.1768C428.013 39.7801 423.615 36.4152 418.338 34.0852L417.934 35ZM430.734 44.8L430.063 44.0585L417.463 55.4585L418.134 56.2L418.805 56.9415L431.405 45.5415L430.734 44.8ZM418.134 56.2L418.896 55.5523C416.556 52.7995 413.956 50.6776 411.09 49.21L410.634 50.1L410.178 50.99C412.78 52.3223 415.179 54.2672 417.372 56.8476L418.134 56.2ZM410.634 50.1L411.099 49.2146C408.274 47.7316 405.112 47 401.634 47V48V49C404.823 49 407.661 49.6684 410.17 50.9854L410.634 50.1ZM401.634 48V47C398.658 47 395.9 47.4849 393.372 48.468L393.734 49.4L394.097 50.332C396.369 49.4484 398.878 49 401.634 49V48ZM393.734 49.4L393.372 48.468C390.841 49.4522 388.651 50.8987 386.814 52.8064L387.534 53.5L388.255 54.1936C389.884 52.5013 391.828 51.2144 394.097 50.332L393.734 49.4ZM387.534 53.5L386.814 52.8069C385.05 54.6413 383.65 56.8523 382.608 59.4243L383.534 59.8L384.461 60.1757C385.418 57.8144 386.686 55.8254 388.255 54.1931L387.534 53.5ZM383.534 59.8L382.599 59.4461C381.617 62.0403 381.134 64.8955 381.134 68H382.134H383.134C383.134 65.1044 383.585 62.493 384.47 60.1539L383.534 59.8ZM382.134 68H381.134C381.134 71.1044 381.617 73.9597 382.599 76.5539L383.534 76.2L384.47 75.8461C383.585 73.507 383.134 70.8955 383.134 68H382.134ZM383.534 76.2L382.608 76.5757C383.649 79.1449 385.045 81.3834 386.801 83.2794L387.534 82.6L388.268 81.9206C386.69 80.2166 385.42 78.1884 384.461 75.8243L383.534 76.2ZM387.534 82.6L386.827 83.3071C388.664 85.1434 390.849 86.551 393.372 87.532L393.734 86.6L394.097 85.668C391.819 84.7823 389.872 83.5232 388.241 81.8929L387.534 82.6ZM393.734 86.6L393.372 87.532C395.9 88.5151 398.658 89 401.634 89V88V87C398.878 87 396.369 86.5516 394.097 85.668L393.734 86.6ZM401.634 88V89C405.112 89 408.274 88.2684 411.099 86.7854L410.634 85.9L410.17 85.0146C407.661 86.3316 404.823 87 401.634 87V88ZM410.634 85.9L411.09 86.79C413.956 85.3223 416.556 83.2005 418.896 80.4476L418.134 79.8L417.372 79.1524C415.179 81.7328 412.78 83.6777 410.178 85.01L410.634 85.9ZM418.134 79.8L417.463 80.5415L430.063 91.9415L430.734 91.2L431.405 90.4585L418.805 79.0585L418.134 79.8ZM430.734 91.2L429.957 90.5708C426.659 94.6448 422.519 97.8177 417.521 100.09L417.934 101L418.348 101.91C423.617 99.5157 428.01 96.1552 431.512 91.8292L430.734 91.2ZM417.934 101L417.526 100.087C412.607 102.288 406.983 103.4 400.634 103.4V104.4V105.4C407.219 105.4 413.128 104.246 418.343 101.913L417.934 101ZM453.877 103H452.877V104H453.877V103ZM453.877 48.7H454.877V47.7H453.877V48.7ZM432.377 48.7H431.377V49.7H432.377V48.7ZM432.377 33V32H431.377V33H432.377ZM495.077 33H496.077V32H495.077V33ZM495.077 48.7V49.7H496.077V48.7H495.077ZM473.677 48.7V47.7H472.677V48.7H473.677ZM473.677 103V104H474.677V103H473.677ZM453.877 103H454.877V48.7H453.877H452.877V103H453.877ZM453.877 48.7V47.7H432.377V48.7V49.7H453.877V48.7ZM432.377 48.7H433.377V33H432.377H431.377V48.7H432.377ZM432.377 33V34H495.077V33V32H432.377V33ZM495.077 33H494.077V48.7H495.077H496.077V33H495.077ZM495.077 48.7V47.7H473.677V48.7V49.7H495.077V48.7ZM473.677 48.7H472.677V103H473.677H474.677V48.7H473.677ZM473.677 103V102H453.877V103V104H473.677V103ZM27.9 225H26.9V226H27.9V225ZM27.9 170.7H28.9V169.7H27.9V170.7ZM6.4 170.7H5.4V171.7H6.4V170.7ZM6.4 155V154H5.4V155H6.4ZM69.1 155H70.1V154H69.1V155ZM69.1 170.7V171.7H70.1V170.7H69.1ZM47.7 170.7V169.7H46.7V170.7H47.7ZM47.7 225V226H48.7V225H47.7ZM27.9 225H28.9V170.7H27.9H26.9V225H27.9ZM27.9 170.7V169.7H6.4V170.7V171.7H27.9V170.7ZM6.4 170.7H7.4V155H6.4H5.4V170.7H6.4ZM6.4 155V156H69.1V155V154H6.4V155ZM69.1 155H68.1V170.7H69.1H70.1V155H69.1ZM69.1 170.7V169.7H47.7V170.7V171.7H69.1V170.7ZM47.7 170.7H46.7V225H47.7H48.7V170.7H47.7ZM47.7 225V224H27.9V225V226H47.7V225ZM76.4766 225H75.4766V226H76.4766V225ZM76.4766 155V154H75.4766V155H76.4766ZM124.977 158.1L124.567 159.012L124.572 159.014L124.977 158.1ZM135.777 167.1L134.936 167.641L134.94 167.648L135.777 167.1ZM135.777 194.6L136.609 195.155L136.613 195.148L135.777 194.6ZM124.977 203.4L125.375 204.317L125.381 204.314L124.977 203.4ZM87.4766 206.4L86.7904 205.673L84.9589 207.4H87.4766V206.4ZM96.2766 198.1H97.2766V195.782L95.5904 197.373L96.2766 198.1ZM96.2766 225V226H97.2766V225H96.2766ZM119.777 225L118.951 225.564L119.248 226H119.777V225ZM102.377 199.5V198.5H100.484L101.551 200.064L102.377 199.5ZM123.477 199.5L124.301 198.934L124.003 198.5H123.477V199.5ZM140.977 225V226H142.876L141.801 224.434L140.977 225ZM96.2766 200.2L95.5577 200.895L97.2766 202.673V200.2H96.2766ZM87.4766 191.1V190.1H85.1184L86.7577 191.795L87.4766 191.1ZM116.477 188.4L115.82 187.646L115.814 187.651L115.808 187.657L116.477 188.4ZM116.477 173.3L115.808 174.043L115.814 174.049L115.82 174.054L116.477 173.3ZM87.4766 170.6L86.7577 169.905L85.1184 171.6H87.4766V170.6ZM96.2766 161.5H97.2766V159.027L95.5577 160.805L96.2766 161.5ZM76.4766 225H77.4766V155H76.4766H75.4766V225H76.4766ZM76.4766 155V156H108.477V155V154H76.4766V155ZM108.477 155V156C114.772 156 120.125 157.017 124.567 159.012L124.977 158.1L125.386 157.188C120.628 155.05 114.981 154 108.477 154V155ZM124.977 158.1L124.572 159.014C129.077 161.009 132.518 163.887 134.936 167.641L135.777 167.1L136.617 166.559C133.969 162.446 130.21 159.324 125.381 157.186L124.977 158.1ZM135.777 167.1L134.94 167.648C137.351 171.328 138.577 175.731 138.577 180.9H139.577H140.577C140.577 175.403 139.269 170.605 136.613 166.552L135.777 167.1ZM139.577 180.9H138.577C138.577 186 137.352 190.37 134.94 194.052L135.777 194.6L136.613 195.148C139.267 191.097 140.577 186.333 140.577 180.9H139.577ZM135.777 194.6L134.945 194.045C132.529 197.669 129.086 200.487 124.572 202.486L124.977 203.4L125.381 204.314C130.201 202.18 133.958 199.131 136.609 195.155L135.777 194.6ZM124.977 203.4L124.578 202.483C120.133 204.415 114.776 205.4 108.477 205.4V206.4V207.4C114.977 207.4 120.62 206.385 125.375 204.317L124.977 203.4ZM108.477 206.4V205.4H87.4766V206.4V207.4H108.477V206.4ZM87.4766 206.4L88.1627 207.127L96.9627 198.827L96.2766 198.1L95.5904 197.373L86.7904 205.673L87.4766 206.4ZM96.2766 198.1H95.2766V225H96.2766H97.2766V198.1H96.2766ZM96.2766 225V224H76.4766V225V226H96.2766V225ZM119.777 225L120.603 224.436L103.203 198.936L102.377 199.5L101.551 200.064L118.951 225.564L119.777 225ZM102.377 199.5V200.5H123.477V199.5V198.5H102.377V199.5ZM123.477 199.5L122.652 200.066L140.152 225.566L140.977 225L141.801 224.434L124.301 198.934L123.477 199.5ZM140.977 225V224H119.777V225V226H140.977V225ZM96.2766 200.2L96.9954 199.505L88.1954 190.405L87.4766 191.1L86.7577 191.795L95.5577 200.895L96.2766 200.2ZM87.4766 191.1V192.1H107.277V191.1V190.1H87.4766V191.1ZM107.277 191.1V192.1C111.529 192.1 114.885 191.178 117.146 189.143L116.477 188.4L115.808 187.657C114.068 189.222 111.291 190.1 107.277 190.1V191.1ZM116.477 188.4L117.133 189.154C119.455 187.132 120.577 184.336 120.577 180.9H119.577H118.577C118.577 183.864 117.631 186.068 115.82 187.646L116.477 188.4ZM119.577 180.9H120.577C120.577 177.405 119.46 174.572 117.133 172.546L116.477 173.3L115.82 174.054C117.626 175.628 118.577 177.862 118.577 180.9H119.577ZM116.477 173.3L117.146 172.557C114.885 170.522 111.529 169.6 107.277 169.6V170.6V171.6C111.291 171.6 114.068 172.478 115.808 174.043L116.477 173.3ZM107.277 170.6V169.6H87.4766V170.6V171.6H107.277V170.6ZM87.4766 170.6L88.1954 171.295L96.9954 162.195L96.2766 161.5L95.5577 160.805L86.7577 169.905L87.4766 170.6ZM96.2766 161.5H95.2766V200.2H96.2766H97.2766V161.5H96.2766ZM142.1 225L141.185 224.596L140.565 226H142.1V225ZM173 155V154H172.348L172.085 154.596L173 155ZM192.5 155L193.414 154.595L193.151 154H192.5V155ZM223.5 225V226H225.037L224.414 224.595L223.5 225ZM202.9 225L201.972 225.372L202.224 226H202.9V225ZM178.7 164.7V163.7H177.221L177.772 165.072L178.7 164.7ZM186.5 164.7L187.428 165.072L187.979 163.7H186.5V164.7ZM162.3 225V226H162.976L163.228 225.372L162.3 225ZM159 211.4L158.056 211.07L157.591 212.4H159V211.4ZM164.1 196.8V195.8H163.39L163.156 196.47L164.1 196.8ZM198.3 196.8L199.244 196.47L199.01 195.8H198.3V196.8ZM203.4 211.4V212.4H204.809L204.344 211.07L203.4 211.4ZM142.1 225L143.015 225.404L173.915 155.404L173 155L172.085 154.596L141.185 224.596L142.1 225ZM173 155V156H192.5V155V154H173V155ZM192.5 155L191.586 155.405L222.586 225.405L223.5 225L224.414 224.595L193.414 154.595L192.5 155ZM223.5 225V224H202.9V225V226H223.5V225ZM202.9 225L203.828 224.628L179.628 164.328L178.7 164.7L177.772 165.072L201.972 225.372L202.9 225ZM178.7 164.7V165.7H186.5V164.7V163.7H178.7V164.7ZM186.5 164.7L185.572 164.328L161.372 224.628L162.3 225L163.228 225.372L187.428 165.072L186.5 164.7ZM162.3 225V224H142.1V225V226H162.3V225ZM159 211.4L159.944 211.73L165.044 197.13L164.1 196.8L163.156 196.47L158.056 211.07L159 211.4ZM164.1 196.8V197.8H198.3V196.8V195.8H164.1V196.8ZM198.3 196.8L197.356 197.13L202.456 211.73L203.4 211.4L204.344 211.07L199.244 196.47L198.3 196.8ZM203.4 211.4V210.4H159V211.4V212.4H203.4V211.4ZM247.637 223.8L247.277 224.733L247.285 224.736L247.293 224.739L247.637 223.8ZM235.437 216.2L234.744 216.921L234.751 216.928L235.437 216.2ZM227.437 204.7L226.519 205.097L226.521 205.102L227.437 204.7ZM227.437 175.4L228.352 175.802L228.354 175.797L227.437 175.4ZM235.437 163.8L234.751 163.072L234.744 163.079L235.437 163.8ZM247.637 156.3L247.985 157.237L247.992 157.235L247.637 156.3ZM280.337 157L279.928 157.913L279.933 157.915L280.337 157ZM293.137 166.8L293.808 167.542L294.504 166.911L293.919 166.177L293.137 166.8ZM280.537 178.2L279.775 178.848L280.443 179.634L281.208 178.942L280.537 178.2ZM273.037 172.1L272.572 172.985L272.581 172.99L273.037 172.1ZM256.137 171.4L256.499 172.332L256.137 171.4ZM249.937 175.5L249.216 174.806L249.216 174.807L249.937 175.5ZM245.937 181.8L245.01 181.424L245.006 181.435L245.001 181.446L245.937 181.8ZM245.937 198.2L245.001 198.554L245.006 198.565L245.01 198.576L245.937 198.2ZM249.937 204.6L249.203 205.279L249.216 205.294L249.23 205.307L249.937 204.6ZM256.137 208.6L256.499 207.668L256.137 208.6ZM273.037 207.9L272.581 207.01L272.572 207.015L273.037 207.9ZM280.537 201.8L281.208 201.058L280.443 200.366L279.775 201.152L280.537 201.8ZM293.137 213.2L293.914 213.829L294.51 213.094L293.808 212.458L293.137 213.2ZM280.337 223L280.745 223.913L280.751 223.91L280.337 223ZM263.037 226.4V225.4C257.609 225.4 252.594 224.55 247.981 222.861L247.637 223.8L247.293 224.739C252.147 226.516 257.398 227.4 263.037 227.4V226.4ZM247.637 223.8L247.997 222.867C243.445 221.111 239.49 218.646 236.123 215.472L235.437 216.2L234.751 216.928C238.317 220.288 242.495 222.889 247.277 224.733L247.637 223.8ZM235.437 216.2L236.13 215.479C232.826 212.305 230.234 208.58 228.352 204.298L227.437 204.7L226.521 205.102C228.506 209.62 231.248 213.562 234.744 216.921L235.437 216.2ZM227.437 204.7L228.354 204.303C226.48 199.973 225.537 195.21 225.537 190H224.537H223.537C223.537 195.457 224.526 200.494 226.519 205.097L227.437 204.7ZM224.537 190H225.537C225.537 184.79 226.48 180.062 228.352 175.802L227.437 175.4L226.521 174.998C224.526 179.538 223.537 184.543 223.537 190H224.537ZM227.437 175.4L228.354 175.797C230.237 171.448 232.828 167.693 236.13 164.521L235.437 163.8L234.744 163.079C231.245 166.441 228.503 170.418 226.519 175.003L227.437 175.4ZM235.437 163.8L236.123 164.528C239.487 161.357 243.438 158.926 247.985 157.237L247.637 156.3L247.289 155.363C242.502 157.14 238.319 159.71 234.751 163.072L235.437 163.8ZM247.637 156.3L247.992 157.235C252.602 155.482 257.614 154.6 263.037 154.6V153.6V152.6C257.393 152.6 252.138 153.518 247.281 155.365L247.637 156.3ZM263.037 153.6V154.6C269.386 154.6 275.01 155.712 279.928 157.913L280.337 157L280.745 156.087C275.53 153.754 269.621 152.6 263.037 152.6V153.6ZM280.337 157L279.933 157.915C284.923 160.118 289.058 163.287 292.355 167.423L293.137 166.8L293.919 166.177C290.415 161.78 286.017 158.415 280.741 156.085L280.337 157ZM293.137 166.8L292.466 166.058L279.866 177.458L280.537 178.2L281.208 178.942L293.808 167.542L293.137 166.8ZM280.537 178.2L281.299 177.552C278.959 174.799 276.358 172.678 273.493 171.21L273.037 172.1L272.581 172.99C275.182 174.322 277.581 176.267 279.775 178.848L280.537 178.2ZM273.037 172.1L273.502 171.215C270.677 169.732 267.514 169 264.037 169V170V171C267.226 171 270.063 171.668 272.572 172.985L273.037 172.1ZM264.037 170V169C261.06 169 258.302 169.485 255.774 170.468L256.137 171.4L256.499 172.332C258.771 171.448 261.28 171 264.037 171V170ZM256.137 171.4L255.774 170.468C253.243 171.452 251.053 172.899 249.216 174.806L249.937 175.5L250.657 176.194C252.287 174.501 254.23 173.214 256.499 172.332L256.137 171.4ZM249.937 175.5L249.216 174.807C247.452 176.641 246.053 178.852 245.01 181.424L245.937 181.8L246.863 182.176C247.821 179.814 249.088 177.825 250.658 176.193L249.937 175.5ZM245.937 181.8L245.001 181.446C244.02 184.04 243.537 186.896 243.537 190H244.537H245.537C245.537 187.104 245.987 184.493 246.872 182.154L245.937 181.8ZM244.537 190H243.537C243.537 193.104 244.02 195.96 245.001 198.554L245.937 198.2L246.872 197.846C245.987 195.507 245.537 192.896 245.537 190H244.537ZM245.937 198.2L245.01 198.576C246.052 201.145 247.447 203.383 249.203 205.279L249.937 204.6L250.67 203.921C249.093 202.217 247.822 200.188 246.863 197.824L245.937 198.2ZM249.937 204.6L249.23 205.307C251.066 207.143 253.252 208.551 255.774 209.532L256.137 208.6L256.499 207.668C254.222 206.782 252.274 205.523 250.644 203.893L249.937 204.6ZM256.137 208.6L255.774 209.532C258.302 210.515 261.06 211 264.037 211V210V209C261.28 209 258.771 208.552 256.499 207.668L256.137 208.6ZM264.037 210V211C267.514 211 270.677 210.268 273.502 208.785L273.037 207.9L272.572 207.015C270.063 208.332 267.226 209 264.037 209V210ZM273.037 207.9L273.493 208.79C276.358 207.322 278.959 205.201 281.299 202.448L280.537 201.8L279.775 201.152C277.581 203.733 275.182 205.678 272.581 207.01L273.037 207.9ZM280.537 201.8L279.866 202.542L292.466 213.942L293.137 213.2L293.808 212.458L281.208 201.058L280.537 201.8ZM293.137 213.2L292.359 212.571C289.061 216.645 284.921 219.818 279.923 222.09L280.337 223L280.751 223.91C286.019 221.516 290.412 218.155 293.914 213.829L293.137 213.2ZM280.337 223L279.928 222.087C275.01 224.288 269.386 225.4 263.037 225.4V226.4V227.4C269.621 227.4 275.53 226.246 280.745 223.913L280.337 223ZM319.665 209.5L318.666 209.549L318.783 211.91L320.396 210.182L319.665 209.5ZM318.565 187.3L317.833 186.618L317.545 186.927L317.566 187.349L318.565 187.3ZM348.665 155V154H348.23L347.933 154.318L348.665 155ZM370.465 155L371.2 155.678L372.749 154H370.465V155ZM340.465 187.5L341.188 188.191L341.194 188.185L341.2 188.178L340.465 187.5ZM329.465 199L328.742 198.309L328.734 198.318L329.465 199ZM301.965 225H300.965V226H301.965V225ZM301.965 155V154H300.965V155H301.965ZM321.565 155H322.565V154H321.565V155ZM321.565 225V226H322.565V225H321.565ZM348.965 225L348.18 225.619L348.48 226H348.965V225ZM326.165 196.1L325.434 195.417L324.848 196.045L325.38 196.719L326.165 196.1ZM339.065 182.3L339.857 181.69L339.138 180.757L338.334 181.617L339.065 182.3ZM371.965 225V226H373.998L372.757 224.39L371.965 225ZM319.665 209.5L320.664 209.451L319.564 187.251L318.565 187.3L317.566 187.349L318.666 209.549L319.665 209.5ZM318.565 187.3L319.296 187.982L349.396 155.682L348.665 155L347.933 154.318L317.833 186.618L318.565 187.3ZM348.665 155V156H370.465V155V154H348.665V155ZM370.465 155L369.73 154.322L339.73 186.822L340.465 187.5L341.2 188.178L371.2 155.678L370.465 155ZM340.465 187.5L339.742 186.809L328.742 198.309L329.465 199L330.188 199.691L341.188 188.191L340.465 187.5ZM329.465 199L328.734 198.318L318.934 208.818L319.665 209.5L320.396 210.182L330.196 199.682L329.465 199ZM301.965 225H302.965V155H301.965H300.965V225H301.965ZM301.965 155V156H321.565V155V154H301.965V155ZM321.565 155H320.565V225H321.565H322.565V155H321.565ZM321.565 225V224H301.965V225V226H321.565V225ZM348.965 225L349.75 224.381L326.95 195.481L326.165 196.1L325.38 196.719L348.18 225.619L348.965 225ZM326.165 196.1L326.895 196.783L339.795 182.983L339.065 182.3L338.334 181.617L325.434 195.417L326.165 196.1ZM339.065 182.3L338.273 182.91L371.173 225.61L371.965 225L372.757 224.39L339.857 181.69L339.065 182.3ZM371.965 225V224H348.965V225V226H371.965V225ZM377.16 225H376.16V226H377.16V225ZM377.16 155V154H376.16V155H377.16ZM396.96 155H397.96V154H396.96V155ZM396.96 225V226H397.96V225H396.96ZM377.16 225H378.16V155H377.16H376.16V225H377.16ZM377.16 155V156H396.96V155V154H377.16V155ZM396.96 155H395.96V225H396.96H397.96V155H396.96ZM396.96 225V224H377.16V225V226H396.96V225ZM411.047 225H410.047V226H411.047V225ZM411.047 155V154H410.047V155H411.047ZM427.347 155L428.117 154.362L427.817 154H427.347V155ZM465.947 201.6V202.6H468.074L466.717 200.962L465.947 201.6ZM458.247 201.6H457.247V202.6H458.247V201.6ZM458.247 155V154H457.247V155H458.247ZM477.647 155H478.647V154H477.647V155ZM477.647 225V226H478.647V225H477.647ZM461.347 225L460.577 225.638L460.877 226H461.347V225ZM422.747 178.4V177.4H420.62L421.977 179.038L422.747 178.4ZM430.447 178.4H431.447V177.4H430.447V178.4ZM430.447 225V226H431.447V225H430.447ZM411.047 225H412.047V155H411.047H410.047V225H411.047ZM411.047 155V156H427.347V155V154H411.047V155ZM427.347 155L426.577 155.638L465.177 202.238L465.947 201.6L466.717 200.962L428.117 154.362L427.347 155ZM465.947 201.6V200.6H458.247V201.6V202.6H465.947V201.6ZM458.247 201.6H459.247V155H458.247H457.247V201.6H458.247ZM458.247 155V156H477.647V155V154H458.247V155ZM477.647 155H476.647V225H477.647H478.647V155H477.647ZM477.647 225V224H461.347V225V226H477.647V225ZM461.347 225L462.117 224.362L423.517 177.762L422.747 178.4L421.977 179.038L460.577 225.638L461.347 225ZM422.747 178.4V179.4H430.447V178.4V177.4H422.747V178.4ZM430.447 178.4H429.447V225H430.447H431.447V178.4H430.447ZM430.447 225V224H411.047V225V226H430.447V225ZM511.213 223.8L510.858 224.735L510.869 224.739L511.213 223.8ZM498.913 216.2L498.22 216.921L498.227 216.928L498.913 216.2ZM490.913 204.7L489.996 205.097L489.998 205.102L490.913 204.7ZM490.913 175.4L491.829 175.802L491.831 175.797L490.913 175.4ZM499.013 163.8L498.327 163.072L499.013 163.8ZM511.313 156.3L511.657 157.239L511.664 157.236L511.313 156.3ZM544.713 156.9L545.103 155.979L544.713 156.9ZM557.613 166.4L558.284 167.142L558.992 166.501L558.386 165.765L557.613 166.4ZM545.013 177.8L544.279 178.478L544.95 179.206L545.684 178.542L545.013 177.8ZM537.213 172L536.775 172.899L536.788 172.905L536.801 172.911L537.213 172ZM513.513 175.5L514.22 176.207L514.227 176.2L514.234 176.194L513.513 175.5ZM509.413 181.8L508.487 181.424L508.484 181.431L508.481 181.438L509.413 181.8ZM509.413 198.1L508.478 198.454L508.482 198.465L508.487 198.476L509.413 198.1ZM513.513 204.5L512.793 205.194L512.799 205.2L512.806 205.207L513.513 204.5ZM519.713 208.6L519.329 209.523L519.344 209.529L519.359 209.535L519.713 208.6ZM536.413 208.6L536.729 209.549L536.74 209.545L536.75 209.542L536.413 208.6ZM544.913 203.6L545.695 202.976L545.065 202.187L544.282 202.824L544.913 203.6ZM556.013 217.5L556.596 218.313L557.452 217.699L556.795 216.876L556.013 217.5ZM542.113 224.1L542.393 225.06L542.113 224.1ZM538.513 214.9H537.513V215.762L538.366 215.889L538.513 214.9ZM538.513 188.5V187.5H537.513V188.5H538.513ZM556.013 188.5H557.013V187.5H556.013V188.5ZM556.013 217.5L555.866 218.489L557.013 218.66V217.5H556.013ZM526.613 226.4V225.4C521.186 225.4 516.17 224.55 511.557 222.861L511.213 223.8L510.869 224.739C515.723 226.516 520.974 227.4 526.613 227.4V226.4ZM511.213 223.8L511.569 222.865C506.95 221.109 502.964 218.643 499.599 215.472L498.913 216.2L498.227 216.928C501.796 220.29 506.01 222.891 510.858 224.735L511.213 223.8ZM498.913 216.2L499.606 215.479C496.302 212.305 493.711 208.58 491.829 204.298L490.913 204.7L489.998 205.102C491.983 209.62 494.724 213.562 498.22 216.921L498.913 216.2ZM490.913 204.7L491.831 204.303C489.957 199.973 489.013 195.21 489.013 190H488.013H487.013C487.013 195.457 488.003 200.494 489.996 205.097L490.913 204.7ZM488.013 190H489.013C489.013 184.79 489.957 180.062 491.829 175.802L490.913 175.4L489.998 174.998C488.003 179.538 487.013 184.543 487.013 190H488.013ZM490.913 175.4L491.831 175.797C493.712 171.453 496.334 167.699 499.699 164.528L499.013 163.8L498.327 163.072C494.76 166.434 491.982 170.414 489.996 175.003L490.913 175.4ZM499.013 163.8L499.699 164.528C503.062 161.359 507.043 158.929 511.657 157.239L511.313 156.3L510.969 155.361C506.117 157.138 501.898 159.707 498.327 163.072L499.013 163.8ZM511.313 156.3L511.664 157.236C516.341 155.483 521.454 154.6 527.013 154.6V153.6V152.6C521.239 152.6 515.886 153.517 510.962 155.364L511.313 156.3ZM527.013 153.6V154.6C533.502 154.6 539.266 155.681 544.324 157.821L544.713 156.9L545.103 155.979C539.761 153.719 533.725 152.6 527.013 152.6V153.6ZM544.713 156.9L544.324 157.821C549.383 159.962 553.549 163.034 556.841 167.035L557.613 166.4L558.386 165.765C554.877 161.5 550.443 158.238 545.103 155.979L544.713 156.9ZM557.613 166.4L556.942 165.658L544.342 177.058L545.013 177.8L545.684 178.542L558.284 167.142L557.613 166.4ZM545.013 177.8L545.748 177.122C543.271 174.438 540.565 172.419 537.625 171.089L537.213 172L536.801 172.911C539.462 174.115 541.956 175.962 544.279 178.478L545.013 177.8ZM537.213 172L537.652 171.101C534.766 169.694 531.547 169 528.013 169V170V171C531.279 171 534.193 171.64 536.775 172.899L537.213 172ZM528.013 170V169C524.909 169 522.054 169.483 519.459 170.465L519.813 171.4L520.167 172.335C522.506 171.45 525.118 171 528.013 171V170ZM519.813 171.4L519.459 170.465C516.862 171.447 514.635 172.894 512.793 174.806L513.513 175.5L514.234 176.194C515.859 174.506 517.831 173.219 520.167 172.335L519.813 171.4ZM513.513 175.5L512.806 174.793C510.97 176.629 509.532 178.844 508.487 181.424L509.413 181.8L510.34 182.176C511.294 179.822 512.59 177.838 514.22 176.207L513.513 175.5ZM509.413 181.8L508.481 181.438C507.495 183.973 507.013 186.832 507.013 190H508.013H509.013C509.013 187.034 509.465 184.427 510.345 182.162L509.413 181.8ZM508.013 190H507.013C507.013 193.041 507.497 195.862 508.478 198.454L509.413 198.1L510.349 197.746C509.463 195.405 509.013 192.826 509.013 190H508.013ZM509.413 198.1L508.487 198.476C509.531 201.053 510.966 203.296 512.793 205.194L513.513 204.5L514.234 203.806C512.594 202.104 511.295 200.081 510.34 197.724L509.413 198.1ZM513.513 204.5L512.806 205.207C514.637 207.038 516.816 208.476 519.329 209.523L519.713 208.6L520.098 207.677C517.811 206.724 515.856 205.428 514.22 203.793L513.513 204.5ZM519.713 208.6L519.359 209.535C521.951 210.516 524.773 211 527.813 211V210V209C524.987 209 522.409 208.551 520.067 207.665L519.713 208.6ZM527.813 210V211C530.855 211 533.828 210.516 536.729 209.549L536.413 208.6L536.097 207.651C533.398 208.551 530.638 209 527.813 209V210ZM536.413 208.6L536.75 209.542C539.679 208.495 542.61 206.764 545.545 204.376L544.913 203.6L544.282 202.824C541.483 205.103 538.747 206.704 536.077 207.658L536.413 208.6ZM544.913 203.6L544.132 204.224L555.232 218.124L556.013 217.5L556.795 216.876L545.695 202.976L544.913 203.6ZM556.013 217.5L555.431 216.687C551.533 219.481 547.004 221.635 541.834 223.14L542.113 224.1L542.393 225.06C547.756 223.499 552.494 221.252 556.596 218.313L556.013 217.5ZM542.113 224.1L541.834 223.14C536.65 224.649 531.578 225.4 526.613 225.4V226.4V227.4C531.782 227.4 537.043 226.618 542.393 225.06L542.113 224.1ZM538.513 214.9H539.513V188.5H538.513H537.513V214.9H538.513ZM538.513 188.5V189.5H556.013V188.5V187.5H538.513V188.5ZM556.013 188.5H555.013V217.5H556.013H557.013V188.5H556.013ZM556.013 217.5L556.16 216.511L538.66 213.911L538.513 214.9L538.366 215.889L555.866 218.489L556.013 217.5Z" fill="white" mask="url(#path-1-outside-1_236_3177)"/>
<path d="M7 97V27H39C45.4 27 50.9 28.0333 55.5 30.1C60.1667 32.1667 63.7667 35.1667 66.3 39.1C68.8333 42.9667 70.1 47.5667 70.1 52.9C70.1 58.1667 68.8333 62.7333 66.3 66.6C63.7667 70.4667 60.1667 73.4667 55.5 75.6C50.9 77.6667 45.4 78.7 39 78.7H18L26.8 70.1V97H7ZM26.8 72.2L18 63.1H37.8C41.9333 63.1 45 62.2 47 60.4C49.0667 58.6 50.1 56.1 50.1 52.9C50.1 49.6333 49.0667 47.1 47 45.3C45 43.5 41.9333 42.6 37.8 42.6H18L26.8 33.5V72.2ZM79.7539 97V27H111.754C118.154 27 123.654 28.0333 128.254 30.1C132.921 32.1667 136.521 35.1667 139.054 39.1C141.587 42.9667 142.854 47.5667 142.854 52.9C142.854 58.1667 141.587 62.7333 139.054 66.6C136.521 70.4 132.921 73.3333 128.254 75.4C123.654 77.4 118.154 78.4 111.754 78.4H90.7539L99.5539 70.1V97H79.7539ZM123.054 97L105.654 71.5H126.754L144.254 97H123.054ZM99.5539 72.2L90.7539 63.1H110.554C114.687 63.1 117.754 62.2 119.754 60.4C121.821 58.6 122.854 56.1 122.854 52.9C122.854 49.6333 121.821 47.1 119.754 45.3C117.754 43.5 114.687 42.6 110.554 42.6H90.7539L99.5539 33.5V72.2ZM189.077 98.4C183.477 98.4 178.311 97.5 173.577 95.7C168.844 93.9 164.711 91.3667 161.177 88.1C157.711 84.7667 155.011 80.9 153.077 76.5C151.144 72.1 150.177 67.2667 150.177 62C150.177 56.7333 151.144 51.9 153.077 47.5C155.011 43.1 157.711 39.2667 161.177 36C164.711 32.6667 168.844 30.1 173.577 28.3C178.311 26.5 183.477 25.6 189.077 25.6C194.744 25.6 199.911 26.5 204.577 28.3C209.311 30.1 213.411 32.6667 216.877 36C220.344 39.2667 223.044 43.1 224.977 47.5C226.977 51.9 227.977 56.7333 227.977 62C227.977 67.2667 226.977 72.1333 224.977 76.6C223.044 81 220.344 84.8333 216.877 88.1C213.411 91.3667 209.311 93.9 204.577 95.7C199.911 97.5 194.744 98.4 189.077 98.4ZM189.077 82C191.744 82 194.211 81.5333 196.477 80.6C198.811 79.6667 200.811 78.3333 202.477 76.6C204.211 74.8 205.544 72.6667 206.477 70.2C207.477 67.7333 207.977 65 207.977 62C207.977 58.9333 207.477 56.2 206.477 53.8C205.544 51.3333 204.211 49.2333 202.477 47.5C200.811 45.7 198.811 44.3333 196.477 43.4C194.211 42.4667 191.744 42 189.077 42C186.411 42 183.911 42.4667 181.577 43.4C179.311 44.3333 177.311 45.7 175.577 47.5C173.911 49.2333 172.577 51.3333 171.577 53.8C170.644 56.2 170.177 58.9333 170.177 62C170.177 65 170.644 67.7333 171.577 70.2C172.577 72.6667 173.911 74.8 175.577 76.6C177.311 78.3333 179.311 79.6667 181.577 80.6C183.911 81.5333 186.411 82 189.077 82ZM252.183 98.4C247.049 98.4 242.383 97.5333 238.183 95.8C234.049 94 230.616 91.4333 227.883 88.1L238.683 75.3C240.549 77.7 242.483 79.5333 244.483 80.8C246.483 82 248.583 82.6 250.783 82.6C256.649 82.6 259.583 79.2 259.583 72.4V42.3H235.383V27H279.183V71.2C279.183 80.3333 276.883 87.1667 272.283 91.7C267.683 96.1667 260.983 98.4 252.183 98.4ZM310.747 54.1H343.247V68.9H310.747V54.1ZM312.147 81.7H348.747V97H292.547V27H347.447V42.3H312.147V81.7ZM394.634 98.4C389.101 98.4 383.968 97.5333 379.234 95.8C374.568 94 370.501 91.4667 367.034 88.2C363.634 84.9333 360.968 81.1 359.034 76.7C357.101 72.2333 356.134 67.3333 356.134 62C356.134 56.6667 357.101 51.8 359.034 47.4C360.968 42.9333 363.634 39.0667 367.034 35.8C370.501 32.5333 374.568 30.0333 379.234 28.3C383.968 26.5 389.101 25.6 394.634 25.6C401.101 25.6 406.868 26.7333 411.934 29C417.068 31.2667 421.334 34.5333 424.734 38.8L412.134 50.2C409.868 47.5333 407.368 45.5 404.634 44.1C401.968 42.7 398.968 42 395.634 42C392.768 42 390.134 42.4667 387.734 43.4C385.334 44.3333 383.268 45.7 381.534 47.5C379.868 49.2333 378.534 51.3333 377.534 53.8C376.601 56.2667 376.134 59 376.134 62C376.134 65 376.601 67.7333 377.534 70.2C378.534 72.6667 379.868 74.8 381.534 76.6C383.268 78.3333 385.334 79.6667 387.734 80.6C390.134 81.5333 392.768 82 395.634 82C398.968 82 401.968 81.3 404.634 79.9C407.368 78.5 409.868 76.4667 412.134 73.8L424.734 85.2C421.334 89.4 417.068 92.6667 411.934 95C406.868 97.2667 401.101 98.4 394.634 98.4ZM447.877 97V42.7H426.377V27H489.077V42.7H467.677V97H447.877ZM21.9 219V164.7H0.4V149H63.1V164.7H41.7V219H21.9ZM70.4766 219V149H102.477C108.877 149 114.377 150.033 118.977 152.1C123.643 154.167 127.243 157.167 129.777 161.1C132.31 164.967 133.577 169.567 133.577 174.9C133.577 180.167 132.31 184.733 129.777 188.6C127.243 192.4 123.643 195.333 118.977 197.4C114.377 199.4 108.877 200.4 102.477 200.4H81.4766L90.2766 192.1V219H70.4766ZM113.777 219L96.3766 193.5H117.477L134.977 219H113.777ZM90.2766 194.2L81.4766 185.1H101.277C105.41 185.1 108.477 184.2 110.477 182.4C112.543 180.6 113.577 178.1 113.577 174.9C113.577 171.633 112.543 169.1 110.477 167.3C108.477 165.5 105.41 164.6 101.277 164.6H81.4766L90.2766 155.5V194.2ZM136.1 219L167 149H186.5L217.5 219H196.9L172.7 158.7H180.5L156.3 219H136.1ZM153 205.4L158.1 190.8H192.3L197.4 205.4H153ZM257.037 220.4C251.503 220.4 246.37 219.533 241.637 217.8C236.97 216 232.903 213.467 229.437 210.2C226.037 206.933 223.37 203.1 221.437 198.7C219.503 194.233 218.537 189.333 218.537 184C218.537 178.667 219.503 173.8 221.437 169.4C223.37 164.933 226.037 161.067 229.437 157.8C232.903 154.533 236.97 152.033 241.637 150.3C246.37 148.5 251.503 147.6 257.037 147.6C263.503 147.6 269.27 148.733 274.337 151C279.47 153.267 283.737 156.533 287.137 160.8L274.537 172.2C272.27 169.533 269.77 167.5 267.037 166.1C264.37 164.7 261.37 164 258.037 164C255.17 164 252.537 164.467 250.137 165.4C247.737 166.333 245.67 167.7 243.937 169.5C242.27 171.233 240.937 173.333 239.937 175.8C239.003 178.267 238.537 181 238.537 184C238.537 187 239.003 189.733 239.937 192.2C240.937 194.667 242.27 196.8 243.937 198.6C245.67 200.333 247.737 201.667 250.137 202.6C252.537 203.533 255.17 204 258.037 204C261.37 204 264.37 203.3 267.037 201.9C269.77 200.5 272.27 198.467 274.537 195.8L287.137 207.2C283.737 211.4 279.47 214.667 274.337 217C269.27 219.267 263.503 220.4 257.037 220.4ZM313.665 203.5L312.565 181.3L342.665 149H364.465L334.465 181.5L323.465 193L313.665 203.5ZM295.965 219V149H315.565V219H295.965ZM342.965 219L320.165 190.1L333.065 176.3L365.965 219H342.965ZM371.16 219V149H390.96V219H371.16ZM405.047 219V149H421.347L459.947 195.6H452.247V149H471.647V219H455.347L416.747 172.4H424.447V219H405.047ZM520.613 220.4C515.08 220.4 509.947 219.533 505.213 217.8C500.48 216 496.38 213.467 492.913 210.2C489.513 206.933 486.847 203.1 484.913 198.7C482.98 194.233 482.013 189.333 482.013 184C482.013 178.667 482.98 173.8 484.913 169.4C486.847 164.933 489.547 161.067 493.013 157.8C496.48 154.533 500.58 152.033 505.313 150.3C510.113 148.5 515.347 147.6 521.013 147.6C527.613 147.6 533.513 148.7 538.713 150.9C543.913 153.1 548.213 156.267 551.613 160.4L539.013 171.8C536.613 169.2 534.013 167.267 531.213 166C528.48 164.667 525.413 164 522.013 164C519.013 164 516.28 164.467 513.813 165.4C511.347 166.333 509.247 167.7 507.513 169.5C505.78 171.233 504.413 173.333 503.413 175.8C502.48 178.2 502.013 180.933 502.013 184C502.013 186.933 502.48 189.633 503.413 192.1C504.413 194.567 505.78 196.7 507.513 198.5C509.247 200.233 511.313 201.6 513.713 202.6C516.18 203.533 518.88 204 521.813 204C524.747 204 527.613 203.533 530.413 202.6C533.213 201.6 536.047 199.933 538.913 197.6L550.013 211.5C546.013 214.367 541.38 216.567 536.113 218.1C530.847 219.633 525.68 220.4 520.613 220.4ZM532.513 208.9V182.5H550.013V211.5L532.513 208.9Z" fill="white"/>
</svg>
