<svg width="282" height="125" viewBox="0 0 282 125" fill="none" xmlns="http://www.w3.org/2000/svg">
<mask id="path-1-outside-1_236_5582" maskUnits="userSpaceOnUse" x="7.34766" y="13.848" width="268" height="97" fill="black">
<rect fill="white" x="7.34766" y="13.848" width="268" height="97"/>
<path d="M28.315 49.848V16.248H43.675C46.747 16.248 49.387 16.744 51.595 17.736C53.835 18.728 55.563 20.168 56.779 22.056C57.995 23.912 58.603 26.12 58.603 28.68C58.603 31.208 57.995 33.4 56.779 35.256C55.563 37.112 53.835 38.552 51.595 39.576C49.387 40.568 46.747 41.064 43.675 41.064H33.595L37.819 36.936V49.848H28.315ZM37.819 37.944L33.595 33.576H43.099C45.083 33.576 46.555 33.144 47.515 32.28C48.507 31.416 49.003 30.216 49.003 28.68C49.003 27.112 48.507 25.896 47.515 25.032C46.555 24.168 45.083 23.736 43.099 23.736H33.595L37.819 19.368V37.944ZM63.2369 49.848V16.248H78.5969C81.6689 16.248 84.3089 16.744 86.5169 17.736C88.7569 18.728 90.4849 20.168 91.7009 22.056C92.9169 23.912 93.5249 26.12 93.5249 28.68C93.5249 31.208 92.9169 33.4 91.7009 35.256C90.4849 37.08 88.7569 38.488 86.5169 39.48C84.3089 40.44 81.6689 40.92 78.5969 40.92H68.5169L72.7409 36.936V49.848H63.2369ZM84.0209 49.848L75.6689 37.608H85.7969L94.1969 49.848H84.0209ZM72.7409 37.944L68.5169 33.576H78.0209C80.0049 33.576 81.4769 33.144 82.4369 32.28C83.4289 31.416 83.9249 30.216 83.9249 28.68C83.9249 27.112 83.4289 25.896 82.4369 25.032C81.4769 24.168 80.0049 23.736 78.0209 23.736H68.5169L72.7409 19.368V37.944ZM115.712 50.52C113.024 50.52 110.544 50.088 108.272 49.224C106 48.36 104.016 47.144 102.32 45.576C100.656 43.976 99.3602 42.12 98.4322 40.008C97.5042 37.896 97.0402 35.576 97.0402 33.048C97.0402 30.52 97.5042 28.2 98.4322 26.088C99.3602 23.976 100.656 22.136 102.32 20.568C104.016 18.968 106 17.736 108.272 16.872C110.544 16.008 113.024 15.576 115.712 15.576C118.432 15.576 120.912 16.008 123.152 16.872C125.424 17.736 127.392 18.968 129.056 20.568C130.72 22.136 132.016 23.976 132.944 26.088C133.904 28.2 134.384 30.52 134.384 33.048C134.384 35.576 133.904 37.912 132.944 40.056C132.016 42.168 130.72 44.008 129.056 45.576C127.392 47.144 125.424 48.36 123.152 49.224C120.912 50.088 118.432 50.52 115.712 50.52ZM115.712 42.648C116.992 42.648 118.176 42.424 119.264 41.976C120.384 41.528 121.344 40.888 122.144 40.056C122.976 39.192 123.616 38.168 124.064 36.984C124.544 35.8 124.784 34.488 124.784 33.048C124.784 31.576 124.544 30.264 124.064 29.112C123.616 27.928 122.976 26.92 122.144 26.088C121.344 25.224 120.384 24.568 119.264 24.12C118.176 23.672 116.992 23.448 115.712 23.448C114.432 23.448 113.232 23.672 112.112 24.12C111.024 24.568 110.064 25.224 109.232 26.088C108.432 26.92 107.792 27.928 107.312 29.112C106.864 30.264 106.64 31.576 106.64 33.048C106.64 34.488 106.864 35.8 107.312 36.984C107.792 38.168 108.432 39.192 109.232 40.056C110.064 40.888 111.024 41.528 112.112 41.976C113.232 42.424 114.432 42.648 115.712 42.648ZM146.003 50.52C143.539 50.52 141.299 50.104 139.283 49.272C137.299 48.408 135.651 47.176 134.339 45.576L139.523 39.432C140.419 40.584 141.347 41.464 142.307 42.072C143.267 42.648 144.275 42.936 145.331 42.936C148.147 42.936 149.555 41.304 149.555 38.04V23.592H137.939V16.248H158.963V37.464C158.963 41.848 157.859 45.128 155.651 47.304C153.443 49.448 150.227 50.52 146.003 50.52ZM174.114 29.256H189.714V36.36H174.114V29.256ZM174.786 42.504H192.354V49.848H165.378V16.248H191.73V23.592H174.786V42.504ZM214.38 50.52C211.724 50.52 209.26 50.104 206.988 49.272C204.748 48.408 202.796 47.192 201.132 45.624C199.5 44.056 198.22 42.216 197.292 40.104C196.364 37.96 195.9 35.608 195.9 33.048C195.9 30.488 196.364 28.152 197.292 26.04C198.22 23.896 199.5 22.04 201.132 20.472C202.796 18.904 204.748 17.704 206.988 16.872C209.26 16.008 211.724 15.576 214.38 15.576C217.484 15.576 220.252 16.12 222.684 17.208C225.148 18.296 227.196 19.864 228.828 21.912L222.78 27.384C221.692 26.104 220.492 25.128 219.18 24.456C217.9 23.784 216.46 23.448 214.86 23.448C213.484 23.448 212.22 23.672 211.068 24.12C209.916 24.568 208.924 25.224 208.092 26.088C207.292 26.92 206.652 27.928 206.172 29.112C205.724 30.296 205.5 31.608 205.5 33.048C205.5 34.488 205.724 35.8 206.172 36.984C206.652 38.168 207.292 39.192 208.092 40.056C208.924 40.888 209.916 41.528 211.068 41.976C212.22 42.424 213.484 42.648 214.86 42.648C216.46 42.648 217.9 42.312 219.18 41.64C220.492 40.968 221.692 39.992 222.78 38.712L228.828 44.184C227.196 46.2 225.148 47.768 222.684 48.888C220.252 49.976 217.484 50.52 214.38 50.52ZM239.936 49.848V23.784H229.616V16.248H259.712V23.784H249.44V49.848H239.936ZM19.5998 108.848V82.784H9.27984V75.248H39.3758V82.784H29.1038V108.848H19.5998ZM42.9166 108.848V75.248H58.2766C61.3486 75.248 63.9886 75.744 66.1966 76.736C68.4366 77.728 70.1646 79.168 71.3806 81.056C72.5966 82.912 73.2046 85.12 73.2046 87.68C73.2046 90.208 72.5966 92.4 71.3806 94.256C70.1646 96.08 68.4366 97.488 66.1966 98.48C63.9886 99.44 61.3486 99.92 58.2766 99.92H48.1966L52.4206 95.936V108.848H42.9166ZM63.7006 108.848L55.3486 96.608H65.4766L73.8766 108.848H63.7006ZM52.4206 96.944L48.1966 92.576H57.7006C59.6846 92.576 61.1566 92.144 62.1166 91.28C63.1086 90.416 63.6046 89.216 63.6046 87.68C63.6046 86.112 63.1086 84.896 62.1166 84.032C61.1566 83.168 59.6846 82.736 57.7006 82.736H48.1966L52.4206 78.368V96.944ZM74.4158 108.848L89.2478 75.248H98.6078L113.488 108.848H103.6L91.9838 79.904H95.7278L84.1118 108.848H74.4158ZM82.5278 102.32L84.9758 95.312H101.392L103.84 102.32H82.5278ZM132.465 109.52C129.809 109.52 127.345 109.104 125.073 108.272C122.833 107.408 120.881 106.192 119.217 104.624C117.585 103.056 116.305 101.216 115.377 99.104C114.449 96.96 113.985 94.608 113.985 92.048C113.985 89.488 114.449 87.152 115.377 85.04C116.305 82.896 117.585 81.04 119.217 79.472C120.881 77.904 122.833 76.704 125.073 75.872C127.345 75.008 129.809 74.576 132.465 74.576C135.569 74.576 138.337 75.12 140.769 76.208C143.233 77.296 145.281 78.864 146.913 80.912L140.865 86.384C139.777 85.104 138.577 84.128 137.265 83.456C135.985 82.784 134.545 82.448 132.945 82.448C131.569 82.448 130.305 82.672 129.153 83.12C128.001 83.568 127.009 84.224 126.177 85.088C125.377 85.92 124.737 86.928 124.257 88.112C123.809 89.296 123.585 90.608 123.585 92.048C123.585 93.488 123.809 94.8 124.257 95.984C124.737 97.168 125.377 98.192 126.177 99.056C127.009 99.888 128.001 100.528 129.153 100.976C130.305 101.424 131.569 101.648 132.945 101.648C134.545 101.648 135.985 101.312 137.265 100.64C138.577 99.968 139.777 98.992 140.865 97.712L146.913 103.184C145.281 105.2 143.233 106.768 140.769 107.888C138.337 108.976 135.569 109.52 132.465 109.52ZM159.647 101.408L159.119 90.752L173.567 75.248H184.031L169.631 90.848L164.351 96.368L159.647 101.408ZM151.151 108.848V75.248H160.559V108.848H151.151ZM173.711 108.848L162.767 94.976L168.959 88.352L184.751 108.848H173.711ZM187.245 108.848V75.248H196.749V108.848H187.245ZM203.51 108.848V75.248H211.334L229.862 97.616H226.166V75.248H235.478V108.848H227.654L209.126 86.48H212.822V108.848H203.51ZM258.982 109.52C256.326 109.52 253.862 109.104 251.59 108.272C249.318 107.408 247.35 106.192 245.686 104.624C244.054 103.056 242.774 101.216 241.846 99.104C240.918 96.96 240.454 94.608 240.454 92.048C240.454 89.488 240.918 87.152 241.846 85.04C242.774 82.896 244.07 81.04 245.734 79.472C247.398 77.904 249.366 76.704 251.638 75.872C253.942 75.008 256.454 74.576 259.174 74.576C262.342 74.576 265.174 75.104 267.67 76.16C270.166 77.216 272.23 78.736 273.862 80.72L267.814 86.192C266.662 84.944 265.414 84.016 264.07 83.408C262.758 82.768 261.286 82.448 259.654 82.448C258.214 82.448 256.902 82.672 255.718 83.12C254.534 83.568 253.526 84.224 252.694 85.088C251.862 85.92 251.206 86.928 250.726 88.112C250.278 89.264 250.054 90.576 250.054 92.048C250.054 93.456 250.278 94.752 250.726 95.936C251.206 97.12 251.862 98.144 252.694 99.008C253.526 99.84 254.518 100.496 255.67 100.976C256.854 101.424 258.15 101.648 259.558 101.648C260.966 101.648 262.342 101.424 263.686 100.976C265.03 100.496 266.39 99.696 267.766 98.576L273.094 105.248C271.174 106.624 268.95 107.68 266.422 108.416C263.894 109.152 261.414 109.52 258.982 109.52ZM264.694 104V91.328H273.094V105.248L264.694 104Z"/>
</mask>
<path d="M28.315 49.848H27.315V50.848H28.315V49.848ZM28.315 16.248V15.248H27.315V16.248H28.315ZM51.595 17.736L51.1852 18.6481L51.1901 18.6503L51.595 17.736ZM56.779 22.056L55.9383 22.5975L55.9426 22.604L56.779 22.056ZM56.779 35.256L57.6155 35.804H57.6155L56.779 35.256ZM51.595 39.576L52.0049 40.4881L52.0108 40.4854L51.595 39.576ZM33.595 41.064L32.8961 40.3488L31.141 42.064H33.595V41.064ZM37.819 36.936H38.819V34.5605L37.1201 36.2208L37.819 36.936ZM37.819 49.848V50.848H38.819V49.848H37.819ZM37.819 37.944L37.1002 38.6391L38.819 40.4166V37.944H37.819ZM33.595 33.576V32.576H31.2369L32.8762 34.2711L33.595 33.576ZM47.515 32.28L46.8583 31.5259L46.8521 31.5312L46.8461 31.5367L47.515 32.28ZM47.515 25.032L46.8461 25.7753L46.8521 25.7807L46.8583 25.786L47.515 25.032ZM33.595 23.736L32.8762 23.0408L31.2369 24.736H33.595V23.736ZM37.819 19.368H38.819V16.8953L37.1002 18.6728L37.819 19.368ZM28.315 49.848H29.315V16.248H28.315H27.315V49.848H28.315ZM28.315 16.248V17.248H43.675V16.248V15.248H28.315V16.248ZM43.675 16.248V17.248C46.6425 17.248 49.1358 17.7274 51.1852 18.6481L51.595 17.736L52.0048 16.8238C49.6383 15.7605 46.8516 15.248 43.675 15.248V16.248ZM51.595 17.736L51.1901 18.6503C53.2685 19.5707 54.8377 20.8885 55.9383 22.5974L56.779 22.056L57.6198 21.5145C56.2884 19.4474 54.4016 17.8852 52 16.8216L51.595 17.736ZM56.779 22.056L55.9426 22.604C57.0362 24.2732 57.603 26.284 57.603 28.68H58.603H59.603C59.603 25.9559 58.9539 23.5507 57.6155 21.5079L56.779 22.056ZM58.603 28.68H57.603C57.603 31.0412 57.0375 33.0367 55.9426 34.7079L56.779 35.256L57.6155 35.804C58.9525 33.7632 59.603 31.3747 59.603 28.68H58.603ZM56.779 35.256L55.9426 34.7079C54.8411 36.3892 53.2673 37.712 51.1793 38.6665L51.595 39.576L52.0108 40.4854C54.4028 39.3919 56.285 37.8347 57.6155 35.804L56.779 35.256ZM51.595 39.576L51.1852 38.6638C49.1358 39.5845 46.6425 40.064 43.675 40.064V41.064V42.064C46.8516 42.064 49.6382 41.5514 52.0048 40.4881L51.595 39.576ZM43.675 41.064V40.064H33.595V41.064V42.064H43.675V41.064ZM33.595 41.064L34.294 41.7791L38.518 37.6511L37.819 36.936L37.1201 36.2208L32.8961 40.3488L33.595 41.064ZM37.819 36.936H36.819V49.848H37.819H38.819V36.936H37.819ZM37.819 49.848V48.848H28.315V49.848V50.848H37.819V49.848ZM37.819 37.944L38.5379 37.2488L34.3139 32.8808L33.595 33.576L32.8762 34.2711L37.1002 38.6391L37.819 37.944ZM33.595 33.576V34.576H43.099V33.576V32.576H33.595V33.576ZM43.099 33.576V34.576C45.2024 34.576 46.9636 34.1216 48.184 33.0233L47.515 32.28L46.8461 31.5367C46.1465 32.1663 44.9636 32.576 43.099 32.576V33.576ZM47.515 32.28L48.1718 33.034C49.4192 31.9476 50.003 30.4516 50.003 28.68H49.003H48.003C48.003 29.9803 47.5948 30.8843 46.8583 31.5259L47.515 32.28ZM49.003 28.68H50.003C50.003 26.8837 49.4239 25.3684 48.1718 24.2779L47.515 25.032L46.8583 25.786C47.5901 26.4235 48.003 27.3402 48.003 28.68H49.003ZM47.515 25.032L48.184 24.2887C46.9636 23.1903 45.2024 22.736 43.099 22.736V23.736V24.736C44.9636 24.736 46.1465 25.1456 46.8461 25.7753L47.515 25.032ZM43.099 23.736V22.736H33.595V23.736V24.736H43.099V23.736ZM33.595 23.736L34.3139 24.4311L38.5379 20.0631L37.819 19.368L37.1002 18.6728L32.8762 23.0408L33.595 23.736ZM37.819 19.368H36.819V37.944H37.819H38.819V19.368H37.819ZM63.2369 49.848H62.2369V50.848H63.2369V49.848ZM63.2369 16.248V15.248H62.2369V16.248H63.2369ZM86.5169 17.736L86.1071 18.6481L86.112 18.6503L86.5169 17.736ZM91.7009 22.056L90.8602 22.5975L90.8644 22.604L91.7009 22.056ZM91.7009 35.256L92.533 35.8107L92.5374 35.804L91.7009 35.256ZM86.5169 39.48L86.9156 40.3971L86.9218 40.3943L86.5169 39.48ZM68.5169 40.92L67.8308 40.1925L65.9992 41.92H68.5169V40.92ZM72.7409 36.936H73.7409V34.6182L72.0548 36.2085L72.7409 36.936ZM72.7409 49.848V50.848H73.7409V49.848H72.7409ZM84.0209 49.848L83.1949 50.4116L83.4926 50.848H84.0209V49.848ZM75.6689 37.608V36.608H73.7759L74.8429 38.1716L75.6689 37.608ZM85.7969 37.608L86.6214 37.0421L86.3235 36.608H85.7969V37.608ZM94.1969 49.848V50.848H96.096L95.0214 49.2821L94.1969 49.848ZM72.7409 37.944L72.022 38.6391L73.7409 40.4166V37.944H72.7409ZM68.5169 33.576V32.576H66.1588L67.798 34.2711L68.5169 33.576ZM82.4369 32.28L81.7801 31.5259L81.774 31.5312L81.7679 31.5367L82.4369 32.28ZM82.4369 25.032L81.7679 25.7753L81.774 25.7807L81.7801 25.786L82.4369 25.032ZM68.5169 23.736L67.798 23.0408L66.1588 24.736H68.5169V23.736ZM72.7409 19.368H73.7409V16.8953L72.022 18.6728L72.7409 19.368ZM63.2369 49.848H64.2369V16.248H63.2369H62.2369V49.848H63.2369ZM63.2369 16.248V17.248H78.5969V16.248V15.248H63.2369V16.248ZM78.5969 16.248V17.248C81.5643 17.248 84.0577 17.7274 86.1071 18.6481L86.5169 17.736L86.9267 16.8238C84.5601 15.7605 81.7735 15.248 78.5969 15.248V16.248ZM86.5169 17.736L86.112 18.6503C88.1903 19.5707 89.7595 20.8885 90.8602 22.5974L91.7009 22.056L92.5416 21.5145C91.2103 19.4474 89.3235 17.8852 86.9218 16.8216L86.5169 17.736ZM91.7009 22.056L90.8644 22.604C91.9581 24.2732 92.5249 26.284 92.5249 28.68H93.5249H94.5249C94.5249 25.9559 93.8757 23.5507 92.5374 21.5079L91.7009 22.056ZM93.5249 28.68H92.5249C92.5249 31.0412 91.9594 33.0367 90.8644 34.7079L91.7009 35.256L92.5374 35.804C93.8744 33.7632 94.5249 31.3747 94.5249 28.68H93.5249ZM91.7009 35.256L90.8689 34.7013C89.7703 36.3491 88.1994 37.6412 86.112 38.5656L86.5169 39.48L86.9218 40.3943C89.3144 39.3347 91.1995 37.8108 92.533 35.8107L91.7009 35.256ZM86.5169 39.48L86.1182 38.5629C84.0656 39.4553 81.5681 39.92 78.5969 39.92V40.92V41.92C81.7697 41.92 84.5522 41.4246 86.9156 40.397L86.5169 39.48ZM78.5969 40.92V39.92H68.5169V40.92V41.92H78.5969V40.92ZM68.5169 40.92L69.203 41.6474L73.427 37.6634L72.7409 36.936L72.0548 36.2085L67.8308 40.1925L68.5169 40.92ZM72.7409 36.936H71.7409V49.848H72.7409H73.7409V36.936H72.7409ZM72.7409 49.848V48.848H63.2369V49.848V50.848H72.7409V49.848ZM84.0209 49.848L84.8469 49.2843L76.4949 37.0443L75.6689 37.608L74.8429 38.1716L83.1949 50.4116L84.0209 49.848ZM75.6689 37.608V38.608H85.7969V37.608V36.608H75.6689V37.608ZM85.7969 37.608L84.9724 38.1738L93.3724 50.4138L94.1969 49.848L95.0214 49.2821L86.6214 37.0421L85.7969 37.608ZM94.1969 49.848V48.848H84.0209V49.848V50.848H94.1969V49.848ZM72.7409 37.944L73.4598 37.2488L69.2358 32.8808L68.5169 33.576L67.798 34.2711L72.022 38.6391L72.7409 37.944ZM68.5169 33.576V34.576H78.0209V33.576V32.576H68.5169V33.576ZM78.0209 33.576V34.576C80.1243 34.576 81.8855 34.1216 83.1059 33.0233L82.4369 32.28L81.7679 31.5367C81.0683 32.1663 79.8855 32.576 78.0209 32.576V33.576ZM82.4369 32.28L83.0937 33.034C84.3411 31.9476 84.9249 30.4516 84.9249 28.68H83.9249H82.9249C82.9249 29.9803 82.5167 30.8843 81.7801 31.5259L82.4369 32.28ZM83.9249 28.68H84.9249C84.9249 26.8837 84.3458 25.3684 83.0937 24.2779L82.4369 25.032L81.7801 25.786C82.512 26.4235 82.9249 27.3402 82.9249 28.68H83.9249ZM82.4369 25.032L83.1059 24.2887C81.8855 23.1903 80.1243 22.736 78.0209 22.736V23.736V24.736C79.8855 24.736 81.0683 25.1456 81.7679 25.7753L82.4369 25.032ZM78.0209 23.736V22.736H68.5169V23.736V24.736H78.0209V23.736ZM68.5169 23.736L69.2358 24.4311L73.4598 20.0631L72.7409 19.368L72.022 18.6728L67.798 23.0408L68.5169 23.736ZM72.7409 19.368H71.7409V37.944H72.7409H73.7409V19.368H72.7409ZM108.272 49.224L107.917 50.1587L108.272 49.224ZM102.32 45.576L101.627 46.2968L101.634 46.3036L101.641 46.3102L102.32 45.576ZM98.4322 40.008L97.5166 40.4102V40.4102L98.4322 40.008ZM98.4322 26.088L97.5166 25.6857L98.4322 26.088ZM102.32 20.568L103.006 21.2957L103.006 21.2954L102.32 20.568ZM108.272 16.872L107.917 15.9373L108.272 16.872ZM123.152 16.872L122.792 17.805L122.797 17.8067L123.152 16.872ZM129.056 20.568L128.363 21.2888L128.37 21.2957L129.056 20.568ZM132.944 26.088L132.029 26.4903L132.034 26.5018L132.944 26.088ZM132.944 40.056L132.031 39.6473L132.029 39.6537L132.944 40.056ZM129.056 45.576L129.742 46.3037L129.056 45.576ZM123.152 49.224L122.797 48.2893L122.792 48.291L123.152 49.224ZM119.264 41.976L118.893 41.0474L118.883 41.0513L119.264 41.976ZM122.144 40.056L121.424 39.3623L121.423 39.3629L122.144 40.056ZM124.064 36.984L123.137 36.6083L123.133 36.6191L123.129 36.6301L124.064 36.984ZM124.064 29.112L123.129 29.4659L123.135 29.4813L123.141 29.4966L124.064 29.112ZM122.144 26.088L121.41 26.7674L121.423 26.7815L121.437 26.7951L122.144 26.088ZM119.264 24.12L118.883 25.0447L118.893 25.0484L119.264 24.12ZM112.112 24.12L111.741 23.1914L111.731 23.1953L112.112 24.12ZM109.232 26.088L108.512 25.3943L108.511 25.3949L109.232 26.088ZM107.312 29.112L106.385 28.7363L106.383 28.7429L106.38 28.7495L107.312 29.112ZM107.312 36.984L106.377 37.3379L106.381 37.3488L106.385 37.3597L107.312 36.984ZM109.232 40.056L108.498 40.7354L108.511 40.7495L108.525 40.7631L109.232 40.056ZM112.112 41.976L111.731 42.9007L111.741 42.9044L112.112 41.976ZM115.712 50.52V49.52C113.133 49.52 110.775 49.1058 108.628 48.2893L108.272 49.224L107.917 50.1587C110.314 51.0702 112.916 51.52 115.712 51.52V50.52ZM108.272 49.224L108.628 48.2893C106.469 47.4683 104.596 46.3183 102.999 44.8417L102.32 45.576L101.641 46.3102C103.436 47.9696 105.531 49.2516 107.917 50.1587L108.272 49.224ZM102.32 45.576L103.013 44.8551C101.443 43.3457 100.223 41.5979 99.3477 39.6057L98.4322 40.008L97.5166 40.4102C98.4973 42.642 99.8689 44.6062 101.627 46.2968L102.32 45.576ZM98.4322 40.008L99.3477 39.6057C98.4805 37.6322 98.0402 35.4508 98.0402 33.048H97.0402H96.0402C96.0402 35.7011 96.5278 38.1597 97.5166 40.4102L98.4322 40.008ZM97.0402 33.048H98.0402C98.0402 30.6451 98.4805 28.4637 99.3477 26.4902L98.4322 26.088L97.5166 25.6857C96.5278 27.9362 96.0402 30.3948 96.0402 33.048H97.0402ZM98.4322 26.088L99.3477 26.4902C100.222 24.4999 101.44 22.7709 103.006 21.2957L102.32 20.568L101.634 19.8402C99.8718 21.501 98.4981 23.452 97.5166 25.6857L98.4322 26.088ZM102.32 20.568L103.006 21.2954C104.603 19.7893 106.473 18.626 108.628 17.8067L108.272 16.872L107.917 15.9373C105.527 16.8459 103.43 18.1466 101.634 19.8406L102.32 20.568ZM108.272 16.872L108.628 17.8067C110.775 16.9902 113.133 16.576 115.712 16.576V15.576V14.576C112.916 14.576 110.314 15.0258 107.917 15.9373L108.272 16.872ZM115.712 15.576V16.576C118.325 16.576 120.681 16.9907 122.792 17.805L123.152 16.872L123.512 15.939C121.143 15.0252 118.539 14.576 115.712 14.576V15.576ZM123.152 16.872L122.797 17.8067C124.95 18.6254 126.801 19.787 128.363 21.2888L129.056 20.568L129.749 19.8471C127.983 18.1489 125.899 16.8465 123.508 15.9373L123.152 16.872ZM129.056 20.568L128.37 21.2957C129.936 22.7709 131.154 24.4999 132.029 26.4902L132.944 26.088L133.86 25.6857C132.878 23.452 131.504 21.501 129.742 19.8402L129.056 20.568ZM132.944 26.088L132.034 26.5018C132.93 28.4725 133.384 30.6498 133.384 33.048H134.384H135.384C135.384 30.3902 134.879 27.9274 133.855 25.6742L132.944 26.088ZM134.384 33.048H133.384C133.384 35.446 132.93 37.6414 132.031 39.6473L132.944 40.056L133.857 40.4646C134.879 38.1825 135.384 35.7059 135.384 33.048H134.384ZM132.944 40.056L132.029 39.6537C131.154 41.644 129.936 43.373 128.37 44.8482L129.056 45.576L129.742 46.3037C131.504 44.6429 132.878 42.6919 133.86 40.4582L132.944 40.056ZM129.056 45.576L128.37 44.8482C126.808 46.3206 124.954 47.4689 122.797 48.2893L123.152 49.224L123.508 50.1587C125.894 49.251 127.977 47.9673 129.742 46.3037L129.056 45.576ZM123.152 49.224L122.792 48.291C120.681 49.1052 118.325 49.52 115.712 49.52V50.52V51.52C118.539 51.52 121.143 51.0707 123.512 50.157L123.152 49.224ZM115.712 42.648V43.648C117.111 43.648 118.426 43.4026 119.645 42.9006L119.264 41.976L118.883 41.0513C117.926 41.4453 116.873 41.648 115.712 41.648V42.648ZM119.264 41.976L119.636 42.9044C120.881 42.4061 121.962 41.6881 122.865 40.7491L122.144 40.056L121.423 39.3629C120.726 40.0878 119.887 40.6498 118.893 41.0475L119.264 41.976ZM122.144 40.056L122.864 40.7496C123.796 39.7827 124.506 38.6413 124.999 37.3379L124.064 36.984L123.129 36.6301C122.726 37.6946 122.157 38.6012 121.424 39.3623L122.144 40.056ZM124.064 36.984L124.991 37.3597C125.525 36.0421 125.784 34.6004 125.784 33.048H124.784H123.784C123.784 34.3755 123.563 35.5578 123.137 36.6083L124.064 36.984ZM124.784 33.048H125.784C125.784 31.4672 125.526 30.021 124.987 28.7273L124.064 29.112L123.141 29.4966C123.562 30.5069 123.784 31.6847 123.784 33.048H124.784ZM124.064 29.112L124.999 28.7581C124.505 27.4517 123.791 26.3205 122.851 25.3809L122.144 26.088L121.437 26.7951C122.161 27.5194 122.727 28.4042 123.129 29.4659L124.064 29.112ZM122.144 26.088L122.878 25.4086C121.975 24.433 120.89 23.6932 119.636 23.1915L119.264 24.12L118.893 25.0484C119.878 25.4427 120.714 26.015 121.41 26.7674L122.144 26.088ZM119.264 24.12L119.645 23.1953C118.426 22.6933 117.111 22.448 115.712 22.448V23.448V24.448C116.873 24.448 117.926 24.6506 118.883 25.0446L119.264 24.12ZM115.712 23.448V22.448C114.313 22.448 112.986 22.6934 111.741 23.1915L112.112 24.12L112.484 25.0484C113.478 24.6505 114.552 24.448 115.712 24.448V23.448ZM112.112 24.12L111.731 23.1953C110.513 23.697 109.438 24.4326 108.512 25.3943L109.232 26.088L109.952 26.7816C110.69 26.0153 111.535 25.4389 112.493 25.0446L112.112 24.12ZM109.232 26.088L108.511 25.3949C107.614 26.3279 106.908 27.4469 106.385 28.7363L107.312 29.112L108.239 29.4877C108.676 28.409 109.25 27.512 109.953 26.7811L109.232 26.088ZM107.312 29.112L106.38 28.7495C105.88 30.0368 105.64 31.4751 105.64 33.048H106.64H107.64C107.64 31.6768 107.849 30.4911 108.244 29.4744L107.312 29.112ZM106.64 33.048H105.64C105.64 34.5924 105.881 36.0263 106.377 37.3379L107.312 36.984L108.247 36.6301C107.848 35.5736 107.64 34.3835 107.64 33.048H106.64ZM107.312 36.984L106.385 37.3597C106.907 38.6462 107.61 39.7754 108.498 40.7354L109.232 40.056L109.966 39.3766C109.255 38.6086 108.677 37.6897 108.239 36.6083L107.312 36.984ZM109.232 40.056L108.525 40.7631C109.45 41.6884 110.521 42.4024 111.731 42.9006L112.112 41.976L112.493 41.0513C111.527 40.6536 110.678 40.0875 109.939 39.3489L109.232 40.056ZM112.112 41.976L111.741 42.9044C112.986 43.4025 114.313 43.648 115.712 43.648V42.648V41.648C114.552 41.648 113.478 41.4454 112.484 41.0475L112.112 41.976ZM139.283 49.272L138.884 50.1888L138.892 50.1926L138.901 50.1963L139.283 49.272ZM134.339 45.576L133.574 44.9311L133.038 45.5668L133.566 46.21L134.339 45.576ZM139.523 39.432L140.312 38.818L139.554 37.8438L138.758 38.7871L139.523 39.432ZM142.307 42.072L141.772 42.9168L141.782 42.9232L141.792 42.9295L142.307 42.072ZM149.555 23.592H150.555V22.592H149.555V23.592ZM137.939 23.592H136.939V24.592H137.939V23.592ZM137.939 16.248V15.248H136.939V16.248H137.939ZM158.963 16.248H159.963V15.248H158.963V16.248ZM155.651 47.304L156.347 48.0214L156.353 48.0162L155.651 47.304ZM146.003 50.52V49.52C143.653 49.52 141.545 49.1236 139.664 48.3476L139.283 49.272L138.901 50.1963C141.053 51.0843 143.425 51.52 146.003 51.52V50.52ZM139.283 49.272L139.682 48.3551C137.836 47.5514 136.319 46.4137 135.112 44.9419L134.339 45.576L133.566 46.21C134.983 47.9383 136.761 49.2645 138.884 50.1888L139.283 49.272ZM134.339 45.576L135.103 46.2208L140.287 40.0768L139.523 39.432L138.758 38.7871L133.574 44.9311L134.339 45.576ZM139.523 39.432L138.733 40.0459C139.681 41.2643 140.691 42.2323 141.772 42.9168L142.307 42.072L142.842 41.2271C142.003 40.6956 141.156 39.9036 140.312 38.818L139.523 39.432ZM142.307 42.072L141.792 42.9295C142.898 43.5929 144.083 43.936 145.331 43.936V42.936V41.936C144.467 41.936 143.636 41.7031 142.821 41.2145L142.307 42.072ZM145.331 42.936V43.936C146.935 43.936 148.308 43.4643 149.256 42.3652C150.18 41.2943 150.555 39.7929 150.555 38.04H149.555H148.555C148.555 39.551 148.226 40.4976 147.742 41.0587C147.282 41.5916 146.543 41.936 145.331 41.936V42.936ZM149.555 38.04H150.555V23.592H149.555H148.555V38.04H149.555ZM149.555 23.592V22.592H137.939V23.592V24.592H149.555V23.592ZM137.939 23.592H138.939V16.248H137.939H136.939V23.592H137.939ZM137.939 16.248V17.248H158.963V16.248V15.248H137.939V16.248ZM158.963 16.248H157.963V37.464H158.963H159.963V16.248H158.963ZM158.963 37.464H157.963C157.963 41.6926 156.899 44.6701 154.949 46.5917L155.651 47.304L156.353 48.0162C158.819 45.5858 159.963 42.0033 159.963 37.464H158.963ZM155.651 47.304L154.954 46.5865C152.993 48.4906 150.065 49.52 146.003 49.52V50.52V51.52C150.388 51.52 153.892 50.4053 156.347 48.0214L155.651 47.304ZM174.114 29.256V28.256H173.114V29.256H174.114ZM189.714 29.256H190.714V28.256H189.714V29.256ZM189.714 36.36V37.36H190.714V36.36H189.714ZM174.114 36.36H173.114V37.36H174.114V36.36ZM174.786 42.504H173.786V43.504H174.786V42.504ZM192.354 42.504H193.354V41.504H192.354V42.504ZM192.354 49.848V50.848H193.354V49.848H192.354ZM165.378 49.848H164.378V50.848H165.378V49.848ZM165.378 16.248V15.248H164.378V16.248H165.378ZM191.73 16.248H192.73V15.248H191.73V16.248ZM191.73 23.592V24.592H192.73V23.592H191.73ZM174.786 23.592V22.592H173.786V23.592H174.786ZM174.114 29.256V30.256H189.714V29.256V28.256H174.114V29.256ZM189.714 29.256H188.714V36.36H189.714H190.714V29.256H189.714ZM189.714 36.36V35.36H174.114V36.36V37.36H189.714V36.36ZM174.114 36.36H175.114V29.256H174.114H173.114V36.36H174.114ZM174.786 42.504V43.504H192.354V42.504V41.504H174.786V42.504ZM192.354 42.504H191.354V49.848H192.354H193.354V42.504H192.354ZM192.354 49.848V48.848H165.378V49.848V50.848H192.354V49.848ZM165.378 49.848H166.378V16.248H165.378H164.378V49.848H165.378ZM165.378 16.248V17.248H191.73V16.248V15.248H165.378V16.248ZM191.73 16.248H190.73V23.592H191.73H192.73V16.248H191.73ZM191.73 23.592V22.592H174.786V23.592V24.592H191.73V23.592ZM174.786 23.592H173.786V42.504H174.786H175.786V23.592H174.786ZM206.988 49.272L206.628 50.205L206.636 50.208L206.644 50.211L206.988 49.272ZM201.132 45.624L200.439 46.3451L200.446 46.3517L201.132 45.624ZM197.292 40.104L196.374 40.5012L196.376 40.5062L197.292 40.104ZM197.292 26.04L198.207 26.4422L198.209 26.4372L197.292 26.04ZM201.132 20.472L200.446 19.7441L200.439 19.7509L201.132 20.472ZM206.988 16.872L207.336 17.8094L207.343 17.8067L206.988 16.872ZM222.684 17.208L222.275 18.1208L222.28 18.1228L222.684 17.208ZM228.828 21.912L229.498 22.6535L230.195 22.0233L229.61 21.2888L228.828 21.912ZM222.78 27.384L222.018 28.0316L222.686 28.8175L223.45 28.1255L222.78 27.384ZM219.18 24.456L218.715 25.3414L218.724 25.346L219.18 24.456ZM211.068 24.12L211.43 25.052L211.068 24.12ZM208.092 26.088L207.371 25.3943L207.371 25.3949L208.092 26.088ZM206.172 29.112L205.245 28.7363L205.24 28.7471L205.236 28.7581L206.172 29.112ZM206.172 36.984L205.236 37.3379L205.24 37.3488L205.245 37.3597L206.172 36.984ZM208.092 40.056L207.358 40.7354L207.371 40.7495L207.384 40.7631L208.092 40.056ZM211.068 41.976L211.43 41.044L211.068 41.976ZM219.18 41.64L218.724 40.7499L218.715 40.7546L219.18 41.64ZM222.78 38.712L223.45 37.9704L222.686 37.2784L222.018 38.0643L222.78 38.712ZM228.828 44.184L229.605 44.8132L230.2 44.0775L229.498 43.4424L228.828 44.184ZM222.684 48.888L223.092 49.8008L223.097 49.7983L222.684 48.888ZM214.38 50.52V49.52C211.829 49.52 209.483 49.1208 207.331 48.3329L206.988 49.272L206.644 50.211C209.036 51.0871 211.618 51.52 214.38 51.52V50.52ZM206.988 49.272L207.347 48.339C205.222 47.5192 203.382 46.3709 201.817 44.8962L201.132 45.624L200.446 46.3517C202.209 48.013 204.273 49.2967 206.628 50.205L206.988 49.272ZM201.132 45.624L201.824 44.9029C200.289 43.4273 199.083 41.6962 198.207 39.7017L197.292 40.104L196.376 40.5062C197.356 42.7357 198.71 44.6846 200.439 46.3451L201.132 45.624ZM197.292 40.104L198.209 39.7067C197.341 37.6997 196.9 35.4845 196.9 33.048H195.9H194.9C194.9 35.7314 195.387 38.2202 196.374 40.5012L197.292 40.104ZM195.9 33.048H196.9C196.9 30.6112 197.341 28.4142 198.207 26.4422L197.292 26.04L196.376 25.6377C195.386 27.8897 194.9 30.3647 194.9 33.048H195.9ZM197.292 26.04L198.209 26.4372C199.086 24.411 200.291 22.6661 201.824 21.1931L201.132 20.472L200.439 19.7509C198.708 21.4138 197.353 23.3809 196.374 25.6427L197.292 26.04ZM201.132 20.472L201.817 21.1997C203.38 19.7276 205.215 18.5969 207.336 17.8094L206.988 16.872L206.639 15.9345C204.28 16.811 202.211 18.0803 200.446 19.7442L201.132 20.472ZM206.988 16.872L207.343 17.8067C209.491 16.9897 211.834 16.576 214.38 16.576V15.576V14.576C211.613 14.576 209.028 15.0263 206.632 15.9373L206.988 16.872ZM214.38 15.576V16.576C217.366 16.576 219.991 17.099 222.275 18.1208L222.684 17.208L223.092 16.2951C220.512 15.141 217.601 14.576 214.38 14.576V15.576ZM222.684 17.208L222.28 18.1228C224.6 19.1474 226.517 20.6172 228.045 22.5352L228.828 21.912L229.61 21.2888C227.874 19.1108 225.695 17.4445 223.087 16.2932L222.684 17.208ZM228.828 21.912L228.157 21.1704L222.109 26.6424L222.78 27.384L223.45 28.1255L229.498 22.6535L228.828 21.912ZM222.78 27.384L223.541 26.7363C222.38 25.3701 221.08 24.3056 219.635 23.5659L219.18 24.456L218.724 25.346C219.904 25.9503 221.003 26.8378 222.018 28.0316L222.78 27.384ZM219.18 24.456L219.644 23.5706C218.206 22.8155 216.604 22.448 214.86 22.448V23.448V24.448C216.315 24.448 217.593 24.7524 218.715 25.3414L219.18 24.456ZM214.86 23.448V22.448C213.374 22.448 211.985 22.6902 210.705 23.188L211.068 24.12L211.43 25.052C212.454 24.6537 213.594 24.448 214.86 24.448V23.448ZM211.068 24.12L210.705 23.188C209.422 23.6869 208.307 24.4226 207.371 25.3943L208.092 26.088L208.812 26.7816C209.54 26.0253 210.409 25.4491 211.43 25.052L211.068 24.12ZM208.092 26.088L207.371 25.3949C206.474 26.3279 205.768 27.4469 205.245 28.7363L206.172 29.112L207.098 29.4877C207.536 28.409 208.11 27.512 208.812 26.7811L208.092 26.088ZM206.172 29.112L205.236 28.7581C204.74 30.0696 204.5 31.5035 204.5 33.048H205.5H206.5C206.5 31.7124 206.707 30.5223 207.107 29.4659L206.172 29.112ZM205.5 33.048H204.5C204.5 34.5924 204.74 36.0263 205.236 37.3379L206.172 36.984L207.107 36.6301C206.707 35.5736 206.5 34.3835 206.5 33.048H205.5ZM206.172 36.984L205.245 37.3597C205.766 38.6462 206.469 39.7754 207.358 40.7354L208.092 40.056L208.825 39.3766C208.114 38.6086 207.537 37.6897 207.098 36.6083L206.172 36.984ZM208.092 40.056L207.384 40.7631C208.319 41.698 209.431 42.4123 210.705 42.908L211.068 41.976L211.43 41.044C210.401 40.6436 209.528 40.0779 208.799 39.3489L208.092 40.056ZM211.068 41.976L210.705 42.908C211.985 43.4057 213.374 43.648 214.86 43.648V42.648V41.648C213.594 41.648 212.454 41.4422 211.43 41.044L211.068 41.976ZM214.86 42.648V43.648C216.604 43.648 218.206 43.2804 219.644 42.5254L219.18 41.64L218.715 40.7546C217.593 41.3435 216.315 41.648 214.86 41.648V42.648ZM219.18 41.64L219.635 42.53C221.08 41.7903 222.38 40.7258 223.541 39.3596L222.78 38.712L222.018 38.0643C221.003 39.2581 219.904 40.1456 218.724 40.7499L219.18 41.64ZM222.78 38.712L222.109 39.4535L228.157 44.9255L228.828 44.184L229.498 43.4424L223.45 37.9704L222.78 38.712ZM228.828 44.184L228.05 43.5548C226.52 45.4448 224.599 46.919 222.27 47.9776L222.684 48.888L223.097 49.7983C225.696 48.617 227.871 46.9551 229.605 44.8132L228.828 44.184ZM222.684 48.888L222.275 47.9751C219.991 48.997 217.366 49.52 214.38 49.52V50.52V51.52C217.601 51.52 220.512 50.955 223.092 49.8008L222.684 48.888ZM239.936 49.848H238.936V50.848H239.936V49.848ZM239.936 23.784H240.936V22.784H239.936V23.784ZM229.616 23.784H228.616V24.784H229.616V23.784ZM229.616 16.248V15.248H228.616V16.248H229.616ZM259.712 16.248H260.712V15.248H259.712V16.248ZM259.712 23.784V24.784H260.712V23.784H259.712ZM249.44 23.784V22.784H248.44V23.784H249.44ZM249.44 49.848V50.848H250.44V49.848H249.44ZM239.936 49.848H240.936V23.784H239.936H238.936V49.848H239.936ZM239.936 23.784V22.784H229.616V23.784V24.784H239.936V23.784ZM229.616 23.784H230.616V16.248H229.616H228.616V23.784H229.616ZM229.616 16.248V17.248H259.712V16.248V15.248H229.616V16.248ZM259.712 16.248H258.712V23.784H259.712H260.712V16.248H259.712ZM259.712 23.784V22.784H249.44V23.784V24.784H259.712V23.784ZM249.44 23.784H248.44V49.848H249.44H250.44V23.784H249.44ZM249.44 49.848V48.848H239.936V49.848V50.848H249.44V49.848ZM19.5998 108.848H18.5998V109.848H19.5998V108.848ZM19.5998 82.784H20.5998V81.784H19.5998V82.784ZM9.27984 82.784H8.27984V83.784H9.27984V82.784ZM9.27984 75.248V74.248H8.27984V75.248H9.27984ZM39.3758 75.248H40.3758V74.248H39.3758V75.248ZM39.3758 82.784V83.784H40.3758V82.784H39.3758ZM29.1038 82.784V81.784H28.1038V82.784H29.1038ZM29.1038 108.848V109.848H30.1038V108.848H29.1038ZM19.5998 108.848H20.5998V82.784H19.5998H18.5998V108.848H19.5998ZM19.5998 82.784V81.784H9.27984V82.784V83.784H19.5998V82.784ZM9.27984 82.784H10.2798V75.248H9.27984H8.27984V82.784H9.27984ZM9.27984 75.248V76.248H39.3758V75.248V74.248H9.27984V75.248ZM39.3758 75.248H38.3758V82.784H39.3758H40.3758V75.248H39.3758ZM39.3758 82.784V81.784H29.1038V82.784V83.784H39.3758V82.784ZM29.1038 82.784H28.1038V108.848H29.1038H30.1038V82.784H29.1038ZM29.1038 108.848V107.848H19.5998V108.848V109.848H29.1038V108.848ZM42.9166 108.848H41.9166V109.848H42.9166V108.848ZM42.9166 75.248V74.248H41.9166V75.248H42.9166ZM66.1966 76.736L65.7868 77.6481L65.7917 77.6503L66.1966 76.736ZM71.3806 81.056L70.5399 81.5975L70.5441 81.604L71.3806 81.056ZM71.3806 94.256L72.2127 94.8107L72.2171 94.804L71.3806 94.256ZM66.1966 98.48L66.5953 99.397L66.6015 99.3943L66.1966 98.48ZM48.1966 99.92L47.5105 99.1925L45.6789 100.92H48.1966V99.92ZM52.4206 95.936H53.4206V93.6182L51.7345 95.2085L52.4206 95.936ZM52.4206 108.848V109.848H53.4206V108.848H52.4206ZM63.7006 108.848L62.8746 109.412L63.1723 109.848H63.7006V108.848ZM55.3486 96.608V95.608H53.4556L54.5226 97.1716L55.3486 96.608ZM65.4766 96.608L66.3011 96.0421L66.0032 95.608H65.4766V96.608ZM73.8766 108.848V109.848H75.7757L74.7011 108.282L73.8766 108.848ZM52.4206 96.944L51.7017 97.6391L53.4206 99.4166V96.944H52.4206ZM48.1966 92.576V91.576H45.8385L47.4777 93.2711L48.1966 92.576ZM62.1166 91.28L61.4598 90.5259L61.4537 90.5312L61.4476 90.5367L62.1166 91.28ZM62.1166 84.032L61.4476 84.7753L61.4537 84.7807L61.4598 84.786L62.1166 84.032ZM48.1966 82.736L47.4777 82.0408L45.8385 83.736H48.1966V82.736ZM52.4206 78.368H53.4206V75.8953L51.7017 77.6728L52.4206 78.368ZM42.9166 108.848H43.9166V75.248H42.9166H41.9166V108.848H42.9166ZM42.9166 75.248V76.248H58.2766V75.248V74.248H42.9166V75.248ZM58.2766 75.248V76.248C61.244 76.248 63.7374 76.7274 65.7868 77.6481L66.1966 76.736L66.6064 75.8238C64.2398 74.7605 61.4532 74.248 58.2766 74.248V75.248ZM66.1966 76.736L65.7917 77.6503C67.87 78.5707 69.4392 79.8885 70.5399 81.5974L71.3806 81.056L72.2213 80.5145C70.89 78.4474 69.0032 76.8852 66.6015 75.8216L66.1966 76.736ZM71.3806 81.056L70.5441 81.604C71.6378 83.2732 72.2046 85.284 72.2046 87.68H73.2046H74.2046C74.2046 84.9559 73.5554 82.5507 72.2171 80.5079L71.3806 81.056ZM73.2046 87.68H72.2046C72.2046 90.0412 71.6391 92.0367 70.5441 93.7079L71.3806 94.256L72.2171 94.804C73.5541 92.7633 74.2046 90.3747 74.2046 87.68H73.2046ZM71.3806 94.256L70.5485 93.7013C69.45 95.3491 67.8791 96.6412 65.7917 97.5656L66.1966 98.48L66.6015 99.3943C68.9941 98.3347 70.8792 96.8108 72.2126 94.8107L71.3806 94.256ZM66.1966 98.48L65.7979 97.5629C63.7453 98.4553 61.2478 98.92 58.2766 98.92V99.92V100.92C61.4494 100.92 64.2319 100.425 66.5953 99.397L66.1966 98.48ZM58.2766 99.92V98.92H48.1966V99.92V100.92H58.2766V99.92ZM48.1966 99.92L48.8827 100.647L53.1067 96.6634L52.4206 95.936L51.7345 95.2085L47.5105 99.1925L48.1966 99.92ZM52.4206 95.936H51.4206V108.848H52.4206H53.4206V95.936H52.4206ZM52.4206 108.848V107.848H42.9166V108.848V109.848H52.4206V108.848ZM63.7006 108.848L64.5266 108.284L56.1746 96.0443L55.3486 96.608L54.5226 97.1716L62.8746 109.412L63.7006 108.848ZM55.3486 96.608V97.608H65.4766V96.608V95.608H55.3486V96.608ZM65.4766 96.608L64.6521 97.1738L73.0521 109.414L73.8766 108.848L74.7011 108.282L66.3011 96.0421L65.4766 96.608ZM73.8766 108.848V107.848H63.7006V108.848V109.848H73.8766V108.848ZM52.4206 96.944L53.1395 96.2488L48.9155 91.8808L48.1966 92.576L47.4777 93.2711L51.7017 97.6391L52.4206 96.944ZM48.1966 92.576V93.576H57.7006V92.576V91.576H48.1966V92.576ZM57.7006 92.576V93.576C59.804 93.576 61.5652 93.1216 62.7856 92.0233L62.1166 91.28L61.4476 90.5367C60.748 91.1663 59.5652 91.576 57.7006 91.576V92.576ZM62.1166 91.28L62.7734 92.034C64.0208 90.9476 64.6046 89.4516 64.6046 87.68H63.6046H62.6046C62.6046 88.9803 62.1964 89.8843 61.4598 90.5259L62.1166 91.28ZM63.6046 87.68H64.6046C64.6046 85.8837 64.0255 84.3684 62.7734 83.2779L62.1166 84.032L61.4598 84.786C62.1917 85.4235 62.6046 86.3402 62.6046 87.68H63.6046ZM62.1166 84.032L62.7856 83.2887C61.5652 82.1903 59.804 81.736 57.7006 81.736V82.736V83.736C59.5652 83.736 60.748 84.1456 61.4476 84.7753L62.1166 84.032ZM57.7006 82.736V81.736H48.1966V82.736V83.736H57.7006V82.736ZM48.1966 82.736L48.9155 83.4311L53.1395 79.0631L52.4206 78.368L51.7017 77.6728L47.4777 82.0408L48.1966 82.736ZM52.4206 78.368H51.4206V96.944H52.4206H53.4206V78.368H52.4206ZM74.4158 108.848L73.501 108.444L72.8813 109.848H74.4158V108.848ZM89.2478 75.248V74.248H88.5962L88.333 74.8441L89.2478 75.248ZM98.6078 75.248L99.5222 74.843L99.2587 74.248H98.6078V75.248ZM113.488 108.848V109.848H115.024L114.402 108.443L113.488 108.848ZM103.6 108.848L102.672 109.22L102.924 109.848H103.6V108.848ZM91.9838 79.904V78.904H90.505L91.0558 80.2764L91.9838 79.904ZM95.7278 79.904L96.6559 80.2764L97.2067 78.904H95.7278V79.904ZM84.1118 108.848V109.848H84.788L85.0399 109.22L84.1118 108.848ZM82.5278 102.32L81.5838 101.99L81.1193 103.32H82.5278V102.32ZM84.9758 95.312V94.312H84.2659L84.0318 94.9822L84.9758 95.312ZM101.392 95.312L102.336 94.9822L102.102 94.312H101.392V95.312ZM103.84 102.32V103.32H105.248L104.784 101.99L103.84 102.32ZM74.4158 108.848L75.3307 109.252L90.1627 75.6518L89.2478 75.248L88.333 74.8441L73.501 108.444L74.4158 108.848ZM89.2478 75.248V76.248H98.6078V75.248V74.248H89.2478V75.248ZM98.6078 75.248L97.6935 75.6529L112.573 109.253L113.488 108.848L114.402 108.443L99.5222 74.843L98.6078 75.248ZM113.488 108.848V107.848H103.6V108.848V109.848H113.488V108.848ZM103.6 108.848L104.528 108.476L92.9119 79.5315L91.9838 79.904L91.0558 80.2764L102.672 109.22L103.6 108.848ZM91.9838 79.904V80.904H95.7278V79.904V78.904H91.9838V79.904ZM95.7278 79.904L94.7998 79.5315L83.1838 108.476L84.1118 108.848L85.0399 109.22L96.6559 80.2764L95.7278 79.904ZM84.1118 108.848V107.848H74.4158V108.848V109.848H84.1118V108.848ZM82.5278 102.32L83.4719 102.65L85.9199 95.6417L84.9758 95.312L84.0318 94.9822L81.5838 101.99L82.5278 102.32ZM84.9758 95.312V96.312H101.392V95.312V94.312H84.9758V95.312ZM101.392 95.312L100.448 95.6417L102.896 102.65L103.84 102.32L104.784 101.99L102.336 94.9822L101.392 95.312ZM103.84 102.32V101.32H82.5278V102.32V103.32H103.84V102.32ZM125.073 108.272L124.714 109.205L124.722 109.208L124.73 109.211L125.073 108.272ZM119.217 104.624L118.525 105.345L118.532 105.352L119.217 104.624ZM115.377 99.104L114.46 99.5012L114.462 99.5062L115.377 99.104ZM115.377 85.04L116.293 85.4422L116.295 85.4372L115.377 85.04ZM119.217 79.472L118.532 78.7441L118.525 78.7509L119.217 79.472ZM125.073 75.872L125.422 76.8094L125.429 76.8067L125.073 75.872ZM140.769 76.208L140.361 77.1208L140.366 77.1227L140.769 76.208ZM146.913 80.912L147.584 81.6535L148.281 81.0233L147.696 80.2888L146.913 80.912ZM140.865 86.384L140.104 87.0316L140.772 87.8175L141.536 87.1255L140.865 86.384ZM137.265 83.456L136.801 84.3414L136.81 84.346L137.265 83.456ZM129.153 83.12L129.516 84.052L129.153 83.12ZM126.177 85.088L125.457 84.3943L125.457 84.3949L126.177 85.088ZM124.257 88.112L123.331 87.7363L123.326 87.7471L123.322 87.7581L124.257 88.112ZM124.257 95.984L123.322 96.3379L123.326 96.3488L123.331 96.3597L124.257 95.984ZM126.177 99.056L125.444 99.7354L125.457 99.7495L125.47 99.7631L126.177 99.056ZM129.153 100.976L129.516 100.044L129.153 100.976ZM137.265 100.64L136.81 99.7499L136.801 99.7546L137.265 100.64ZM140.865 97.712L141.536 96.9704L140.772 96.2784L140.104 97.0643L140.865 97.712ZM146.913 103.184L147.691 103.813L148.286 103.077L147.584 102.442L146.913 103.184ZM140.769 107.888L141.178 108.801L141.183 108.798L140.769 107.888ZM132.465 109.52V108.52C129.915 108.52 127.569 108.121 125.417 107.333L125.073 108.272L124.73 109.211C127.122 110.087 129.704 110.52 132.465 110.52V109.52ZM125.073 108.272L125.433 107.339C123.308 106.519 121.468 105.371 119.903 103.896L119.217 104.624L118.532 105.352C120.295 107.013 122.359 108.297 124.714 109.205L125.073 108.272ZM119.217 104.624L119.91 103.903C118.375 102.427 117.169 100.696 116.293 98.7017L115.377 99.104L114.462 99.5062C115.442 101.736 116.796 103.685 118.525 105.345L119.217 104.624ZM115.377 99.104L116.295 98.7067C115.426 96.6997 114.985 94.4845 114.985 92.048H113.985H112.985C112.985 94.7314 113.472 97.2202 114.46 99.5012L115.377 99.104ZM113.985 92.048H114.985C114.985 89.6112 115.427 87.4142 116.293 85.4422L115.377 85.04L114.462 84.6377C113.472 86.8897 112.985 89.3647 112.985 92.048H113.985ZM115.377 85.04L116.295 85.4372C117.172 83.411 118.377 81.6661 119.91 80.1931L119.217 79.472L118.525 78.7509C116.794 80.4138 115.439 82.3809 114.46 84.6427L115.377 85.04ZM119.217 79.472L119.903 80.1997C121.466 78.7276 123.301 77.5969 125.422 76.8094L125.073 75.872L124.725 74.9345C122.366 75.811 120.297 77.0803 118.532 78.7442L119.217 79.472ZM125.073 75.872L125.429 76.8067C127.577 75.9897 129.92 75.576 132.465 75.576V74.576V73.576C129.699 73.576 127.114 74.0263 124.718 74.9373L125.073 75.872ZM132.465 74.576V75.576C135.452 75.576 138.077 76.099 140.361 77.1208L140.769 76.208L141.178 75.2951C138.598 74.141 135.687 73.576 132.465 73.576V74.576ZM140.769 76.208L140.366 77.1227C142.686 78.1474 144.603 79.6172 146.131 81.5352L146.913 80.912L147.696 80.2888C145.96 78.1108 143.781 76.4445 141.173 75.2932L140.769 76.208ZM146.913 80.912L146.243 80.1704L140.195 85.6424L140.865 86.384L141.536 87.1255L147.584 81.6535L146.913 80.912ZM140.865 86.384L141.627 85.7363C140.466 84.3701 139.166 83.3056 137.721 82.5659L137.265 83.456L136.81 84.346C137.989 84.9503 139.089 85.8378 140.104 87.0316L140.865 86.384ZM137.265 83.456L137.73 82.5706C136.292 81.8155 134.69 81.448 132.945 81.448V82.448V83.448C134.401 83.448 135.679 83.7524 136.801 84.3414L137.265 83.456ZM132.945 82.448V81.448C131.459 81.448 130.071 81.6902 128.791 82.188L129.153 83.12L129.516 84.052C130.54 83.6537 131.679 83.448 132.945 83.448V82.448ZM129.153 83.12L128.791 82.188C127.508 82.6869 126.393 83.4226 125.457 84.3943L126.177 85.088L126.898 85.7816C127.626 85.0253 128.495 84.4491 129.516 84.052L129.153 83.12ZM126.177 85.088L125.457 84.3949C124.559 85.3279 123.853 86.4469 123.331 87.7363L124.257 88.112L125.184 88.4877C125.622 87.409 126.195 86.512 126.898 85.7811L126.177 85.088ZM124.257 88.112L123.322 87.7581C122.826 89.0696 122.585 90.5035 122.585 92.048H123.585H124.585C124.585 90.7124 124.793 89.5223 125.193 88.4659L124.257 88.112ZM123.585 92.048H122.585C122.585 93.5924 122.826 95.0263 123.322 96.3379L124.257 95.984L125.193 95.6301C124.793 94.5736 124.585 93.3835 124.585 92.048H123.585ZM124.257 95.984L123.331 96.3597C123.852 97.6462 124.555 98.7754 125.444 99.7354L126.177 99.056L126.911 98.3766C126.2 97.6086 125.623 96.6897 125.184 95.6083L124.257 95.984ZM126.177 99.056L125.47 99.7631C126.405 100.698 127.516 101.412 128.791 101.908L129.153 100.976L129.516 100.044C128.486 99.6436 127.614 99.0779 126.885 98.3489L126.177 99.056ZM129.153 100.976L128.791 101.908C130.071 102.406 131.459 102.648 132.945 102.648V101.648V100.648C131.679 100.648 130.54 100.442 129.516 100.044L129.153 100.976ZM132.945 101.648V102.648C134.69 102.648 136.292 102.28 137.73 101.525L137.265 100.64L136.801 99.7546C135.679 100.344 134.401 100.648 132.945 100.648V101.648ZM137.265 100.64L137.721 101.53C139.166 100.79 140.466 99.7258 141.627 98.3596L140.865 97.712L140.104 97.0643C139.089 98.2581 137.989 99.1456 136.81 99.7499L137.265 100.64ZM140.865 97.712L140.195 98.4535L146.243 103.925L146.913 103.184L147.584 102.442L141.536 96.9704L140.865 97.712ZM146.913 103.184L146.136 102.555C144.606 104.445 142.685 105.919 140.356 106.978L140.769 107.888L141.183 108.798C143.782 107.617 145.957 105.955 147.691 103.813L146.913 103.184ZM140.769 107.888L140.361 106.975C138.077 107.997 135.452 108.52 132.465 108.52V109.52V110.52C135.687 110.52 138.598 109.955 141.178 108.801L140.769 107.888ZM159.647 101.408L158.648 101.457L158.765 103.818L160.378 102.09L159.647 101.408ZM159.119 90.752L158.387 90.0702L158.099 90.3794L158.12 90.8015L159.119 90.752ZM173.567 75.248V74.248H173.132L172.835 74.5662L173.567 75.248ZM184.031 75.248L184.766 75.9262L186.315 74.248H184.031V75.248ZM169.631 90.848L170.354 91.5392L170.36 91.5328L170.366 91.5262L169.631 90.848ZM164.351 96.368L163.628 95.6767L163.62 95.6856L164.351 96.368ZM151.151 108.848H150.151V109.848H151.151V108.848ZM151.151 75.248V74.248H150.151V75.248H151.151ZM160.559 75.248H161.559V74.248H160.559V75.248ZM160.559 108.848V109.848H161.559V108.848H160.559ZM173.711 108.848L172.926 109.467L173.226 109.848H173.711V108.848ZM162.767 94.976L162.036 94.2931L161.45 94.9208L161.982 95.5953L162.767 94.976ZM168.959 88.352L169.751 87.7416L169.032 86.8089L168.228 87.6691L168.959 88.352ZM184.751 108.848V109.848H186.784L185.543 108.238L184.751 108.848ZM159.647 101.408L160.646 101.358L160.118 90.7025L159.119 90.752L158.12 90.8015L158.648 101.457L159.647 101.408ZM159.119 90.752L159.851 91.4337L174.299 75.9297L173.567 75.248L172.835 74.5662L158.387 90.0702L159.119 90.752ZM173.567 75.248V76.248H184.031V75.248V74.248H173.567V75.248ZM184.031 75.248L183.296 74.5697L168.896 90.1697L169.631 90.848L170.366 91.5262L184.766 75.9262L184.031 75.248ZM169.631 90.848L168.908 90.1567L163.628 95.6767L164.351 96.368L165.074 97.0592L170.354 91.5392L169.631 90.848ZM164.351 96.368L163.62 95.6856L158.916 100.726L159.647 101.408L160.378 102.09L165.082 97.0503L164.351 96.368ZM151.151 108.848H152.151V75.248H151.151H150.151V108.848H151.151ZM151.151 75.248V76.248H160.559V75.248V74.248H151.151V75.248ZM160.559 75.248H159.559V108.848H160.559H161.559V75.248H160.559ZM160.559 108.848V107.848H151.151V108.848V109.848H160.559V108.848ZM173.711 108.848L174.496 108.229L163.552 94.3566L162.767 94.976L161.982 95.5953L172.926 109.467L173.711 108.848ZM162.767 94.976L163.497 95.6588L169.689 89.0348L168.959 88.352L168.228 87.6691L162.036 94.2931L162.767 94.976ZM168.959 88.352L168.167 88.9623L183.959 109.458L184.751 108.848L185.543 108.238L169.751 87.7416L168.959 88.352ZM184.751 108.848V107.848H173.711V108.848V109.848H184.751V108.848ZM187.245 108.848H186.245V109.848H187.245V108.848ZM187.245 75.248V74.248H186.245V75.248H187.245ZM196.749 75.248H197.749V74.248H196.749V75.248ZM196.749 108.848V109.848H197.749V108.848H196.749ZM187.245 108.848H188.245V75.248H187.245H186.245V108.848H187.245ZM187.245 75.248V76.248H196.749V75.248V74.248H187.245V75.248ZM196.749 75.248H195.749V108.848H196.749H197.749V75.248H196.749ZM196.749 108.848V107.848H187.245V108.848V109.848H196.749V108.848ZM203.51 108.848H202.51V109.848H203.51V108.848ZM203.51 75.248V74.248H202.51V75.248H203.51ZM211.334 75.248L212.104 74.6101L211.805 74.248H211.334V75.248ZM229.862 97.616V98.616H231.989L230.632 96.9781L229.862 97.616ZM226.166 97.616H225.166V98.616H226.166V97.616ZM226.166 75.248V74.248H225.166V75.248H226.166ZM235.478 75.248H236.478V74.248H235.478V75.248ZM235.478 108.848V109.848H236.478V108.848H235.478ZM227.654 108.848L226.884 109.486L227.184 109.848H227.654V108.848ZM209.126 86.48V85.48H207L208.356 87.1179L209.126 86.48ZM212.822 86.48H213.822V85.48H212.822V86.48ZM212.822 108.848V109.848H213.822V108.848H212.822ZM203.51 108.848H204.51V75.248H203.51H202.51V108.848H203.51ZM203.51 75.248V76.248H211.334V75.248V74.248H203.51V75.248ZM211.334 75.248L210.564 75.8859L229.092 98.2539L229.862 97.616L230.632 96.9781L212.104 74.6101L211.334 75.248ZM229.862 97.616V96.616H226.166V97.616V98.616H229.862V97.616ZM226.166 97.616H227.166V75.248H226.166H225.166V97.616H226.166ZM226.166 75.248V76.248H235.478V75.248V74.248H226.166V75.248ZM235.478 75.248H234.478V108.848H235.478H236.478V75.248H235.478ZM235.478 108.848V107.848H227.654V108.848V109.848H235.478V108.848ZM227.654 108.848L228.424 108.21L209.896 85.8421L209.126 86.48L208.356 87.1179L226.884 109.486L227.654 108.848ZM209.126 86.48V87.48H212.822V86.48V85.48H209.126V86.48ZM212.822 86.48H211.822V108.848H212.822H213.822V86.48H212.822ZM212.822 108.848V107.848H203.51V108.848V109.848H212.822V108.848ZM251.59 108.272L251.235 109.207L251.246 109.211L251.59 108.272ZM245.686 104.624L244.993 105.345L245 105.352L245.686 104.624ZM241.846 99.104L240.928 99.5012L240.931 99.5062L241.846 99.104ZM241.846 85.04L242.762 85.4422L242.764 85.4372L241.846 85.04ZM245.734 79.472L245.048 78.7442L245.734 79.472ZM251.638 75.872L251.982 76.811L251.989 76.8083L251.638 75.872ZM267.67 76.16L268.06 75.239L267.67 76.16ZM273.862 80.72L274.533 81.4615L275.241 80.8214L274.635 80.0847L273.862 80.72ZM267.814 86.192L267.079 86.8702L267.751 87.5977L268.485 86.9335L267.814 86.192ZM264.07 83.408L263.632 84.3067L263.645 84.3131L263.658 84.3191L264.07 83.408ZM252.694 85.088L253.401 85.7951L253.408 85.7884L253.415 85.7816L252.694 85.088ZM250.726 88.112L249.799 87.7363L249.797 87.7429L249.794 87.7495L250.726 88.112ZM250.726 95.936L249.791 96.2899L249.795 96.3008L249.799 96.3117L250.726 95.936ZM252.694 99.008L251.974 99.7016L251.98 99.7084L251.987 99.7151L252.694 99.008ZM255.67 100.976L255.286 101.899L255.301 101.905L255.316 101.911L255.67 100.976ZM263.686 100.976L264.002 101.925L264.013 101.921L264.023 101.918L263.686 100.976ZM267.766 98.576L268.548 97.952L267.918 97.1632L267.135 97.8004L267.766 98.576ZM273.094 105.248L273.677 106.061L274.533 105.447L273.876 104.624L273.094 105.248ZM266.422 108.416L266.702 109.376L266.422 108.416ZM264.694 104H263.694V104.862L264.547 104.989L264.694 104ZM264.694 91.328V90.328H263.694V91.328H264.694ZM273.094 91.328H274.094V90.328H273.094V91.328ZM273.094 105.248L272.947 106.237L274.094 106.408V105.248H273.094ZM258.982 109.52V108.52C256.432 108.52 254.086 108.121 251.934 107.333L251.59 108.272L251.246 109.211C253.639 110.087 256.22 110.52 258.982 110.52V109.52ZM251.59 108.272L251.946 107.337C249.788 106.517 247.935 105.369 246.372 103.896L245.686 104.624L245 105.352C246.766 107.015 248.848 108.299 251.235 109.207L251.59 108.272ZM245.686 104.624L246.379 103.903C244.843 102.427 243.638 100.696 242.762 98.7017L241.846 99.104L240.931 99.5062C241.91 101.736 243.265 103.685 244.993 105.345L245.686 104.624ZM241.846 99.104L242.764 98.7067C241.895 96.6997 241.454 94.4845 241.454 92.048H240.454H239.454C239.454 94.7314 239.941 97.2202 240.928 99.5012L241.846 99.104ZM240.454 92.048H241.454C241.454 89.6112 241.895 87.4142 242.762 85.4422L241.846 85.04L240.931 84.6377C239.941 86.8897 239.454 89.3647 239.454 92.048H240.454ZM241.846 85.04L242.764 85.4372C243.639 83.4152 244.857 81.6724 246.42 80.1997L245.734 79.472L245.048 78.7442C243.283 80.4075 241.909 82.3767 240.928 84.6427L241.846 85.04ZM245.734 79.472L246.42 80.1997C247.98 78.7299 249.83 77.5992 251.982 76.811L251.638 75.872L251.294 74.9329C248.903 75.8087 246.817 77.078 245.048 78.7442L245.734 79.472ZM251.638 75.872L251.989 76.8083C254.17 75.9906 256.562 75.576 259.174 75.576V74.576V73.576C256.347 73.576 253.715 74.0253 251.287 74.9356L251.638 75.872ZM259.174 74.576V75.576C262.231 75.576 264.927 76.0851 267.281 77.0809L267.67 76.16L268.06 75.239C265.422 74.1228 262.454 73.576 259.174 73.576V74.576ZM267.67 76.16L267.281 77.0809C269.636 78.0776 271.566 79.5028 273.09 81.3552L273.862 80.72L274.635 80.0847C272.894 77.9691 270.696 76.3544 268.06 75.239L267.67 76.16ZM273.862 80.72L273.191 79.9784L267.143 85.4504L267.814 86.192L268.485 86.9335L274.533 81.4615L273.862 80.72ZM267.814 86.192L268.549 85.5137C267.32 84.182 265.966 83.1678 264.482 82.4968L264.07 83.408L263.658 84.3191C264.863 84.8641 266.005 85.7059 267.079 86.8702L267.814 86.192ZM264.07 83.408L264.509 82.5092C263.045 81.7951 261.42 81.448 259.654 81.448V82.448V83.448C261.152 83.448 262.472 83.7408 263.632 84.3067L264.07 83.408ZM259.654 82.448V81.448C258.11 81.448 256.676 81.6884 255.364 82.1847L255.718 83.12L256.072 84.0552C257.129 83.6555 258.319 83.448 259.654 83.448V82.448ZM255.718 83.12L255.364 82.1847C254.05 82.6821 252.914 83.4177 251.974 84.3943L252.694 85.088L253.415 85.7816C254.138 85.0302 255.019 84.4538 256.072 84.0552L255.718 83.12ZM252.694 85.088L251.987 84.3809C251.053 85.3154 250.325 86.4389 249.799 87.7363L250.726 88.112L251.653 88.4877C252.087 87.417 252.672 86.5246 253.401 85.7951L252.694 85.088ZM250.726 88.112L249.794 87.7495C249.294 89.0368 249.054 90.4751 249.054 92.048H250.054H251.054C251.054 90.6768 251.263 89.4911 251.658 88.4744L250.726 88.112ZM250.054 92.048H249.054C249.054 93.5633 249.296 94.9808 249.791 96.2899L250.726 95.936L251.661 95.5821C251.261 94.5231 251.054 93.3486 251.054 92.048H250.054ZM250.726 95.936L249.799 96.3117C250.324 97.6061 251.048 98.7399 251.974 99.7016L252.694 99.008L253.415 98.3143C252.677 97.548 252.088 96.6339 251.653 95.5603L250.726 95.936ZM252.694 99.008L251.987 99.7151C252.917 100.645 254.02 101.372 255.286 101.899L255.67 100.976L256.055 100.053C255.016 99.62 254.135 99.035 253.401 98.3009L252.694 99.008ZM255.67 100.976L255.316 101.911C256.625 102.407 258.043 102.648 259.558 102.648V101.648V100.648C258.258 100.648 257.083 100.441 256.024 100.041L255.67 100.976ZM259.558 101.648V102.648C261.074 102.648 262.557 102.406 264.002 101.925L263.686 100.976L263.37 100.027C262.127 100.442 260.858 100.648 259.558 100.648V101.648ZM263.686 100.976L264.023 101.918C265.496 101.391 266.954 100.527 268.397 99.3515L267.766 98.576L267.135 97.8004C265.827 98.8654 264.564 99.6005 263.35 100.034L263.686 100.976ZM267.766 98.576L266.985 99.2L272.313 105.872L273.094 105.248L273.876 104.624L268.548 97.952L267.766 98.576ZM273.094 105.248L272.512 104.435C270.694 105.738 268.574 106.748 266.143 107.456L266.422 108.416L266.702 109.376C269.326 108.612 271.655 107.51 273.677 106.061L273.094 105.248ZM266.422 108.416L266.143 107.456C263.698 108.168 261.312 108.52 258.982 108.52V109.52V110.52C261.516 110.52 264.09 110.136 266.702 109.376L266.422 108.416ZM264.694 104H265.694V91.328H264.694H263.694V104H264.694ZM264.694 91.328V92.328H273.094V91.328V90.328H264.694V91.328ZM273.094 91.328H272.094V105.248H273.094H274.094V91.328H273.094ZM273.094 105.248L273.241 104.259L264.841 103.011L264.694 104L264.547 104.989L272.947 106.237L273.094 105.248Z" fill="white" mask="url(#path-1-outside-1_236_5582)"/>
<path d="M25.4674 47V13.4H40.8274C43.8994 13.4 46.5394 13.896 48.7474 14.888C50.9874 15.88 52.7154 17.32 53.9314 19.208C55.1474 21.064 55.7554 23.272 55.7554 25.832C55.7554 28.36 55.1474 30.552 53.9314 32.408C52.7154 34.264 50.9874 35.704 48.7474 36.728C46.5394 37.72 43.8994 38.216 40.8274 38.216H30.7474L34.9714 34.088V47H25.4674ZM34.9714 35.096L30.7474 30.728H40.2514C42.2354 30.728 43.7074 30.296 44.6674 29.432C45.6594 28.568 46.1554 27.368 46.1554 25.832C46.1554 24.264 45.6594 23.048 44.6674 22.184C43.7074 21.32 42.2354 20.888 40.2514 20.888H30.7474L34.9714 16.52V35.096ZM60.3893 47V13.4H75.7493C78.8213 13.4 81.4613 13.896 83.6693 14.888C85.9093 15.88 87.6373 17.32 88.8533 19.208C90.0693 21.064 90.6773 23.272 90.6773 25.832C90.6773 28.36 90.0693 30.552 88.8533 32.408C87.6373 34.232 85.9093 35.64 83.6693 36.632C81.4613 37.592 78.8213 38.072 75.7493 38.072H65.6693L69.8933 34.088V47H60.3893ZM81.1733 47L72.8213 34.76H82.9493L91.3493 47H81.1733ZM69.8933 35.096L65.6693 30.728H75.1733C77.1573 30.728 78.6293 30.296 79.5893 29.432C80.5813 28.568 81.0773 27.368 81.0773 25.832C81.0773 24.264 80.5813 23.048 79.5893 22.184C78.6293 21.32 77.1573 20.888 75.1733 20.888H65.6693L69.8933 16.52V35.096ZM112.865 47.672C110.177 47.672 107.697 47.24 105.425 46.376C103.153 45.512 101.169 44.296 99.4725 42.728C97.8085 41.128 96.5125 39.272 95.5845 37.16C94.6565 35.048 94.1925 32.728 94.1925 30.2C94.1925 27.672 94.6565 25.352 95.5845 23.24C96.5125 21.128 97.8085 19.288 99.4725 17.72C101.169 16.12 103.153 14.888 105.425 14.024C107.697 13.16 110.177 12.728 112.865 12.728C115.585 12.728 118.065 13.16 120.305 14.024C122.577 14.888 124.545 16.12 126.209 17.72C127.873 19.288 129.169 21.128 130.097 23.24C131.057 25.352 131.537 27.672 131.537 30.2C131.537 32.728 131.057 35.064 130.097 37.208C129.169 39.32 127.873 41.16 126.209 42.728C124.545 44.296 122.577 45.512 120.305 46.376C118.065 47.24 115.585 47.672 112.865 47.672ZM112.865 39.8C114.145 39.8 115.329 39.576 116.417 39.128C117.537 38.68 118.497 38.04 119.297 37.208C120.129 36.344 120.769 35.32 121.217 34.136C121.697 32.952 121.937 31.64 121.937 30.2C121.937 28.728 121.697 27.416 121.217 26.264C120.769 25.08 120.129 24.072 119.297 23.24C118.497 22.376 117.537 21.72 116.417 21.272C115.329 20.824 114.145 20.6 112.865 20.6C111.585 20.6 110.385 20.824 109.265 21.272C108.177 21.72 107.217 22.376 106.385 23.24C105.585 24.072 104.945 25.08 104.465 26.264C104.017 27.416 103.793 28.728 103.793 30.2C103.793 31.64 104.017 32.952 104.465 34.136C104.945 35.32 105.585 36.344 106.385 37.208C107.217 38.04 108.177 38.68 109.265 39.128C110.385 39.576 111.585 39.8 112.865 39.8ZM143.155 47.672C140.691 47.672 138.451 47.256 136.435 46.424C134.451 45.56 132.803 44.328 131.491 42.728L136.675 36.584C137.571 37.736 138.499 38.616 139.459 39.224C140.419 39.8 141.427 40.088 142.483 40.088C145.299 40.088 146.707 38.456 146.707 35.192V20.744H135.091V13.4H156.115V34.616C156.115 39 155.011 42.28 152.803 44.456C150.595 46.6 147.379 47.672 143.155 47.672ZM171.266 26.408H186.866V33.512H171.266V26.408ZM171.938 39.656H189.506V47H162.53V13.4H188.882V20.744H171.938V39.656ZM211.532 47.672C208.876 47.672 206.412 47.256 204.14 46.424C201.9 45.56 199.948 44.344 198.284 42.776C196.652 41.208 195.372 39.368 194.444 37.256C193.516 35.112 193.052 32.76 193.052 30.2C193.052 27.64 193.516 25.304 194.444 23.192C195.372 21.048 196.652 19.192 198.284 17.624C199.948 16.056 201.9 14.856 204.14 14.024C206.412 13.16 208.876 12.728 211.532 12.728C214.636 12.728 217.404 13.272 219.836 14.36C222.3 15.448 224.348 17.016 225.98 19.064L219.932 24.536C218.844 23.256 217.644 22.28 216.332 21.608C215.052 20.936 213.612 20.6 212.012 20.6C210.636 20.6 209.372 20.824 208.22 21.272C207.068 21.72 206.076 22.376 205.244 23.24C204.444 24.072 203.804 25.08 203.324 26.264C202.876 27.448 202.652 28.76 202.652 30.2C202.652 31.64 202.876 32.952 203.324 34.136C203.804 35.32 204.444 36.344 205.244 37.208C206.076 38.04 207.068 38.68 208.22 39.128C209.372 39.576 210.636 39.8 212.012 39.8C213.612 39.8 215.052 39.464 216.332 38.792C217.644 38.12 218.844 37.144 219.932 35.864L225.98 41.336C224.348 43.352 222.3 44.92 219.836 46.04C217.404 47.128 214.636 47.672 211.532 47.672ZM237.088 47V20.936H226.768V13.4H256.864V20.936H246.592V47H237.088ZM16.7522 106V79.936H6.43219V72.4H36.5282V79.936H26.2562V106H16.7522ZM40.0689 106V72.4H55.4289C58.5009 72.4 61.1409 72.896 63.3489 73.888C65.5889 74.88 67.3169 76.32 68.5329 78.208C69.7489 80.064 70.3569 82.272 70.3569 84.832C70.3569 87.36 69.7489 89.552 68.5329 91.408C67.3169 93.232 65.5889 94.64 63.3489 95.632C61.1409 96.592 58.5009 97.072 55.4289 97.072H45.3489L49.5729 93.088V106H40.0689ZM60.8529 106L52.5009 93.76H62.6289L71.0289 106H60.8529ZM49.5729 94.096L45.3489 89.728H54.8529C56.8369 89.728 58.3089 89.296 59.2689 88.432C60.2609 87.568 60.7569 86.368 60.7569 84.832C60.7569 83.264 60.2609 82.048 59.2689 81.184C58.3089 80.32 56.8369 79.888 54.8529 79.888H45.3489L49.5729 75.52V94.096ZM71.5682 106L86.4002 72.4H95.7602L110.64 106H100.752L89.1362 77.056H92.8802L81.2642 106H71.5682ZM79.6802 99.472L82.1282 92.464H98.5442L100.992 99.472H79.6802ZM129.618 106.672C126.962 106.672 124.498 106.256 122.226 105.424C119.986 104.56 118.034 103.344 116.37 101.776C114.738 100.208 113.458 98.368 112.53 96.256C111.602 94.112 111.138 91.76 111.138 89.2C111.138 86.64 111.602 84.304 112.53 82.192C113.458 80.048 114.738 78.192 116.37 76.624C118.034 75.056 119.986 73.856 122.226 73.024C124.498 72.16 126.962 71.728 129.618 71.728C132.722 71.728 135.49 72.272 137.922 73.36C140.386 74.448 142.434 76.016 144.066 78.064L138.018 83.536C136.93 82.256 135.73 81.28 134.418 80.608C133.138 79.936 131.698 79.6 130.098 79.6C128.722 79.6 127.458 79.824 126.306 80.272C125.154 80.72 124.162 81.376 123.33 82.24C122.53 83.072 121.89 84.08 121.41 85.264C120.962 86.448 120.738 87.76 120.738 89.2C120.738 90.64 120.962 91.952 121.41 93.136C121.89 94.32 122.53 95.344 123.33 96.208C124.162 97.04 125.154 97.68 126.306 98.128C127.458 98.576 128.722 98.8 130.098 98.8C131.698 98.8 133.138 98.464 134.418 97.792C135.73 97.12 136.93 96.144 138.018 94.864L144.066 100.336C142.434 102.352 140.386 103.92 137.922 105.04C135.49 106.128 132.722 106.672 129.618 106.672ZM156.799 98.56L156.271 87.904L170.719 72.4H181.183L166.783 88L161.503 93.52L156.799 98.56ZM148.303 106V72.4H157.711V106H148.303ZM170.863 106L159.919 92.128L166.111 85.504L181.903 106H170.863ZM184.397 106V72.4H193.901V106H184.397ZM200.663 106V72.4H208.487L227.015 94.768H223.319V72.4H232.631V106H224.807L206.279 83.632H209.975V106H200.663ZM256.135 106.672C253.479 106.672 251.015 106.256 248.743 105.424C246.471 104.56 244.503 103.344 242.839 101.776C241.207 100.208 239.927 98.368 238.999 96.256C238.071 94.112 237.607 91.76 237.607 89.2C237.607 86.64 238.071 84.304 238.999 82.192C239.927 80.048 241.223 78.192 242.887 76.624C244.551 75.056 246.519 73.856 248.791 73.024C251.095 72.16 253.607 71.728 256.327 71.728C259.495 71.728 262.327 72.256 264.823 73.312C267.319 74.368 269.383 75.888 271.015 77.872L264.967 83.344C263.815 82.096 262.567 81.168 261.223 80.56C259.911 79.92 258.439 79.6 256.807 79.6C255.367 79.6 254.055 79.824 252.871 80.272C251.687 80.72 250.679 81.376 249.847 82.24C249.015 83.072 248.359 84.08 247.879 85.264C247.431 86.416 247.207 87.728 247.207 89.2C247.207 90.608 247.431 91.904 247.879 93.088C248.359 94.272 249.015 95.296 249.847 96.16C250.679 96.992 251.671 97.648 252.823 98.128C254.007 98.576 255.303 98.8 256.711 98.8C258.119 98.8 259.495 98.576 260.839 98.128C262.183 97.648 263.543 96.848 264.919 95.728L270.247 102.4C268.327 103.776 266.103 104.832 263.575 105.568C261.047 106.304 258.567 106.672 256.135 106.672ZM261.847 101.152V88.48H270.247V102.4L261.847 101.152Z" fill="white"/>
</svg>
